<svg width="280" height="289" viewBox="0 0 280 289" fill="none" xmlns="http://www.w3.org/2000/svg">
<g opacity="0.7">
<path d="M144.472 17.6006L131.731 20.3948C130.014 20.7715 128.915 22.5274 129.276 24.3167L131.959 37.5875C132.32 39.3768 134.006 40.5219 135.724 40.1452L148.464 37.351C150.181 36.9742 151.281 35.2183 150.919 33.4291L148.237 20.1582C147.875 18.3689 146.189 17.2238 144.472 17.6006Z" stroke="#263238" stroke-linecap="round" stroke-linejoin="round"/>
<path d="M148.29 20.6746L149.914 28.7271" stroke="#263238" stroke-linecap="round" stroke-linejoin="round"/>
<path d="M152.967 23.8486L145.237 25.5463" stroke="#263238" stroke-linecap="round" stroke-linejoin="round"/>
<path d="M100.889 245.878L87.8699 245.065C86.1145 244.955 84.6061 246.348 84.5008 248.177L83.7197 261.739C83.6143 263.567 84.952 265.138 86.7073 265.248L99.7267 266.062C101.482 266.171 102.99 264.778 103.096 262.95L103.877 249.388C103.982 247.559 102.645 245.988 100.889 245.878Z" stroke="#263238" stroke-width="1.0018" stroke-linecap="round" stroke-linejoin="round"/>
<path d="M98.184 255.074L90.2912 254.599" stroke="#263238" stroke-linecap="round" stroke-linejoin="round"/>
<path d="M23.2065 151.478L10.8477 147.213C9.18142 146.638 7.38311 147.579 6.83107 149.315L2.73661 162.189C2.18457 163.924 3.08785 165.798 4.75414 166.373L17.1129 170.638C18.7792 171.213 20.5775 170.272 21.1296 168.536L25.224 155.662C25.7761 153.927 24.8728 152.053 23.2065 151.478Z" stroke="#263238" stroke-linecap="round" stroke-linejoin="round"/>
<path d="M18.9251 156.343L9.04034 161.514" stroke="#263238" stroke-linecap="round" stroke-linejoin="round"/>
<path d="M13.2553 154.248C13.3738 154.502 13.4177 154.788 13.3813 155.068C13.345 155.348 13.23 155.611 13.0509 155.824C12.8717 156.036 12.6364 156.189 12.3743 156.263C12.1122 156.337 11.8349 156.329 11.5773 156.239C11.3197 156.15 11.0932 155.983 10.9261 155.76C10.7589 155.537 10.6587 155.268 10.6378 154.986C10.6169 154.704 10.6764 154.422 10.8088 154.175C10.9412 153.928 11.1406 153.727 11.382 153.597C11.5454 153.509 11.7242 153.455 11.9079 153.44C12.0915 153.425 12.2762 153.448 12.451 153.509C12.6258 153.57 12.787 153.666 12.9252 153.793C13.0634 153.92 13.1756 154.075 13.2553 154.248V154.248Z" stroke="#263238" stroke-linecap="round" stroke-linejoin="round"/>
<path d="M17.1767 162.353C17.2952 162.607 17.3391 162.892 17.3027 163.173C17.2663 163.453 17.1514 163.716 16.9723 163.928C16.7931 164.141 16.5578 164.294 16.2957 164.368C16.0336 164.442 15.7563 164.433 15.4987 164.344C15.2411 164.254 15.0146 164.088 14.8474 163.865C14.6803 163.642 14.58 163.373 14.5592 163.091C14.5383 162.808 14.5978 162.526 14.7302 162.279C14.8626 162.032 15.0619 161.832 15.3034 161.702C15.4668 161.613 15.6456 161.56 15.8292 161.545C16.0129 161.53 16.1976 161.553 16.3724 161.614C16.5471 161.674 16.7084 161.771 16.8466 161.898C16.9848 162.025 17.097 162.18 17.1767 162.353V162.353Z" stroke="#263238" stroke-linecap="round" stroke-linejoin="round"/>
<path d="M272.898 141.783L260.158 144.577C258.44 144.954 257.341 146.71 257.702 148.499L260.385 161.77C260.746 163.559 262.432 164.704 264.15 164.327L276.89 161.533C278.607 161.156 279.707 159.4 279.345 157.611L276.663 144.34C276.301 142.551 274.615 141.406 272.898 141.783Z" stroke="#263238" stroke-linecap="round" stroke-linejoin="round"/>
<path d="M270.689 149.594L266.374 156.489" stroke="#263238" stroke-linecap="round" stroke-linejoin="round"/>
<path d="M271.838 155.292L265.219 150.791" stroke="#263238" stroke-linecap="round" stroke-linejoin="round"/>
<path d="M145.279 241.921C143.986 243.871 142.168 245.378 140.053 246.251C137.939 247.125 135.623 247.325 133.399 246.828C131.176 246.331 129.143 245.158 127.559 243.457C125.975 241.757 124.911 239.605 124.5 237.275C124.09 234.944 124.352 232.539 125.254 230.364C126.156 228.189 127.656 226.341 129.566 225.054C131.476 223.767 133.709 223.099 135.984 223.134C138.258 223.169 140.471 223.905 142.344 225.25C144.855 227.056 146.574 229.827 147.125 232.953C147.675 236.079 147.011 239.305 145.279 241.921Z" fill="#0892C9"/>
<path opacity="0.3" d="M143.78 240.842C142.691 242.482 141.16 243.748 139.381 244.482C137.601 245.216 135.652 245.383 133.781 244.963C131.91 244.543 130.201 243.555 128.869 242.123C127.537 240.691 126.642 238.88 126.298 236.919C125.954 234.958 126.176 232.934 126.936 231.104C127.696 229.274 128.96 227.72 130.568 226.639C132.176 225.557 134.055 224.996 135.969 225.027C137.883 225.057 139.745 225.679 141.32 226.812C143.431 228.333 144.877 230.665 145.338 233.296C145.799 235.927 145.239 238.641 143.78 240.842Z" fill="black" fill-opacity="0.7"/>
<path d="M143.78 240.842C142.691 242.482 141.16 243.748 139.381 244.482C137.601 245.216 135.652 245.383 133.781 244.963C131.91 244.543 130.201 243.555 128.869 242.123C127.537 240.691 126.642 238.88 126.298 236.919C125.954 234.958 126.176 232.934 126.936 231.104C127.696 229.274 128.96 227.72 130.568 226.639C132.176 225.557 134.055 224.996 135.969 225.027C137.883 225.057 139.745 225.679 141.32 226.812C143.431 228.333 144.877 230.665 145.338 233.296C145.799 235.927 145.239 238.641 143.78 240.842V240.842Z" stroke="#263238" stroke-linecap="round" stroke-linejoin="round"/>
<path d="M138.298 230.07L138.766 229.375L139.927 230.207L139.459 230.91C140.327 231.853 140.308 233.03 139.459 234.305L139.259 234.604L137.917 233.635L138.179 233.245C138.622 232.594 138.535 232.132 138.085 231.807C137.636 231.482 137.205 231.547 136.755 232.223C136.306 232.9 136.256 233.524 136.686 235.033C137.205 236.842 137.111 237.869 136.399 238.936C135.55 240.237 134.476 240.653 133.327 240.146L132.871 240.829L131.728 240.003L132.184 239.313C131.304 238.364 131.335 237.173 132.184 235.892L132.609 235.242L133.951 236.211L133.464 236.946C133.015 237.596 133.14 238.064 133.589 238.396C134.039 238.728 134.488 238.682 134.938 238.006C135.388 237.329 135.444 236.666 135.007 235.196C134.476 233.407 134.576 232.367 135.294 231.293C136.1 230.031 137.155 229.583 138.298 230.07Z" fill="#0892C9" stroke="#263238" stroke-linecap="round" stroke-linejoin="round"/>
<path opacity="0.2" d="M132.609 225.394C132.61 228.195 131.912 230.948 130.583 233.383C129.254 235.817 127.34 237.85 125.028 239.281C124.48 237.744 124.24 236.106 124.324 234.469C124.408 232.832 124.814 231.23 125.516 229.763C126.219 228.296 127.203 226.994 128.408 225.94C129.613 224.885 131.013 224.099 132.522 223.631C132.582 224.217 132.611 224.805 132.609 225.394Z" fill="black" fill-opacity="0.7"/>
<path d="M145.279 241.921C143.986 243.871 142.168 245.378 140.053 246.251C137.939 247.125 135.623 247.325 133.399 246.828C131.176 246.331 129.143 245.158 127.559 243.457C125.975 241.757 124.911 239.605 124.5 237.275C124.09 234.944 124.352 232.539 125.254 230.364C126.156 228.189 127.656 226.341 129.566 225.054C131.476 223.767 133.709 223.099 135.984 223.134C138.258 223.169 140.471 223.905 142.344 225.25C144.855 227.056 146.574 229.827 147.125 232.953C147.675 236.079 147.011 239.305 145.279 241.921V241.921Z" stroke="#263238" stroke-linecap="round" stroke-linejoin="round"/>
<path d="M119.39 237.011C125.746 237.011 130.898 231.644 130.898 225.023C130.898 218.402 125.746 213.035 119.39 213.035C113.034 213.035 107.881 218.402 107.881 225.023C107.881 231.644 113.034 237.011 119.39 237.011Z" fill="#0892C9" stroke="#263238" stroke-linecap="round" stroke-linejoin="round"/>
<path opacity="0.3" d="M119.39 235.105C124.735 235.105 129.068 230.591 129.068 225.023C129.068 219.455 124.735 214.941 119.39 214.941C114.044 214.941 109.711 219.455 109.711 225.023C109.711 230.591 114.044 235.105 119.39 235.105Z" fill="black" fill-opacity="0.7"/>
<path d="M119.39 235.105C124.735 235.105 129.068 230.591 129.068 225.023C129.068 219.455 124.735 214.941 119.39 214.941C114.044 214.941 109.711 219.455 109.711 225.023C109.711 230.591 114.044 235.105 119.39 235.105Z" stroke="#263238" stroke-linecap="round" stroke-linejoin="round"/>
<path d="M118.684 219.41V218.564H120.095V219.41C121.344 219.676 121.969 220.652 121.969 222.206V222.545H120.333V222.07C120.333 221.25 120.02 220.938 119.471 220.938C118.921 220.938 118.609 221.25 118.609 222.07C118.609 222.889 118.921 223.455 120.083 224.425C121.494 225.602 121.956 226.499 121.956 227.807C121.956 229.361 121.332 230.363 120.083 230.623V231.456H118.672V230.623C117.423 230.363 116.798 229.361 116.798 227.807V227.026H118.428V227.924C118.428 228.743 118.772 229.036 119.321 229.036C119.871 229.036 120.22 228.743 120.22 227.924C120.22 227.104 119.908 226.519 118.74 225.569C117.329 224.405 116.867 223.494 116.867 222.18C116.861 220.671 117.473 219.689 118.684 219.41Z" fill="#0892C9" stroke="#263238" stroke-linecap="round" stroke-linejoin="round"/>
<path d="M183.977 235.092C187.406 229.518 185.848 222.103 180.496 218.531C175.145 214.959 168.027 216.583 164.598 222.157C161.169 227.732 162.727 235.146 168.079 238.718C173.43 242.29 180.548 240.667 183.977 235.092Z" fill="#0892C9" stroke="#263238" stroke-linecap="round" stroke-linejoin="round"/>
<path opacity="0.3" d="M181.377 221.771C182.68 223.232 183.538 225.062 183.842 227.031C184.146 229 183.883 231.019 183.086 232.832C182.289 234.645 180.993 236.171 179.363 237.217C177.733 238.263 175.842 238.782 173.929 238.708C172.016 238.634 170.166 237.971 168.615 236.803C167.064 235.634 165.88 234.013 165.213 232.143C164.547 230.274 164.427 228.24 164.87 226.3C165.313 224.36 166.299 222.6 167.702 221.244C168.632 220.342 169.725 219.64 170.916 219.178C172.107 218.716 173.374 218.504 174.644 218.553C175.915 218.601 177.163 218.911 178.318 219.463C179.474 220.015 180.513 220.799 181.377 221.771Z" fill="black" fill-opacity="0.7"/>
<path d="M181.377 221.771C182.68 223.232 183.538 225.062 183.842 227.031C184.146 229 183.883 231.019 183.086 232.832C182.289 234.645 180.993 236.171 179.363 237.217C177.733 238.263 175.842 238.782 173.929 238.708C172.016 238.634 170.166 237.971 168.615 236.803C167.064 235.634 165.88 234.013 165.213 232.143C164.547 230.274 164.427 228.24 164.87 226.3C165.313 224.36 166.299 222.6 167.702 221.244C168.632 220.342 169.725 219.64 170.916 219.178C172.107 218.716 173.374 218.504 174.644 218.553C175.915 218.601 177.163 218.911 178.318 219.463C179.474 220.015 180.513 220.799 181.377 221.771V221.771Z" stroke="#263238" stroke-linecap="round" stroke-linejoin="round"/>
<path d="M170.106 225.023L169.55 224.373L170.581 223.371L171.136 224.021C172.21 223.371 173.309 223.618 174.321 224.756L174.558 225.016L173.365 226.174L173.053 225.83C172.516 225.231 172.085 225.225 171.686 225.615C171.286 226.005 171.255 226.454 171.786 227.052C172.316 227.651 172.928 227.846 174.408 227.735C176.213 227.592 177.156 227.904 178.011 228.867C179.023 230.005 179.204 231.189 178.48 232.249L179.023 232.861L177.986 233.863L177.443 233.251C176.363 233.941 175.251 233.654 174.24 232.516L173.721 231.944L174.92 230.786L175.507 231.436C176.044 232.035 176.488 232.009 176.894 231.619C177.299 231.228 177.356 230.766 176.819 230.168C176.282 229.57 175.67 229.361 174.202 229.518C172.404 229.667 171.448 229.342 170.599 228.379C169.594 227.235 169.4 226.083 170.106 225.023Z" fill="#0892C9" stroke="#263238" stroke-linecap="round" stroke-linejoin="round"/>
<path d="M195.073 97.7445C202.834 91.0093 203.883 78.9961 197.417 70.9123C190.952 62.8285 179.419 61.7352 171.659 68.4704C163.898 75.2056 162.848 87.2188 169.314 95.3026C175.78 103.386 187.313 104.48 195.073 97.7445Z" fill="#0892C9"/>
<path opacity="0.5" d="M195.073 97.7443C202.834 91.0091 203.883 78.9959 197.417 70.9121C190.952 62.8282 179.419 61.735 171.659 68.4701C163.898 75.2053 162.848 87.2185 169.314 95.3023C175.78 103.386 187.313 104.479 195.073 97.7443Z" fill="white"/>
<path d="M195.073 97.7445C202.834 91.0093 203.883 78.9961 197.417 70.9123C190.952 62.8285 179.419 61.7352 171.659 68.4704C163.898 75.2056 162.848 87.2188 169.314 95.3026C175.78 103.386 187.313 104.48 195.073 97.7445Z" stroke="#263238" stroke-miterlimit="10"/>
<path d="M183.893 83.0626L199.104 91.0306C200.524 87.9605 201.088 84.5371 200.732 81.1497C200.377 77.7623 199.116 74.5467 197.094 71.8684L183.893 83.0626Z" fill="white"/>
<path d="M183.993 82.2038L196.732 71.4064C194.83 69.0457 192.382 67.2281 189.619 66.1248L187.303 72.6943L183.993 82.2038Z" fill="#0892C9"/>
<path d="M185.429 65.0583L183.893 80.7471L189.076 65.9104C187.894 65.4905 186.671 65.2049 185.429 65.0583Z" fill="#757575"/>
<path d="M183.1 82.9195L184.867 64.9931C181.857 64.7297 178.832 65.2835 176.088 66.6004C173.344 67.9174 170.974 69.9526 169.21 72.5076C167.446 75.0625 166.348 78.0501 166.022 81.179C165.696 84.3078 166.155 87.4712 167.352 90.3606L183.1 82.9195Z" fill="#999999"/>
<path d="M181.589 101.223C185.062 101.591 188.561 100.868 191.636 99.1462C194.711 97.4247 197.221 94.7839 198.842 91.5637L183.363 83.4526L167.583 90.9198C168.872 93.7456 170.837 96.178 173.291 97.9826C175.744 99.7872 178.602 100.903 181.589 101.223Z" fill="#BFBFBF"/>
<path d="M202.661 150.805L204.195 150.969L205.094 141.826L203.56 141.663L202.661 150.805Z" fill="#757575" stroke="#263238" stroke-linecap="round" stroke-linejoin="round"/>
<path d="M203.034 147.012L204.569 147.176L204.992 142.873L203.457 142.709L203.034 147.012Z" fill="#0892C9" stroke="#263238" stroke-miterlimit="10"/>
<path d="M199.599 146.411L201.134 146.575L202.033 137.432L200.499 137.268L199.599 146.411Z" fill="#757575" stroke="#263238" stroke-linecap="round" stroke-linejoin="round"/>
<path d="M199.768 144.692L201.302 144.856L201.725 140.553L200.191 140.389L199.768 144.692Z" fill="#0892C9" stroke="#263238" stroke-miterlimit="10"/>
<path d="M195.9 148.44L197.434 148.604L198.333 139.461L196.799 139.297L195.9 148.44Z" fill="#757575" stroke="#263238" stroke-linecap="round" stroke-linejoin="round"/>
<path d="M196.046 147.051L197.58 147.215L198.003 142.912L196.469 142.748L196.046 147.051Z" fill="#0892C9" stroke="#263238" stroke-miterlimit="10"/>
<path d="M192.043 152.173L193.577 152.337L194.476 143.194L192.942 143.03L192.043 152.173Z" fill="#757575" stroke="#263238" stroke-linecap="round" stroke-linejoin="round"/>
<path d="M192.054 152.166L193.588 152.33L194.012 148.027L192.477 147.863L192.054 152.166Z" fill="#0892C9" stroke="#263238" stroke-miterlimit="10"/>
<path d="M189.164 146.009L190.699 146.172L191.598 137.029L190.064 136.866L189.164 146.009Z" fill="#757575" stroke="#263238" stroke-linecap="round" stroke-linejoin="round"/>
<path d="M189.263 144.969L190.797 145.133L191.221 140.83L189.686 140.666L189.263 144.969Z" fill="#0892C9" stroke="#263238" stroke-miterlimit="10"/>
<path d="M186.097 141.628L187.631 141.791L188.53 132.648L186.996 132.485L186.097 141.628Z" fill="#757575" stroke="#263238" stroke-linecap="round" stroke-linejoin="round"/>
<path d="M186.207 140.589L187.742 140.752L188.165 136.449L186.631 136.286L186.207 140.589Z" fill="#0892C9" stroke="#263238" stroke-miterlimit="10"/>
<path d="M182.168 146.094L183.702 146.258L184.601 137.115L183.067 136.951L182.168 146.094Z" fill="#757575" stroke="#263238" stroke-linecap="round" stroke-linejoin="round"/>
<path d="M182.506 142.656L184.04 142.82L184.464 138.517L182.929 138.353L182.506 142.656Z" fill="#0892C9" stroke="#263238" stroke-miterlimit="10"/>
<path d="M178.208 150.891L179.742 151.055L180.642 141.912L179.107 141.748L178.208 150.891Z" fill="#757575" stroke="#263238" stroke-linecap="round" stroke-linejoin="round"/>
<path d="M178.611 146.753L180.145 146.917L180.568 142.614L179.034 142.451L178.611 146.753Z" fill="#0892C9" stroke="#263238" stroke-miterlimit="10"/>
<path d="M175.26 145.354L176.794 145.518L177.693 136.375L176.159 136.211L175.26 145.354Z" fill="#757575" stroke="#263238" stroke-linecap="round" stroke-linejoin="round"/>
<path d="M175.393 143.985L176.927 144.149L177.35 139.846L175.816 139.682L175.393 143.985Z" fill="#0892C9" stroke="#263238" stroke-miterlimit="10"/>
<path d="M171.954 143.471L173.488 143.635L174.387 134.492L172.853 134.328L171.954 143.471Z" fill="#757575" stroke="#263238" stroke-linecap="round" stroke-linejoin="round"/>
<path d="M172.327 139.676L173.862 139.84L174.285 135.537L172.751 135.373L172.327 139.676Z" fill="#0892C9" stroke="#263238" stroke-miterlimit="10"/>
<path d="M168.212 145.955L169.747 146.119L170.646 136.976L169.112 136.812L168.212 145.955Z" fill="#757575" stroke="#263238" stroke-linecap="round" stroke-linejoin="round"/>
<path d="M168.218 145.947L169.752 146.111L170.175 141.808L168.641 141.644L168.218 145.947Z" fill="#0892C9" stroke="#263238" stroke-miterlimit="10"/>
<path d="M165.04 142.724L166.574 142.888L167.473 133.745L165.939 133.581L165.04 142.724Z" fill="#757575" stroke="#263238" stroke-linecap="round" stroke-linejoin="round"/>
<path d="M165.109 142.042L166.643 142.206L167.066 137.903L165.532 137.739L165.109 142.042Z" fill="#0892C9" stroke="#263238" stroke-miterlimit="10"/>
<path d="M161.465 143.59L163 143.753L163.899 134.61L162.365 134.447L161.465 143.59Z" fill="#757575" stroke="#263238" stroke-linecap="round" stroke-linejoin="round"/>
<path d="M161.499 143.245L163.034 143.408L163.457 139.106L161.923 138.942L161.499 143.245Z" fill="#0892C9" stroke="#263238" stroke-miterlimit="10"/>
<path d="M158.125 142.044L159.659 142.207L160.559 133.064L159.024 132.901L158.125 142.044Z" fill="#757575" stroke="#263238" stroke-linecap="round" stroke-linejoin="round"/>
<path d="M158.568 137.575L160.102 137.739L160.526 133.436L158.991 133.272L158.568 137.575Z" fill="#0892C9" stroke="#263238" stroke-miterlimit="10"/>
<path d="M201.228 169.208L153.964 164.16C153.769 164.14 153.574 164.202 153.422 164.331C153.27 164.46 153.173 164.647 153.153 164.85C153.143 164.95 153.153 165.052 153.181 165.148C153.209 165.245 153.255 165.334 153.317 165.412C153.378 165.49 153.454 165.555 153.539 165.602C153.625 165.65 153.718 165.679 153.815 165.689L201.078 170.737C201.174 170.747 201.271 170.737 201.364 170.708C201.457 170.679 201.543 170.632 201.618 170.568C201.694 170.504 201.756 170.426 201.802 170.337C201.848 170.248 201.876 170.151 201.886 170.05C201.896 169.95 201.887 169.849 201.859 169.752C201.831 169.655 201.786 169.565 201.724 169.487C201.663 169.409 201.588 169.344 201.503 169.296C201.417 169.248 201.324 169.218 201.228 169.208Z" fill="#263238"/>
<path d="M228.553 46.2732L185.373 41.6615C185.181 41.641 184.986 41.6603 184.8 41.7181C184.615 41.776 184.442 41.8714 184.292 41.9988C184.142 42.1263 184.017 42.2833 183.925 42.4609C183.833 42.6385 183.776 42.8332 183.756 43.034C183.736 43.2347 183.755 43.4375 183.81 43.6308C183.866 43.8241 183.957 44.0041 184.08 44.1605C184.202 44.317 184.353 44.4468 184.523 44.5425C184.694 44.6383 184.881 44.6981 185.074 44.7186L228.253 49.3303C228.642 49.3717 229.031 49.2504 229.334 48.993C229.638 48.7356 229.83 48.3632 229.87 47.9578C229.91 47.5524 229.793 47.1472 229.546 46.8313C229.299 46.5153 228.942 46.3146 228.553 46.2732Z" fill="#263238"/>
<path d="M217.138 51.3792L195.551 49.0701C195.356 49.0501 195.161 49.1114 195.009 49.2406C194.857 49.3697 194.76 49.5563 194.74 49.7596C194.73 49.86 194.74 49.9613 194.768 50.0578C194.796 50.1543 194.842 50.2441 194.904 50.322C194.965 50.4 195.041 50.4645 195.126 50.512C195.212 50.5594 195.305 50.5889 195.402 50.5987L216.988 52.9078C217.183 52.9278 217.378 52.8665 217.53 52.7373C217.683 52.6082 217.779 52.4216 217.8 52.2183C217.81 52.1178 217.801 52.0161 217.773 51.9192C217.746 51.8224 217.7 51.7322 217.638 51.6541C217.576 51.576 217.5 51.5115 217.415 51.4643C217.329 51.4171 217.235 51.3881 217.138 51.3792Z" fill="#263238"/>
<path d="M240.898 117.569L170.812 110.089C170.622 110.066 170.431 110.122 170.279 110.243C170.128 110.365 170.028 110.542 170 110.739C169.981 110.943 170.039 111.146 170.163 111.304C170.287 111.463 170.467 111.564 170.662 111.585L240.748 119.124C240.844 119.133 240.941 119.123 241.034 119.094C241.127 119.065 241.213 119.017 241.288 118.953C241.363 118.889 241.425 118.81 241.47 118.721C241.516 118.632 241.544 118.534 241.553 118.434C241.567 118.332 241.561 118.228 241.535 118.129C241.51 118.029 241.465 117.936 241.404 117.855C241.342 117.774 241.266 117.707 241.179 117.658C241.092 117.609 240.996 117.579 240.898 117.569Z" fill="#263238"/>
<path d="M240.379 123.065L158.86 114.369C158.764 114.358 158.667 114.367 158.574 114.396C158.482 114.424 158.395 114.472 158.32 114.535C158.246 114.599 158.183 114.677 158.138 114.766C158.092 114.854 158.064 114.952 158.054 115.052C158.033 115.25 158.086 115.448 158.203 115.606C158.319 115.764 158.49 115.868 158.679 115.897L240.173 124.594C240.27 124.604 240.367 124.595 240.46 124.566C240.553 124.537 240.639 124.489 240.714 124.425C240.789 124.362 240.851 124.283 240.897 124.194C240.943 124.105 240.972 124.008 240.982 123.908C240.992 123.807 240.983 123.706 240.955 123.609C240.927 123.513 240.881 123.423 240.82 123.344C240.759 123.266 240.683 123.201 240.598 123.153C240.513 123.106 240.419 123.076 240.323 123.065H240.379Z" fill="#263238"/>
<path d="M216.994 126.129L158.298 119.865C158.103 119.843 157.909 119.903 157.756 120.031C157.604 120.159 157.507 120.345 157.486 120.548C157.466 120.751 157.523 120.954 157.646 121.112C157.769 121.271 157.947 121.372 158.142 121.393L216.838 127.657C216.935 127.667 217.032 127.657 217.125 127.628C217.217 127.599 217.304 127.55 217.378 127.486C217.453 127.422 217.515 127.344 217.561 127.255C217.606 127.166 217.635 127.068 217.644 126.968C217.654 126.868 217.646 126.768 217.619 126.671C217.592 126.575 217.547 126.486 217.486 126.408C217.426 126.33 217.352 126.265 217.267 126.217C217.183 126.169 217.09 126.139 216.994 126.129Z" fill="#263238"/>
<path d="M157.398 125.792L155.014 150.031L237.171 158.8L239.555 134.561L157.398 125.792Z" fill="#BFBFBF" stroke="#263238" stroke-miterlimit="10"/>
<path d="M212.715 70.746L210.634 70.5239C210.418 70.5009 210.225 70.6647 210.203 70.8898L209.99 73.0575C209.968 73.2826 210.125 73.4838 210.341 73.5069L212.422 73.729C212.638 73.752 212.831 73.5882 212.853 73.3631L213.067 71.1955C213.089 70.9703 212.931 70.7691 212.715 70.746Z" fill="#0892C9" stroke="#263238" stroke-miterlimit="10"/>
<path d="M241.709 74.9452L214.821 72.0767C214.758 72.0465 214.706 71.9964 214.671 71.9333C214.637 71.8703 214.623 71.7977 214.63 71.7257C214.638 71.6537 214.667 71.586 214.714 71.5323C214.76 71.4785 214.822 71.4414 214.89 71.4263L241.778 74.2427C241.859 74.2593 241.931 74.3069 241.981 74.3761C242.03 74.4454 242.052 74.5313 242.043 74.6169C242.035 74.7025 241.996 74.7817 241.934 74.8388C241.872 74.896 241.792 74.9269 241.709 74.9257V74.9452Z" fill="#263238"/>
<path d="M238.931 76.1549L214.678 73.5531C214.591 73.5432 214.511 73.4981 214.456 73.4274C214.401 73.3567 214.375 73.2663 214.384 73.1758C214.388 73.1307 214.401 73.0869 214.421 73.0469C214.442 73.0069 214.469 72.9716 214.503 72.9431C214.537 72.9146 214.576 72.8935 214.618 72.8809C214.659 72.8684 214.703 72.8647 214.746 72.8701L238.999 75.4719C239.08 75.4885 239.153 75.5361 239.202 75.6053C239.251 75.6746 239.273 75.7605 239.265 75.8461C239.256 75.9317 239.217 76.0109 239.155 76.068C239.093 76.1252 239.013 76.1561 238.931 76.1549Z" fill="#263238"/>
<path d="M212.059 77.426L209.978 77.2039C209.762 77.1808 209.569 77.3446 209.547 77.5698L209.333 79.7374C209.311 79.9625 209.468 80.1638 209.685 80.1868L211.765 80.4089C211.982 80.432 212.175 80.2682 212.197 80.043L212.41 77.8754C212.432 77.6502 212.275 77.449 212.059 77.426Z" fill="#757575" stroke="#263238" stroke-linecap="round" stroke-linejoin="round"/>
<path d="M241.054 81.6252L214.153 78.7567C214.072 78.7401 214 78.6925 213.951 78.6233C213.902 78.5541 213.879 78.4682 213.888 78.3825C213.897 78.2969 213.936 78.2178 213.998 78.1606C214.059 78.1035 214.139 78.0725 214.222 78.0738L241.104 80.9422C241.191 80.9521 241.271 80.997 241.327 81.0675C241.383 81.1379 241.41 81.2284 241.403 81.3195C241.394 81.4075 241.352 81.4883 241.287 81.5452C241.222 81.6021 241.139 81.6308 241.054 81.6252Z" fill="#263238"/>
<path d="M238.269 82.8416L214.022 80.2398C213.934 80.2312 213.853 80.1866 213.797 80.1159C213.741 80.0451 213.714 79.954 213.722 79.8626C213.731 79.7711 213.774 79.6869 213.841 79.6283C213.909 79.5698 213.997 79.5417 214.085 79.5504L238.337 82.1522C238.381 82.1568 238.423 82.1704 238.461 82.1921C238.5 82.2137 238.534 82.2431 238.561 82.2784C238.589 82.3138 238.609 82.3544 238.622 82.398C238.634 82.4416 238.638 82.4874 238.634 82.5327C238.629 82.5779 238.616 82.6218 238.596 82.6619C238.575 82.7019 238.547 82.7373 238.513 82.7659C238.479 82.7946 238.44 82.8161 238.398 82.8291C238.356 82.8421 238.312 82.8463 238.269 82.8416Z" fill="#263238"/>
<path d="M211.402 84.1122L209.321 83.8902C209.105 83.8671 208.912 84.0309 208.89 84.256L208.677 86.4237C208.655 86.6488 208.812 86.85 209.028 86.8731L211.109 87.0952C211.325 87.1183 211.518 86.9544 211.54 86.7293L211.754 84.5617C211.776 84.3365 211.618 84.1353 211.402 84.1122Z" fill="#999999" stroke="#263238" stroke-linecap="round" stroke-linejoin="round"/>
<path d="M240.379 88.312L213.529 85.437C213.483 85.4363 213.438 85.4256 213.396 85.4057C213.354 85.3857 213.317 85.3569 213.286 85.3211C213.256 85.2853 213.233 85.2433 213.219 85.1977C213.205 85.1521 213.2 85.104 213.205 85.0564C213.209 85.0088 213.224 84.9627 213.246 84.9212C213.269 84.8796 213.3 84.8434 213.337 84.815C213.374 84.7866 213.416 84.7664 213.461 84.756C213.506 84.7455 213.552 84.7448 213.597 84.754L240.479 87.6225C240.523 87.6272 240.565 87.6408 240.603 87.6624C240.642 87.6841 240.676 87.7134 240.703 87.7488C240.731 87.7841 240.751 87.8247 240.764 87.8684C240.776 87.912 240.78 87.9577 240.776 88.003C240.771 88.0483 240.758 88.0922 240.737 88.1322C240.717 88.1722 240.689 88.2076 240.655 88.2363C240.621 88.265 240.582 88.2864 240.54 88.2994C240.498 88.3124 240.454 88.3167 240.411 88.312H240.379Z" fill="#263238"/>
<path d="M237.613 89.5214L213.36 86.9196C213.274 86.9098 213.194 86.8646 213.139 86.7939C213.084 86.7233 213.058 86.6328 213.067 86.5423C213.076 86.4514 213.119 86.368 213.187 86.3097C213.255 86.2514 213.342 86.2228 213.429 86.2301L237.682 88.8319C237.77 88.8414 237.85 88.8868 237.906 88.9582C237.961 89.0296 237.988 89.121 237.978 89.2124C237.969 89.3039 237.926 89.3878 237.857 89.4457C237.789 89.5037 237.701 89.5309 237.613 89.5214Z" fill="#263238"/>
<path d="M210.745 90.7978L208.664 90.5757C208.448 90.5526 208.255 90.7164 208.233 90.9416L208.02 93.1092C207.998 93.3344 208.155 93.5356 208.371 93.5586L210.452 93.7807C210.668 93.8038 210.861 93.64 210.883 93.4149L211.097 91.2472C211.119 91.0221 210.961 90.8209 210.745 90.7978Z" fill="#BFBFBF" stroke="#263238" stroke-miterlimit="10"/>
<path d="M239.755 94.9919L212.873 92.1235C212.83 92.1194 212.787 92.1064 212.749 92.0852C212.71 92.064 212.676 92.035 212.648 91.9999C212.62 91.9648 212.599 91.9243 212.586 91.8808C212.573 91.8373 212.569 91.7915 212.573 91.7462C212.583 91.6553 212.626 91.5718 212.694 91.5135C212.761 91.4552 212.848 91.4267 212.936 91.434L239.824 94.309C239.87 94.3097 239.915 94.3203 239.957 94.3403C239.998 94.3602 240.036 94.389 240.066 94.4248C240.097 94.4607 240.12 94.5027 240.134 94.5483C240.148 94.5938 240.153 94.642 240.148 94.6896C240.143 94.7372 240.129 94.7832 240.106 94.8248C240.083 94.8664 240.052 94.9025 240.015 94.931C239.978 94.9594 239.936 94.9795 239.891 94.99C239.846 95.0005 239.8 95.0012 239.755 94.9919Z" fill="#263238"/>
<path d="M236.957 96.2018L212.705 93.6C212.624 93.5834 212.551 93.5358 212.502 93.4665C212.453 93.3973 212.431 93.3114 212.439 93.2258C212.448 93.1402 212.487 93.061 212.549 93.0039C212.611 92.9467 212.691 92.9158 212.773 92.917L237.026 95.5188C237.077 95.5074 237.131 95.5088 237.181 95.5229C237.232 95.5371 237.278 95.5635 237.317 95.6001C237.356 95.6367 237.386 95.6824 237.405 95.7334C237.423 95.7844 237.43 95.8393 237.424 95.8936C237.419 95.9479 237.401 95.9999 237.372 96.0455C237.343 96.0911 237.304 96.1289 237.259 96.1558C237.213 96.1827 237.162 96.198 237.11 96.2003C237.057 96.2027 237.005 96.192 236.957 96.1693V96.2018Z" fill="#263238"/>
<path d="M210.089 97.4775L208.008 97.2554C207.792 97.2323 207.599 97.3961 207.576 97.6213L207.363 99.7889C207.341 100.014 207.498 100.215 207.714 100.238L209.795 100.46C210.012 100.483 210.205 100.32 210.227 100.095L210.44 97.9269C210.462 97.7018 210.305 97.5006 210.089 97.4775Z" fill="white" stroke="#263238" stroke-linecap="round" stroke-linejoin="round"/>
<path d="M239.081 101.672L212.192 98.8035C212.129 98.7733 212.077 98.7232 212.043 98.6602C212.008 98.5971 211.994 98.5245 212.001 98.4525C212.009 98.3805 212.038 98.3128 212.085 98.2591C212.131 98.2053 212.193 98.1682 212.261 98.1531L239.131 100.989C239.182 100.978 239.235 100.979 239.286 100.993C239.336 101.007 239.383 101.034 239.422 101.07C239.461 101.107 239.491 101.153 239.509 101.204C239.528 101.255 239.535 101.31 239.529 101.364C239.523 101.418 239.505 101.47 239.476 101.516C239.447 101.561 239.409 101.599 239.363 101.626C239.317 101.653 239.266 101.668 239.214 101.671C239.162 101.673 239.109 101.662 239.062 101.639L239.081 101.672Z" fill="#263238"/>
<path d="M236.302 102.862L212.049 100.26C212.003 100.26 211.958 100.249 211.916 100.229C211.874 100.209 211.837 100.18 211.806 100.145C211.776 100.109 211.753 100.067 211.739 100.021C211.725 99.9756 211.72 99.9275 211.725 99.8799C211.729 99.8323 211.744 99.7862 211.767 99.7446C211.789 99.7031 211.82 99.6669 211.857 99.6385C211.894 99.61 211.936 99.5899 211.981 99.5794C212.026 99.5689 212.073 99.5683 212.118 99.5775L236.364 102.179C236.411 102.179 236.456 102.189 236.499 102.208C236.541 102.228 236.579 102.256 236.61 102.292C236.641 102.327 236.665 102.369 236.68 102.415C236.694 102.46 236.7 102.509 236.695 102.557C236.691 102.605 236.677 102.651 236.654 102.693C236.632 102.735 236.601 102.772 236.564 102.8C236.527 102.829 236.484 102.85 236.439 102.86C236.394 102.871 236.347 102.872 236.302 102.862Z" fill="#263238"/>
<path d="M227.117 132.919L228.651 133.083L229.55 123.94L228.016 123.776L227.117 132.919Z" fill="#757575" stroke="#263238" stroke-linecap="round" stroke-linejoin="round"/>
<path d="M227.256 131.536L228.791 131.7L229.214 127.397L227.679 127.233L227.256 131.536Z" fill="#0892C9" stroke="#263238" stroke-miterlimit="10"/>
<path d="M230.805 130.976L232.34 131.14L233.239 121.997L231.705 121.833L230.805 130.976Z" fill="#757575" stroke="#263238" stroke-linecap="round" stroke-linejoin="round"/>
<path d="M231.459 124.249L231.036 128.552L232.571 128.716L232.994 124.413L231.459 124.249Z" fill="#0892C9" stroke="#263238" stroke-miterlimit="10"/>
<path d="M234.084 133.091L235.618 133.255L236.518 124.112L234.983 123.948L234.084 133.091Z" fill="#757575" stroke="#263238" stroke-linecap="round" stroke-linejoin="round"/>
<path d="M234.422 129.66L235.956 129.823L236.379 125.521L234.845 125.357L234.422 129.66Z" fill="#0892C9" stroke="#263238" stroke-miterlimit="10"/>
<path d="M223.84 130.745L225.374 130.909L226.273 121.766L224.739 121.602L223.84 130.745Z" fill="#757575" stroke="#263238" stroke-linecap="round" stroke-linejoin="round"/>
<path d="M223.979 129.356L225.514 129.52L225.937 125.217L224.403 125.053L223.979 129.356Z" fill="#0892C9" stroke="#263238" stroke-miterlimit="10"/>
<path d="M220.121 133.071L221.656 133.235L222.555 124.092L221.021 123.928L220.121 133.071Z" fill="#757575" stroke="#263238" stroke-linecap="round" stroke-linejoin="round"/>
<path d="M220.219 132.045L221.754 132.209L222.177 127.906L220.643 127.743L220.219 132.045Z" fill="#0892C9" stroke="#263238" stroke-miterlimit="10"/>
<path d="M216.896 130.342L218.43 130.506L219.33 121.363L217.795 121.199L216.896 130.342Z" fill="#757575" stroke="#263238" stroke-linecap="round" stroke-linejoin="round"/>
<path d="M216.93 130.01L218.465 130.174L218.888 125.871L217.354 125.707L216.93 130.01Z" fill="#0892C9" stroke="#263238" stroke-miterlimit="10"/>
<path d="M212.968 152.464L214.502 152.628L215.402 143.485L213.867 143.321L212.968 152.464Z" fill="#757575" stroke="#263238" stroke-linecap="round" stroke-linejoin="round"/>
<path d="M212.995 152.125L214.53 152.289L214.953 147.986L213.419 147.822L212.995 152.125Z" fill="#0892C9" stroke="#263238" stroke-miterlimit="10"/>
<path d="M210.081 146.332L211.615 146.496L212.514 137.353L210.98 137.189L210.081 146.332Z" fill="#757575" stroke="#263238" stroke-linecap="round" stroke-linejoin="round"/>
<path d="M210.22 144.956L211.754 145.12L212.178 140.817L210.643 140.653L210.22 144.956Z" fill="#0892C9" stroke="#263238" stroke-miterlimit="10"/>
<path d="M206.671 145.44L208.206 145.604L209.105 136.461L207.571 136.297L206.671 145.44Z" fill="#757575" stroke="#263238" stroke-linecap="round" stroke-linejoin="round"/>
<path d="M207.016 141.983L208.55 142.146L208.973 137.844L207.439 137.68L207.016 141.983Z" fill="#0892C9" stroke="#263238" stroke-miterlimit="10"/>
<path d="M236.539 161.845L166.459 154.358C166.264 154.338 166.069 154.4 165.917 154.529C165.765 154.658 165.668 154.845 165.648 155.048C165.637 155.148 165.646 155.249 165.673 155.346C165.701 155.442 165.746 155.532 165.807 155.61C165.868 155.688 165.943 155.753 166.029 155.8C166.114 155.848 166.207 155.877 166.303 155.887L236.389 163.354C236.585 163.374 236.78 163.313 236.932 163.184C237.084 163.055 237.181 162.868 237.201 162.665C237.215 162.465 237.154 162.268 237.03 162.115C236.906 161.962 236.73 161.865 236.539 161.845Z" fill="#263238"/>
<path d="M236.008 167.341L154.508 158.638C154.312 158.618 154.117 158.68 153.965 158.809C153.813 158.938 153.716 159.124 153.696 159.328C153.686 159.428 153.695 159.53 153.722 159.627C153.75 159.724 153.796 159.814 153.858 159.892C153.92 159.97 153.995 160.035 154.081 160.082C154.167 160.129 154.261 160.158 154.358 160.167L235.852 168.87C236.046 168.888 236.24 168.826 236.391 168.697C236.541 168.568 236.637 168.382 236.658 168.18C236.668 168.081 236.66 167.98 236.632 167.884C236.605 167.788 236.561 167.698 236.5 167.62C236.44 167.542 236.365 167.478 236.281 167.43C236.197 167.382 236.104 167.352 236.008 167.341Z" fill="#263238"/>
<path opacity="0.2" d="M244.27 120.093C241.853 119.891 241.016 123.904 241.016 123.904C241.016 123.904 237.195 118.701 237.8 106.42C237.8 106.42 235.927 100.983 230.932 104.267C225.936 107.552 220.747 119.124 221.984 131.742L212.28 98.1206C208.921 98.8621 202.096 103.565 203.894 126.272L193.279 114.564C193.279 114.564 190.406 113.601 188.783 116.249C187.159 118.896 187.933 137.856 189.276 144.946C190.619 152.036 187.197 166.281 187.197 166.281C187.197 166.281 183.537 150.15 176.918 146.065L151.71 91.9348L143.324 177.079L152.772 178.087L167.945 170.392C167.858 173.95 167.777 177.222 167.527 179.661L243.358 187.752L248.784 132.581C246.942 125.706 245.181 120.164 244.27 120.093Z" fill="black" fill-opacity="0.7"/>
<path opacity="0.4" d="M189.95 186.542C189.95 186.542 190.943 200.351 180.29 205.295C179.828 204.859 179.379 204.423 178.948 203.994C178.761 203.818 178.586 203.63 178.411 203.454C177.705 202.726 177.05 202.017 176.469 201.321C176.25 201.067 176.057 200.82 175.844 200.579C174.86 199.437 174.127 198.085 173.696 196.618C173.677 196.552 173.665 196.485 173.659 196.416C173.641 196.337 173.628 196.257 173.622 196.176C173.503 195.167 173.378 194.016 173.253 192.767C173.253 192.52 173.203 192.26 173.172 192L173.134 191.687C173.028 190.647 172.91 189.541 172.772 188.403C172.635 187.264 172.485 185.977 172.31 184.734C172.248 184.305 172.192 183.869 172.129 183.433C172.06 182.952 171.985 182.471 171.911 181.983L171.692 180.721C171.692 180.649 171.661 180.584 171.655 180.526L171.392 179.082C171.375 179.029 171.365 178.975 171.361 178.919C171.274 178.496 171.192 178.08 171.099 177.657C170.899 176.721 170.68 175.797 170.474 174.893C174.689 170.672 184.418 173.319 179.71 163.53C179.71 163.53 182.083 155.152 175.545 146.072C180.016 149.825 182.307 156.427 181.458 163.634C181.458 163.634 185.405 177.722 187.484 180.929C189.563 184.136 198.162 165.715 197.606 163.569C197.411 162.606 197.263 161.633 197.163 160.655C197.125 160.336 197.088 160.004 197.044 159.64C197 159.276 196.963 158.911 196.925 158.528C196.925 158.346 196.882 158.15 196.857 157.962C196.857 157.884 196.857 157.806 196.857 157.734C196.782 156.993 196.7 156.219 196.613 155.412C196.613 155.184 196.569 154.97 196.544 154.762C196.507 154.378 196.469 153.981 196.432 153.591C196.428 153.526 196.428 153.461 196.432 153.396C196.432 153.174 196.382 152.947 196.363 152.745C196.313 152.29 196.27 151.828 196.226 151.366C196.182 150.904 196.151 150.573 196.113 150.176C196.039 149.428 195.97 148.68 195.901 147.958C195.851 147.418 195.808 146.878 195.758 146.364C195.758 146.247 195.758 146.13 195.726 146.02C195.895 146.872 199.061 162.573 200.872 166.229C202.689 169.976 194.796 189.795 189.95 186.542Z" fill="#0892C9"/>
<path opacity="0.2" d="M180.753 154.358C180.753 154.358 169.694 160.212 168.82 169.969C165.623 162.534 169.781 165.221 167.277 146.091C167.277 146.091 169.119 141.655 174.371 145.2C174.777 145.476 175.168 145.773 175.545 146.091C176.609 146.988 177.549 148.034 178.336 149.2L180.753 154.358Z" fill="black" fill-opacity="0.7"/>
<path d="M187.496 180.955C187.496 180.955 188.439 187.999 192.679 187.46" stroke="#263238" stroke-linecap="round" stroke-linejoin="round"/>
<path d="M197.606 163.588C197.606 163.588 198.705 171.966 196.906 175.518" stroke="#263238" stroke-linecap="round" stroke-linejoin="round"/>
<path d="M195.776 171.543C195.776 171.543 189.532 184.396 183.575 193.489L179.304 194.64C179.304 194.64 169.5 204.787 163.518 209.854C162.432 209.152 161.448 208.291 160.596 207.298C160.596 207.298 169.088 190.308 178.486 179.557C179.587 179.964 180.624 180.538 181.564 181.261C182.784 182.162 183.869 183.244 184.786 184.474L195.258 170.75L195.776 171.543Z" fill="#0892C9"/>
<path opacity="0.3" d="M195.776 171.543C195.776 171.543 189.532 184.396 183.575 193.489L179.304 194.641C179.304 194.641 169.5 204.788 163.518 209.855L163.681 207.097C170.168 196.774 178.411 185.515 181.564 181.261C182.784 182.162 183.869 183.244 184.786 184.474L178.967 192.566L182.301 191.915L195.258 170.724L195.776 171.543Z" fill="black" fill-opacity="0.7"/>
<path d="M195.776 171.543C195.776 171.543 189.532 184.396 183.575 193.489L179.304 194.64C179.304 194.64 169.5 204.787 163.518 209.854C162.432 209.152 161.448 208.291 160.596 207.298C160.596 207.298 169.088 190.308 178.486 179.557C179.587 179.964 180.624 180.538 181.564 181.261C182.784 182.162 183.869 183.244 184.786 184.474L195.258 170.75L195.776 171.543Z" stroke="#263238" stroke-linecap="round" stroke-linejoin="round"/>
<path opacity="0.4" d="M199.554 174.958L196.775 177.768C198.68 172.668 197.756 164.759 197.637 163.829C197.645 163.755 197.645 163.681 197.637 163.608C197.442 162.645 197.294 161.672 197.194 160.694C197.156 160.375 197.119 160.043 197.075 159.679C197.031 159.315 196.994 158.95 196.956 158.567C196.956 158.385 196.913 158.189 196.888 158.001C196.888 157.923 196.888 157.845 196.888 157.773C196.813 157.032 196.732 156.258 196.644 155.451C196.644 155.223 196.601 155.009 196.576 154.801C196.538 154.417 196.501 154.02 196.463 153.63C196.459 153.565 196.459 153.5 196.463 153.435C196.463 153.214 196.413 152.986 196.394 152.784C196.345 152.329 196.301 151.867 196.257 151.405C196.213 150.943 196.182 150.612 196.145 150.215C196.07 149.467 196.001 148.719 195.932 147.997C195.882 147.457 195.839 146.917 195.789 146.403C195.789 146.286 195.789 146.169 195.758 146.059C195.926 146.911 199.092 162.613 200.903 166.268C201.515 167.595 200.878 171.159 199.554 174.958Z" fill="#0892C9"/>
<path d="M197.606 163.588C197.606 163.588 198.705 171.966 196.906 175.518" stroke="#263238" stroke-linecap="round" stroke-linejoin="round"/>
<path opacity="0.2" d="M169.55 176.526C169.55 176.526 169.5 201.399 169.55 202.85C169.6 204.3 171.424 213.036 171.424 213.036L165.623 224.171L170.618 228.36L180.328 218.421C180.328 218.421 188.595 223.735 190.106 231.346C191.618 238.956 200.616 244.498 209.951 265.572C219.286 286.647 229.933 218.421 229.933 218.421L201.128 180.643L169.55 176.526Z" fill="black" fill-opacity="0.7"/>
<path d="M257.607 42.8975L248.784 132.581L243.358 187.752L167.527 179.661L152.772 178.087L143.324 177.079L151.698 91.9348L157.574 32.2236L257.607 42.8975Z" fill="white"/>
<path d="M257.607 42.8975L248.784 132.581L243.358 187.752L167.527 179.661L152.772 178.087L143.324 177.079L151.698 91.9348L157.574 32.2236L257.607 42.8975Z" stroke="#263238" stroke-linecap="round" stroke-linejoin="round"/>
<path d="M256.359 273.781L212.024 281.638C212.024 281.638 204.306 238.936 199.704 232.204C195.102 225.472 195.957 222.707 193.709 218.174C192.361 215.435 185.592 210.329 180.29 205.288C179.828 204.853 179.379 204.417 178.948 203.987C178.761 203.812 178.586 203.623 178.411 203.448C177.705 202.719 177.05 202.01 176.469 201.314C176.257 201.067 176.049 200.82 175.845 200.573C174.86 199.431 174.127 198.079 173.696 196.611C173.677 196.546 173.665 196.478 173.659 196.41C173.641 196.331 173.628 196.25 173.622 196.169C173.503 195.161 173.378 194.01 173.253 192.761C173.253 192.514 173.203 192.253 173.172 191.993L173.134 191.681C173.028 190.64 172.91 189.534 172.772 188.396C172.635 187.258 172.485 185.97 172.31 184.728C172.254 184.298 172.198 183.869 172.129 183.427C172.06 182.945 171.986 182.464 171.911 181.976L171.692 180.721C171.692 180.649 171.661 180.584 171.655 180.526L171.392 179.082C171.375 179.029 171.365 178.975 171.361 178.919C171.274 178.496 171.193 178.08 171.099 177.657C170.905 176.714 170.687 175.79 170.474 174.893C170.045 173.204 169.491 171.551 168.82 169.949C165.623 162.515 169.781 165.201 167.277 146.072C167.277 146.072 169.119 141.635 174.371 145.18C174.777 145.456 175.168 145.754 175.545 146.072C176.609 146.968 177.548 148.014 178.336 149.181C179.404 150.768 180.218 152.526 180.746 154.384C181.605 157.399 181.847 160.567 181.458 163.686C181.458 163.686 185.405 177.774 187.484 180.981C189.563 184.188 198.162 165.767 197.606 163.621C197.411 162.658 197.263 161.685 197.163 160.707C197.125 160.388 197.088 160.056 197.044 159.692C197 159.328 196.963 158.963 196.925 158.58C196.925 158.398 196.882 158.202 196.857 158.014C196.857 157.936 196.857 157.858 196.857 157.786C196.782 157.051 196.694 156.271 196.613 155.464C196.613 155.236 196.569 155.022 196.544 154.814C196.507 154.43 196.469 154.033 196.432 153.643C196.428 153.578 196.428 153.513 196.432 153.448C196.432 153.226 196.382 152.999 196.363 152.797C196.313 152.342 196.27 151.88 196.226 151.418C196.182 150.956 196.151 150.625 196.114 150.228C196.039 149.48 195.97 148.732 195.901 148.01C195.851 147.47 195.801 146.937 195.758 146.416C195.758 146.299 195.758 146.182 195.726 146.072C195.464 143.21 195.258 140.868 195.183 139.853C195.183 139.853 188.939 130.214 188.314 125.673C187.69 121.133 187.727 116.353 190.344 114.408C196.538 109.816 194.715 117.218 197.5 120.262C200.285 123.306 204.525 128.347 206.935 129.914C209.158 131.384 211.144 137.069 211.425 137.928C211.106 136.679 207.928 124.399 207.859 121.927C207.778 119.325 205.867 105.562 209.108 100.625C212.349 95.6878 216.67 99.5189 217.069 100.495C217.469 101.47 217.588 114.804 218.73 118.512C219.873 122.22 224.656 137.681 224.656 137.681C224.656 137.681 224.856 122.642 225.905 115.91C226.954 109.178 229.789 103.916 232.537 103.617C235.284 103.318 237.825 106.472 237.825 106.472C237.825 106.472 236.739 117.205 237.051 119.683C237.363 122.161 236.602 131.111 237.907 135.944C237.907 135.944 237.757 123.124 239.668 121.485C241.578 119.845 243.221 119.058 244.295 120.184C245.369 121.309 245.6 128.88 246.692 133.446C247.785 138.012 247.648 144.218 248.366 151.34C249.084 158.463 251.913 168.349 251.351 174.002C250.789 179.654 249.059 193.671 247.666 201.9C246.274 210.128 242.721 221.413 242.721 221.413C242.721 221.413 244.338 227.43 244.026 232.796C243.714 238.162 256.359 273.781 256.359 273.781Z" fill="white"/>
<path opacity="0.4" d="M218.674 118.473C219.523 121.218 222.365 130.402 223.776 134.988C223.776 134.988 217.581 139.73 217.731 144.14C217.881 148.55 216.601 157.455 213.816 157.194C211.031 156.934 211.318 138.429 210.376 135.313C210.944 136.653 211.306 137.739 211.381 137.954C211.175 137.154 207.865 124.412 207.797 121.888C207.797 121.296 207.666 120.112 207.534 118.584C207.534 118.584 213.698 112.437 218.218 116.197C218.321 116.965 218.473 117.726 218.674 118.473Z" fill="#0892C9"/>
<path opacity="0.4" d="M237.089 106.046C234.204 108.895 229.851 113.93 229.302 118.789C229.302 118.789 230.907 132.357 230.22 138.302L224.6 119.953C224.6 119.953 224.8 104.915 225.849 98.1825C225.849 98.0004 225.911 97.8118 225.943 97.6297C229.45 95.7702 233.322 94.7754 237.257 94.7222C237.016 97.1135 236.934 99.5195 237.014 101.923C237.108 103.295 237.133 104.671 237.089 106.046Z" fill="#0892C9"/>
<path opacity="0.4" d="M239.643 103.705C239.574 103.75 239.405 103.893 239.162 104.108C239.306 103.816 239.469 103.533 239.649 103.262L239.643 103.705Z" fill="#0892C9"/>
<path opacity="0.4" d="M241.11 141.216C241.11 141.216 237.401 126.724 237.363 115.055C237.332 110.736 237.813 106.801 239.155 104.141C239.3 103.848 239.463 103.566 239.643 103.295V103.711C240.314 103.108 241.057 102.596 241.853 102.189C240.81 103.88 239.611 107.191 240.998 112.596C243.177 120.994 241.279 131.29 241.11 141.216Z" fill="#0892C9"/>
<path opacity="0.4" d="M247.641 184.1C246.249 192.335 242.696 203.614 242.696 203.614C242.696 203.614 244.313 209.63 244.001 214.997C243.914 216.441 244.775 220.09 246.062 224.643C245.687 223.641 241.691 212.896 241.772 209.149C241.853 205.214 240.779 204.128 238.65 199.295C236.52 194.462 233.336 194.995 233.336 194.995C233.336 194.995 232.087 207.048 229.19 199.126C226.292 191.203 225.724 181.986 233.049 149.984C233.049 149.984 234.154 153.998 233.23 165.92C232.305 177.843 235.04 181.453 235.04 181.453C239.151 173.99 242.418 166.056 244.775 157.809C244.775 157.809 243.826 171.722 242.983 178.058C242.14 184.393 245.987 170.714 248.672 162.265C251.169 154.336 251.288 151.318 250.326 145.672C251.038 149.646 251.575 153.477 251.301 156.216C250.764 161.842 249.034 175.872 247.641 184.1Z" fill="#0892C9"/>
<path opacity="0.4" d="M197.543 228.633C199.704 232.211 204.993 236.939 208.159 250.02C211.325 263.1 209.326 277.417 209.326 277.417L197.543 228.633Z" fill="#0892C9"/>
<path d="M212.024 281.638C212.024 281.638 204.306 238.936 199.704 232.204C195.102 225.472 195.957 222.707 193.709 218.174C191.461 213.64 174.396 202.608 173.64 196.163C172.885 189.717 172.017 177.384 168.82 169.943C165.623 162.502 169.781 165.195 167.271 146.065C167.271 146.065 169.144 141.629 174.371 145.174C179.597 148.719 182.382 155.809 181.464 163.66C181.464 163.66 185.411 177.735 187.496 180.949C189.582 184.162 198.162 165.735 197.606 163.582C197.05 161.429 195.402 143.118 195.146 139.775C195.146 139.775 188.901 130.129 188.277 125.589C187.652 121.049 187.69 116.268 190.306 114.33C196.501 109.737 194.677 117.14 197.462 120.184C200.247 123.228 204.487 128.262 206.891 129.836C209.295 131.41 211.393 137.986 211.393 137.986C211.393 137.986 207.865 124.496 207.797 121.888C207.728 119.28 205.805 105.523 209.045 100.592C212.286 95.6618 216.614 99.4799 217.013 100.456C217.413 101.431 217.531 114.765 218.68 118.473L224.594 137.642C224.594 137.642 224.8 122.603 225.88 115.871C226.96 109.139 229.764 103.877 232.512 103.578C235.259 103.279 237.8 106.433 237.8 106.433C237.8 106.433 236.714 117.166 237.02 119.644C237.326 122.122 236.577 131.066 237.882 135.905C237.882 135.905 237.732 123.085 239.643 121.446C241.553 119.806 243.196 119.019 244.27 120.145C245.344 121.27 245.575 128.841 246.667 133.407C247.76 137.973 247.623 144.179 248.341 151.301C249.059 158.424 251.888 168.31 251.326 173.956C250.764 179.602 249.034 193.632 247.635 201.867C246.237 210.102 242.702 221.38 242.702 221.38C242.702 221.38 244.313 227.397 244.001 232.763C243.689 238.129 256.352 273.852 256.352 273.852" stroke="#263238" stroke-linecap="round" stroke-linejoin="round"/>
<path d="M224.594 119.92C225.886 123.082 229.077 136.429 230.214 138.276C230.793 139.3 231.636 140.134 232.649 140.683" stroke="#263238" stroke-linecap="round" stroke-linejoin="round"/>
<path d="M237.882 118.164C237.882 118.164 237.607 120.903 239.024 129.619C240.442 138.335 241.135 142.049 241.928 143.994" stroke="#263238" stroke-linecap="round" stroke-linejoin="round"/>
<path d="M211.393 137.987C213.123 143.301 214.103 151.77 215.09 154.319C216.077 156.869 216.963 157.396 216.963 157.396" stroke="#263238" stroke-linecap="round" stroke-linejoin="round"/>
<path d="M214.197 150.722C215.239 151.547 216.064 152.632 216.595 153.877" stroke="#263238" stroke-linecap="round" stroke-linejoin="round"/>
<path d="M231.475 145.958C231.475 145.958 234.322 147.773 232.418 153.113C230.513 158.453 227.198 179.931 227.198 179.931" stroke="#263238" stroke-linecap="round" stroke-linejoin="round"/>
<path d="M243.87 151.578C245.063 156.391 245.169 156.515 243.246 162.427C241.322 168.34 238.181 182.825 238.181 182.825" stroke="#263238" stroke-linecap="round" stroke-linejoin="round"/>
<path d="M242.702 203.601C242.702 203.601 240.829 199.698 242.378 196.446" stroke="#263238" stroke-linecap="round" stroke-linejoin="round"/>
<path d="M199.704 232.21C199.704 232.21 204.412 239.099 206.46 246.806" stroke="#263238" stroke-linecap="round" stroke-linejoin="round"/>
<path d="M234.347 93.7594L235.621 92.452L236.196 92.2764L236.158 92.9268L234.991 94.4814L234.347 93.7594Z" fill="#757575" stroke="#263238" stroke-linecap="round" stroke-linejoin="round"/>
<path d="M235.384 112.196L233.311 117.088L177.612 194.452L171.411 190.328L179.81 179.323L229.839 113.952L234.254 111.032C234.524 111.105 234.771 111.251 234.97 111.455C235.168 111.66 235.311 111.915 235.384 112.196Z" fill="#0892C9"/>
<path opacity="0.3" d="M235.384 112.196L233.311 117.088L177.612 194.452L171.411 190.328L179.81 179.323C183.681 178.906 184.33 181.274 184.33 181.274L232.318 116.034C231.843 114.278 229.82 113.94 229.82 113.94L234.235 111.019C234.51 111.09 234.762 111.236 234.964 111.444C235.167 111.651 235.311 111.911 235.384 112.196Z" fill="black" fill-opacity="0.7"/>
<path d="M235.384 112.196L233.311 117.088L177.612 194.452L171.411 190.328L179.81 179.323L229.839 113.952L234.254 111.032C234.524 111.105 234.771 111.251 234.97 111.455C235.168 111.66 235.311 111.915 235.384 112.196Z" stroke="#263238" stroke-linecap="round" stroke-linejoin="round"/>
<path d="M216.951 157.383L199.554 174.945L196.775 177.755C198.68 172.656 197.756 164.746 197.637 163.816C197.637 163.764 197.637 163.731 197.637 163.731C197.637 163.731 197.637 163.627 197.637 163.595C197.442 162.632 197.294 161.659 197.194 160.681C197.156 160.362 197.119 160.03 197.075 159.666C197.031 159.302 196.994 158.938 196.956 158.554C196.956 158.372 196.913 158.177 196.888 157.988C196.888 157.91 196.888 157.832 196.888 157.76C196.813 157.025 196.725 156.245 196.644 155.438C196.644 155.211 196.601 154.996 196.576 154.788C196.538 154.404 196.501 154.007 196.463 153.617C196.459 153.552 196.459 153.487 196.463 153.422C196.463 153.201 196.413 152.973 196.394 152.771C196.345 152.316 196.301 151.854 196.257 151.392C196.213 150.931 196.182 150.599 196.145 150.202C196.07 149.454 196.001 148.706 195.932 147.984C195.882 147.444 195.832 146.911 195.789 146.39C195.789 146.273 195.789 146.156 195.758 146.046C195.495 143.184 195.289 140.842 195.214 139.827C195.214 139.827 188.97 130.188 188.346 125.648C187.721 121.108 187.759 116.327 190.375 114.382C196.569 109.79 194.746 117.192 197.531 120.236C200.316 123.28 204.556 128.321 206.966 129.889C209.376 131.456 211.393 137.987 211.393 137.987C213.123 143.294 214.103 151.763 215.09 154.313C216.076 156.863 216.951 157.383 216.951 157.383Z" fill="white"/>
<path d="M214.197 150.722C215.239 151.547 216.064 152.632 216.595 153.877" stroke="#263238" stroke-linecap="round" stroke-linejoin="round"/>
<path opacity="0.4" d="M197.437 120.21C200.197 123.28 204.437 128.262 206.847 129.85C206.51 129.674 202.071 127.423 199.592 129.928C197.013 132.529 195.146 139.782 195.146 139.782C195.146 139.782 188.901 130.142 188.277 125.602C187.652 121.062 187.69 116.281 190.306 114.336C196.476 109.744 194.665 117.172 197.437 120.21Z" fill="#0892C9"/>
<path d="M216.957 157.383C216.957 157.383 216.077 156.856 215.084 154.306C214.091 151.756 213.117 143.288 211.387 137.973C211.387 137.973 209.27 131.469 206.86 129.869C204.45 128.269 200.204 123.286 197.431 120.216C194.659 117.146 196.469 109.744 190.275 114.362C187.659 116.313 187.603 121.088 188.246 125.621C188.889 130.155 195.114 139.808 195.114 139.808C195.37 143.151 197.019 161.468 197.575 163.614" stroke="#263238" stroke-linecap="round" stroke-linejoin="round"/>
<path opacity="0.2" d="M90.8095 173.833C90.8095 173.833 94.7622 192.956 86.2012 206.862C77.6403 220.769 71.0463 224.483 68.0928 228.633C65.1392 232.783 53.531 255.984 53.531 255.984L39.9809 214.18L53.531 162.463L90.8095 173.833Z" fill="black" fill-opacity="0.7"/>
<path d="M170.674 159.217L86.6508 196.052L77.99 199.851L61.6674 159.451L23.7645 65.6372L116.449 25.0037L170.674 159.217Z" fill="white"/>
<path d="M92.5017 42.468L52.4944 60.0301C52.1334 60.188 51.8474 60.4888 51.6992 60.8663C51.5511 61.2438 51.553 61.6672 51.7045 62.0433C51.8561 62.4193 52.1448 62.7173 52.5072 62.8716C52.8697 63.0259 53.2761 63.0239 53.6371 62.8661L93.6381 45.2975C93.8199 45.2218 93.9853 45.1091 94.1248 44.9661C94.2642 44.823 94.3749 44.6525 94.4504 44.4644C94.5259 44.2763 94.5647 44.0744 94.5645 43.8706C94.5643 43.6667 94.5251 43.4649 94.4492 43.277C94.3733 43.089 94.2622 42.9187 94.1225 42.776C93.9827 42.6333 93.8171 42.521 93.6352 42.4457C93.4533 42.3704 93.2588 42.3336 93.0632 42.3374C92.8675 42.3413 92.6745 42.3857 92.4954 42.468H92.5017Z" fill="#263238"/>
<path d="M84.8524 52.6737L64.8706 61.4417C64.6901 61.5211 64.5473 61.6719 64.4735 61.8609C64.3997 62.05 64.4011 62.2619 64.4773 62.4499C64.5534 62.6379 64.6982 62.7867 64.8797 62.8636C65.0612 62.9404 65.2646 62.939 65.4451 62.8597L85.4269 54.0851C85.5208 54.0494 85.6067 53.9942 85.6794 53.9228C85.7521 53.8515 85.8101 53.7654 85.8499 53.67C85.8897 53.5745 85.9104 53.4716 85.9109 53.3676C85.9113 53.2635 85.8914 53.1604 85.8524 53.0646C85.8134 52.9688 85.7562 52.8823 85.684 52.8102C85.6119 52.7382 85.5265 52.6822 85.433 52.6456C85.3394 52.6091 85.2398 52.5927 85.14 52.5975C85.0402 52.6023 84.9423 52.6282 84.8524 52.6737Z" fill="#263238"/>
<path d="M117.766 106.115C117.766 106.115 118.609 113.016 116.143 114.096C113.888 115.084 110.922 111.383 108.331 112.515C105.74 113.647 107.781 123.442 105.284 124.535C102.786 125.628 99.7763 121.608 97.6158 122.584C95.4552 123.56 96.7665 128.568 94.5436 129.544C92.7077 130.344 90.0851 126.343 87.987 125.465C87.7939 125.367 87.5836 125.311 87.369 125.3C87.1544 125.289 86.9398 125.323 86.7382 125.4C84.5402 126.363 85.6329 136.881 83.7347 137.707C83.2037 137.945 82.6252 138.045 82.0487 137.999C81.3425 137.861 80.6256 137.789 79.9069 137.785C79.6316 137.814 79.3622 137.886 79.1076 137.999C77.4904 138.708 77.7089 144.244 76.229 144.894C74.7491 145.545 73.288 144.738 71.7082 145.428C70.1283 146.117 70.1533 148.999 67.793 150.033L68.7921 152.498L126.308 127.287" fill="#BFBFBF"/>
<path d="M117.766 106.115C117.766 106.115 118.609 113.016 116.143 114.096C113.888 115.084 110.922 111.383 108.331 112.515C105.74 113.647 107.781 123.442 105.284 124.535C102.786 125.628 99.7763 121.608 97.6158 122.584C95.4552 123.56 96.7665 128.568 94.5436 129.544C92.7077 130.344 90.0851 126.343 87.987 125.465C87.7939 125.367 87.5836 125.311 87.369 125.3C87.1544 125.289 86.9398 125.323 86.7382 125.4C84.5402 126.363 85.6329 136.881 83.7347 137.707C83.2037 137.945 82.6252 138.045 82.0487 137.999C81.3425 137.861 80.6256 137.789 79.9069 137.785C79.6316 137.814 79.3622 137.886 79.1076 137.999C77.4904 138.708 77.7089 144.244 76.229 144.894C74.7491 145.545 73.288 144.738 71.7082 145.428C70.1283 146.117 70.1533 148.999 67.793 150.033L68.7921 152.498L126.308 127.287" stroke="#263238" stroke-miterlimit="10"/>
<path d="M57.1465 123.625L68.7921 152.446L129.012 126.051" stroke="#263238" stroke-linecap="round" stroke-linejoin="round"/>
<path d="M122.393 117.549C122.393 117.549 122.106 117.185 121.681 116.749C120.938 116.001 119.758 115.052 118.859 115.448C117.96 115.845 117.904 117.348 117.922 118.974C117.922 120.925 118.11 123.072 117.154 123.488C116.342 123.846 115.618 123.312 114.869 122.727C114.013 122.076 113.139 121.335 112.084 121.797C110.31 122.577 110.835 124.984 110.211 127.046C110.041 127.639 109.741 128.183 109.335 128.635C108.928 129.086 108.426 129.433 107.869 129.648C106.339 130.298 104.784 129.648 103.317 128.62C100.819 126.864 98.6211 124.015 97.1849 124.646C94.8932 125.654 97.4159 132.106 94.9557 133.186C93.5819 133.791 90.7345 129.283 87.9683 125.381C85.7828 122.304 83.6473 119.624 82.3484 120.177C79.3824 121.478 84.2717 136.913 82.1174 137.856L82.0487 137.889C81.702 138.038 81.3255 138.096 80.9522 138.059C80.5789 138.021 80.22 137.889 79.9069 137.674C79.1326 137.219 78.4957 136.562 77.6402 136.939C76.0479 137.642 76.9783 143.691 75.2299 144.458C73.4815 145.226 72.4262 144.114 70.453 144.979C68.7858 145.714 67.793 149.922 67.793 149.922L68.7921 152.387L126.308 127.176" fill="#757575"/>
<path d="M122.393 117.549C122.393 117.549 122.106 117.185 121.681 116.749C120.938 116.001 119.758 115.052 118.859 115.448C117.96 115.845 117.904 117.348 117.922 118.974C117.922 120.925 118.11 123.072 117.154 123.488C116.342 123.846 115.618 123.312 114.869 122.727C114.013 122.076 113.139 121.335 112.084 121.797C110.31 122.577 110.835 124.984 110.211 127.046C110.041 127.639 109.741 128.183 109.335 128.635C108.928 129.086 108.426 129.433 107.869 129.648C106.339 130.298 104.784 129.648 103.317 128.62C100.819 126.864 98.6211 124.015 97.1849 124.646C94.8932 125.654 97.4159 132.106 94.9557 133.186C93.5819 133.791 90.7345 129.283 87.9683 125.381C85.7828 122.304 83.6473 119.624 82.3484 120.177C79.3824 121.478 84.2717 136.913 82.1174 137.856L82.0487 137.889C81.702 138.038 81.3255 138.096 80.9522 138.059C80.5789 138.021 80.22 137.889 79.9069 137.674C79.1326 137.219 78.4957 136.562 77.6402 136.939C76.0479 137.642 76.9783 143.691 75.2299 144.458C73.4815 145.226 72.4262 144.114 70.453 144.979C68.7858 145.714 67.793 149.922 67.793 149.922L68.7921 152.387L126.308 127.176" stroke="#263238" stroke-linecap="round" stroke-linejoin="round"/>
<path d="M110.217 138.123L90.235 146.891C90.0545 146.97 89.9117 147.121 89.8379 147.31C89.7641 147.499 89.7655 147.711 89.8416 147.899C89.9178 148.087 90.0626 148.236 90.2441 148.313C90.4256 148.39 90.629 148.388 90.8095 148.309L110.791 139.541C110.972 139.462 111.115 139.311 111.188 139.122C111.262 138.933 111.261 138.721 111.185 138.533C111.108 138.345 110.964 138.196 110.782 138.119C110.601 138.042 110.397 138.044 110.217 138.123Z" fill="#263238"/>
<path d="M126.059 103.604L124.131 104.449C123.93 104.537 123.836 104.778 123.921 104.986L124.732 106.995C124.816 107.203 125.047 107.301 125.247 107.213L127.175 106.368C127.375 106.28 127.469 106.04 127.385 105.832L126.574 103.823C126.49 103.615 126.259 103.517 126.059 103.604Z" fill="#BFBFBF" stroke="#263238" stroke-miterlimit="10"/>
<path d="M136.518 100.196L128.525 103.701C128.443 103.734 128.352 103.733 128.27 103.698C128.189 103.663 128.124 103.597 128.088 103.513C128.055 103.429 128.054 103.335 128.087 103.251C128.12 103.167 128.183 103.1 128.263 103.064L136.262 99.5581C136.342 99.5233 136.432 99.523 136.513 99.557C136.594 99.5911 136.658 99.6569 136.693 99.7402C136.71 99.782 136.72 99.827 136.72 99.8726C136.721 99.9182 136.713 99.9635 136.697 100.006C136.68 100.048 136.656 100.087 136.625 100.119C136.595 100.152 136.558 100.178 136.518 100.196Z" fill="#263238"/>
<path d="M134.638 102.647L129.081 105.08C129.001 105.115 128.91 105.115 128.83 105.081C128.749 105.047 128.684 104.981 128.65 104.898C128.633 104.856 128.623 104.811 128.623 104.766C128.622 104.72 128.63 104.675 128.646 104.632C128.662 104.59 128.687 104.551 128.717 104.519C128.748 104.486 128.785 104.46 128.825 104.443L134.382 102.01C134.463 101.975 134.553 101.975 134.634 102.009C134.714 102.043 134.779 102.109 134.813 102.192C134.847 102.277 134.847 102.372 134.815 102.457C134.782 102.542 134.719 102.61 134.638 102.647Z" fill="#263238"/>
<path d="M128.562 109.797L126.634 110.642C126.433 110.729 126.339 110.97 126.424 111.178L127.235 113.187C127.319 113.395 127.55 113.493 127.75 113.405L129.678 112.56C129.878 112.473 129.972 112.232 129.888 112.024L129.077 110.015C128.993 109.807 128.762 109.709 128.562 109.797Z" fill="#757575" stroke="#263238" stroke-linecap="round" stroke-linejoin="round"/>
<path d="M139.016 106.388L131.023 109.887C130.982 109.905 130.938 109.913 130.894 109.913C130.849 109.913 130.806 109.904 130.765 109.886C130.724 109.868 130.687 109.842 130.655 109.809C130.624 109.777 130.599 109.738 130.583 109.695C130.566 109.652 130.557 109.607 130.557 109.56C130.558 109.514 130.566 109.469 130.584 109.426C130.601 109.384 130.626 109.345 130.657 109.312C130.689 109.28 130.726 109.254 130.767 109.237L138.76 105.731C138.801 105.713 138.845 105.704 138.889 105.704C138.933 105.705 138.977 105.714 139.018 105.732C139.059 105.749 139.096 105.775 139.127 105.808C139.158 105.841 139.183 105.88 139.2 105.923C139.217 105.965 139.225 106.011 139.225 106.057C139.225 106.103 139.216 106.149 139.199 106.192C139.182 106.234 139.157 106.273 139.125 106.305C139.094 106.338 139.057 106.364 139.016 106.381V106.388Z" fill="#263238"/>
<path d="M137.136 108.833L131.585 111.272C131.502 111.309 131.409 111.309 131.326 111.274C131.242 111.238 131.176 111.17 131.141 111.084C131.107 110.998 131.106 110.901 131.14 110.814C131.174 110.727 131.24 110.658 131.323 110.622L136.88 108.189C136.921 108.172 136.965 108.163 137.009 108.163C137.053 108.163 137.097 108.173 137.138 108.19C137.179 108.208 137.216 108.234 137.247 108.267C137.279 108.3 137.303 108.339 137.32 108.381C137.337 108.424 137.346 108.47 137.345 108.516C137.345 108.562 137.336 108.608 137.319 108.65C137.302 108.693 137.277 108.732 137.246 108.764C137.214 108.797 137.177 108.822 137.136 108.84V108.833Z" fill="#263238"/>
<path d="M149.531 131.911L84.5902 160.375C84.4097 160.454 84.2668 160.605 84.193 160.794C84.1193 160.983 84.1206 161.195 84.1968 161.383C84.273 161.571 84.4177 161.72 84.5993 161.797C84.7808 161.874 84.9841 161.872 85.1647 161.793L150.105 133.323C150.199 133.287 150.285 133.232 150.358 133.161C150.431 133.089 150.489 133.003 150.528 132.908C150.568 132.812 150.589 132.709 150.589 132.605C150.59 132.501 150.57 132.398 150.531 132.302C150.492 132.207 150.435 132.12 150.363 132.048C150.29 131.976 150.205 131.92 150.111 131.883C150.018 131.847 149.918 131.83 149.818 131.835C149.719 131.84 149.621 131.866 149.531 131.911Z" fill="#263238"/>
<path d="M151.592 137.004L76.0792 170.106C75.9853 170.141 75.8995 170.196 75.8267 170.268C75.754 170.339 75.696 170.425 75.6562 170.521C75.6164 170.616 75.5957 170.719 75.5952 170.823C75.5948 170.927 75.6147 171.03 75.6537 171.126C75.6927 171.222 75.75 171.308 75.8221 171.38C75.8942 171.452 75.9796 171.508 76.0731 171.545C76.1667 171.582 76.2664 171.598 76.3662 171.593C76.466 171.588 76.5638 171.562 76.6537 171.517L152.16 138.416C152.256 138.382 152.345 138.329 152.42 138.258C152.496 138.187 152.556 138.101 152.598 138.005C152.64 137.909 152.663 137.804 152.664 137.699C152.666 137.593 152.646 137.488 152.607 137.39C152.568 137.293 152.51 137.205 152.436 137.132C152.363 137.059 152.276 137.002 152.18 136.966C152.085 136.93 151.983 136.915 151.882 136.921C151.781 136.928 151.682 136.956 151.592 137.004Z" fill="#263238"/>
<path d="M153.646 142.097L78.1398 175.199C78.0459 175.234 77.9601 175.289 77.8873 175.361C77.8146 175.432 77.7566 175.518 77.7168 175.614C77.677 175.709 77.6563 175.812 77.6558 175.916C77.6554 176.02 77.6753 176.123 77.7143 176.219C77.7533 176.315 77.8106 176.401 77.8827 176.473C77.9548 176.545 78.0402 176.601 78.1337 176.638C78.2273 176.675 78.327 176.691 78.4268 176.686C78.5266 176.681 78.6244 176.655 78.7143 176.61L154.208 143.509C154.302 143.473 154.388 143.418 154.46 143.346C154.533 143.275 154.591 143.189 154.631 143.094C154.671 142.998 154.691 142.895 154.692 142.791C154.692 142.687 154.672 142.584 154.633 142.488C154.594 142.392 154.537 142.306 154.465 142.234C154.393 142.162 154.308 142.106 154.214 142.069C154.12 142.033 154.021 142.016 153.921 142.021C153.821 142.026 153.723 142.052 153.633 142.097H153.646Z" fill="#263238"/>
<path d="M155.707 147.19L80.2004 180.266C80.1041 180.299 80.0154 180.353 79.9399 180.423C79.8644 180.494 79.8038 180.58 79.7618 180.677C79.7198 180.773 79.6973 180.877 79.6958 180.983C79.6943 181.088 79.7138 181.193 79.7531 181.291C79.7923 181.388 79.8505 181.476 79.924 181.549C79.9974 181.622 80.0845 181.679 80.1799 181.715C80.2752 181.751 80.3768 181.767 80.4781 181.76C80.5794 181.754 80.6783 181.725 80.7687 181.677L156.275 148.576C156.371 148.542 156.46 148.489 156.535 148.418C156.611 148.347 156.671 148.261 156.713 148.165C156.755 148.069 156.778 147.964 156.779 147.859C156.781 147.753 156.761 147.648 156.722 147.551C156.683 147.453 156.625 147.365 156.551 147.292C156.478 147.219 156.391 147.163 156.295 147.126C156.2 147.09 156.098 147.075 155.997 147.081C155.896 147.088 155.797 147.116 155.707 147.164V147.19Z" fill="#263238"/>
<path d="M126.046 166.183L82.2548 185.385C82.161 185.42 82.0751 185.476 82.0024 185.547C81.9297 185.618 81.8717 185.704 81.8319 185.8C81.7921 185.895 81.7713 185.998 81.7709 186.102C81.7704 186.206 81.7903 186.309 81.8293 186.405C81.8683 186.501 81.9256 186.587 81.9977 186.66C82.0698 186.732 82.1552 186.788 82.2488 186.824C82.3423 186.861 82.442 186.877 82.5418 186.872C82.6416 186.867 82.7394 186.842 82.8293 186.796L126.621 167.601C126.71 167.562 126.791 167.505 126.859 167.433C126.927 167.361 126.981 167.276 127.018 167.182C127.054 167.088 127.073 166.988 127.072 166.887C127.071 166.786 127.052 166.686 127.014 166.593C126.976 166.5 126.921 166.416 126.852 166.345C126.783 166.274 126.701 166.218 126.612 166.179C126.522 166.141 126.425 166.122 126.328 166.123C126.231 166.123 126.136 166.144 126.046 166.183Z" fill="#263238"/>
<path d="M101.931 66.8923C101.931 66.8923 102.774 73.8001 100.307 74.8798C98.0529 75.8685 95.0806 72.1675 92.4955 73.2993C89.9103 74.431 91.946 84.2203 89.4483 85.3195C86.9505 86.4188 83.9345 82.3925 81.7802 83.3357C79.626 84.2788 80.931 89.3198 78.7081 90.289C76.8722 91.0955 74.2496 87.0953 72.1515 86.2172C71.9584 86.1191 71.7481 86.0628 71.5335 86.0516C71.3189 86.0404 71.1043 86.0746 70.9027 86.1521C68.7047 87.1148 69.7974 97.626 67.8992 98.4586C67.3687 98.6982 66.7893 98.7966 66.2132 98.7448C65.5063 98.6119 64.7897 98.5423 64.0714 98.5366C63.796 98.5651 63.5264 98.6375 63.2721 98.7513C61.6549 99.4603 61.8734 104.996 60.3935 105.64C58.9136 106.283 57.4524 105.49 55.8726 106.179C54.2928 106.869 54.3178 109.75 51.9575 110.785L52.9565 113.25L110.498 88.0384" fill="#BFBFBF"/>
<path d="M101.931 66.8923C101.931 66.8923 102.774 73.8001 100.307 74.8798C98.0529 75.8685 95.0806 72.1675 92.4955 73.2993C89.9103 74.431 91.946 84.2203 89.4483 85.3195C86.9505 86.4188 83.9345 82.3925 81.7802 83.3357C79.626 84.2788 80.931 89.3198 78.7081 90.289C76.8722 91.0955 74.2496 87.0953 72.1515 86.2172C71.9584 86.1191 71.7481 86.0628 71.5335 86.0516C71.3189 86.0404 71.1043 86.0746 70.9027 86.1521C68.7047 87.1148 69.7974 97.626 67.8992 98.4586C67.3687 98.6982 66.7893 98.7966 66.2132 98.7448C65.5063 98.6119 64.7897 98.5423 64.0714 98.5366C63.796 98.5651 63.5264 98.6375 63.2721 98.7513C61.6549 99.4603 61.8734 104.996 60.3935 105.64C58.9136 106.283 57.4524 105.49 55.8726 106.179C54.2928 106.869 54.3178 109.75 51.9575 110.785L52.9565 113.25L110.498 88.0384" stroke="#263238" stroke-miterlimit="10"/>
<path d="M105.646 76.0962C105.646 76.0962 106.17 79.4395 104.903 79.9989C103.848 80.4607 103.198 79.8167 102.087 79.7777C101.544 79.7605 101.004 79.8694 100.507 80.0964C99.4891 80.5387 99.2581 81.9697 99.0645 83.5048C98.8397 85.3976 98.7273 87.453 97.3973 88.0579C96.4669 88.4677 95.4615 88.227 94.425 87.8498C92.7702 87.2514 91.0343 86.3017 89.3546 87.0367C88.5428 87.3945 87.9746 88.3376 87.5313 89.4499C86.4885 92.1362 86.1638 96.0259 85.0335 96.5203C83.4288 97.2292 80.4877 94.3543 79.064 94.9787C77.6403 95.6031 78.221 98.1789 77.0658 98.6863C75.9106 99.1936 75.2487 97.6976 73.2131 98.5887C71.1774 99.4798 72.1703 102.615 69.2979 103.877C66.4255 105.139 65.1642 102.817 62.3917 104.033C59.6192 105.249 60.1188 107.448 58.1581 108.306C56.1973 109.165 55.3731 107.656 53.9744 108.306C52.5757 108.957 52.2385 111.227 52.2197 111.37L52.9878 113.269L110.498 88.0384" fill="#0892C9"/>
<path d="M105.646 76.0962C105.646 76.0962 106.17 79.4395 104.903 79.9989C103.848 80.4607 103.198 79.8167 102.087 79.7777C101.544 79.7605 101.004 79.8694 100.507 80.0964C99.4891 80.5387 99.2581 81.9697 99.0645 83.5048C98.8397 85.3976 98.7273 87.453 97.3973 88.0579C96.4669 88.4677 95.4615 88.227 94.425 87.8498C92.7702 87.2514 91.0343 86.3017 89.3546 87.0367C88.5428 87.3945 87.9746 88.3376 87.5313 89.4499C86.4885 92.1362 86.1638 96.0259 85.0335 96.5203C83.4288 97.2292 80.4877 94.3543 79.064 94.9787C77.6403 95.6031 78.221 98.1789 77.0658 98.6863C75.9106 99.1936 75.2487 97.6976 73.2131 98.5887C71.1774 99.4798 72.1703 102.615 69.2979 103.877C66.4255 105.139 65.1642 102.817 62.3917 104.033C59.6192 105.249 60.1188 107.448 58.1581 108.306C56.1973 109.165 55.3731 107.656 53.9744 108.306C52.5757 108.957 52.2385 111.227 52.2197 111.37L52.9878 113.269L110.498 88.0384" stroke="#263238" stroke-miterlimit="10"/>
<path d="M41.3109 84.4285L52.9565 113.25L113.17 86.8481" stroke="#263238" stroke-linecap="round" stroke-linejoin="round"/>
<path d="M94.2002 98.4783L74.2184 107.246C74.0379 107.325 73.8947 107.475 73.8203 107.663C73.746 107.852 73.7465 108.063 73.8219 108.251C73.8972 108.439 74.0412 108.588 74.2221 108.666C74.403 108.743 74.6061 108.743 74.7866 108.664L94.7684 99.8963C94.8578 99.857 94.9388 99.7997 95.007 99.7278C95.0751 99.6559 95.129 99.5706 95.1655 99.477C95.2021 99.3834 95.2205 99.2832 95.2199 99.1822C95.2192 99.0811 95.1995 98.9812 95.1618 98.8881C95.1241 98.795 95.0691 98.7105 95.0001 98.6395C94.931 98.5685 94.8492 98.5124 94.7593 98.4744C94.6694 98.4363 94.5733 98.4171 94.4762 98.4177C94.3792 98.4184 94.2833 98.439 94.1939 98.4783H94.2002Z" fill="#263238"/>
<path d="M109.21 61.9054L107.282 62.7505C107.082 62.8383 106.988 63.0785 107.072 63.2871L107.883 65.2956C107.967 65.5042 108.198 65.6021 108.398 65.5144L110.326 64.6693C110.527 64.5815 110.621 64.3412 110.536 64.1326L109.725 62.1242C109.641 61.9156 109.41 61.8176 109.21 61.9054Z" fill="#BFBFBF" stroke="#263238" stroke-miterlimit="10"/>
<path d="M119.671 58.4951L111.678 62.001C111.596 62.0339 111.505 62.0327 111.423 61.9976C111.342 61.9625 111.277 61.8962 111.241 61.8124C111.208 61.7278 111.208 61.6331 111.242 61.549C111.276 61.4649 111.341 61.3982 111.422 61.3636L119.415 57.8577C119.496 57.8233 119.587 57.8238 119.667 57.8592C119.748 57.8946 119.812 57.9618 119.845 58.0463C119.863 58.0876 119.872 58.1322 119.873 58.1773C119.873 58.2225 119.865 58.2673 119.849 58.3091C119.833 58.3509 119.808 58.3889 119.778 58.4209C119.747 58.4528 119.711 58.478 119.671 58.4951Z" fill="#263238"/>
<path d="M117.791 60.9474L112.234 63.3801C112.151 63.4155 112.058 63.4151 111.975 63.3791C111.893 63.3432 111.827 63.2745 111.794 63.1882C111.76 63.102 111.76 63.0052 111.794 62.9192C111.829 62.8332 111.895 62.765 111.978 62.7297L117.535 60.2905C117.616 60.2557 117.706 60.2554 117.786 60.2895C117.867 60.3235 117.932 60.3893 117.966 60.4726C117.986 60.5156 117.997 60.5622 117.998 60.6097C118 60.6573 117.993 60.7046 117.976 60.749C117.96 60.7934 117.935 60.8339 117.903 60.868C117.871 60.9021 117.833 60.9291 117.791 60.9474Z" fill="#263238"/>
<path d="M111.719 68.0973L109.791 68.9424C109.591 69.0302 109.497 69.2704 109.581 69.479L110.392 71.4875C110.477 71.6961 110.707 71.794 110.908 71.7063L112.836 70.8612C113.036 70.7734 113.13 70.5331 113.046 70.3245L112.234 68.3161C112.15 68.1075 111.919 68.0095 111.719 68.0973Z" fill="#0892C9" stroke="#263238" stroke-miterlimit="10"/>
<path d="M122.168 64.6874L114.176 68.1933C114.095 68.2277 114.004 68.2271 113.923 68.1918C113.842 68.1564 113.778 68.0891 113.745 68.0047C113.727 67.9633 113.718 67.9188 113.718 67.8736C113.717 67.8285 113.725 67.7837 113.741 67.7419C113.758 67.7001 113.782 67.662 113.812 67.6301C113.843 67.5982 113.88 67.5729 113.92 67.5559L121.912 64.05C121.953 64.0324 121.997 64.0235 122.042 64.0237C122.086 64.0239 122.13 64.0331 122.171 64.0509C122.212 64.0687 122.249 64.0948 122.28 64.1275C122.311 64.1603 122.336 64.1991 122.353 64.2418C122.369 64.2845 122.378 64.3303 122.378 64.3764C122.378 64.4226 122.369 64.4683 122.352 64.5109C122.335 64.5534 122.31 64.5921 122.278 64.6246C122.247 64.6571 122.209 64.6829 122.168 64.7004V64.6874Z" fill="#263238"/>
<path d="M120.289 67.1396L114.738 69.5723C114.655 69.6085 114.562 69.609 114.478 69.5736C114.395 69.5382 114.329 69.4699 114.294 69.3837C114.26 69.2974 114.259 69.2003 114.293 69.1137C114.327 69.0271 114.393 68.9581 114.475 68.9218L120.033 66.4892C120.074 66.4717 120.118 66.4627 120.162 66.4629C120.206 66.4631 120.25 66.4723 120.291 66.4901C120.332 66.508 120.369 66.534 120.4 66.5667C120.432 66.5995 120.456 66.6383 120.473 66.681C120.49 66.7238 120.498 66.7695 120.498 66.8156C120.498 66.8618 120.489 66.9075 120.472 66.9501C120.455 66.9926 120.43 67.0313 120.399 67.0638C120.367 67.0963 120.33 67.1221 120.289 67.1396Z" fill="#263238"/>
<path opacity="0.2" d="M86.6508 196.052L77.99 199.851L61.6674 159.451C63.1254 157.945 64.0817 155.991 64.3961 153.877C65.3702 148.465 64.6834 131.066 77.6902 129.271C90.6971 127.475 79.7259 157.942 80.3253 163.744C80.8748 169.039 88.2868 184.409 86.6508 196.052Z" fill="black" fill-opacity="0.7"/>
<path d="M170.674 159.217L86.6508 196.052L77.99 199.851L61.6674 159.451L23.7645 65.6372L116.449 25.0037L170.674 159.217Z" stroke="#263238" stroke-linecap="round" stroke-linejoin="round"/>
<path d="M81.4181 165.956C82.8792 160.752 88.574 144.088 87.8247 136.718C87.7638 136.105 87.6295 135.502 87.4251 134.923C85.4269 129.42 77.2594 129.954 74.1185 134.513C70.6779 139.528 67.8742 148.556 67.6244 154.027C67.4036 156.771 66.5465 159.418 65.1267 161.741C64.6361 162.599 64.0829 163.417 63.4719 164.187L44.8514 118.167C42.9703 119.799 41.3274 121.708 39.9746 123.833C39.2141 125.018 38.7229 126.368 38.5384 127.781C38.1575 132.321 33.2245 150.996 31.1951 158.801C31.1514 158.97 31.1077 159.133 31.0703 159.289C29.0971 166.847 34.3048 194.92 32.8124 203.077C31.32 211.234 30.4021 211.045 30.1836 216.84C30.0275 221.068 24.2203 233.921 17.695 247.119C13.9484 254.684 10.002 262.346 6.73621 268.584L54.3927 266.522C55.217 260.492 56.0662 254.124 56.8405 247.958C57.1771 245.393 57.6524 242.85 58.2642 240.341C59.3132 235.918 60.5933 231.918 61.3863 229.576C62.399 226.137 63.2328 222.643 63.8841 219.111C69.429 212.996 76.6974 203.389 78.8017 196.885V196.839C79.3171 195.503 79.4809 194.048 79.2763 192.624C79.0441 191.455 78.9165 190.266 78.8954 189.073C78.6518 182.009 80.1942 170.281 81.4181 165.956Z" fill="white"/>
<path opacity="0.4" d="M65.1392 161.786C63.6593 164.876 61.8796 167.874 60.7682 171.335C59.6567 174.795 58.4141 175.29 55.0796 178.002C51.7452 180.714 49.3099 176.246 49.3099 176.246C49.3099 176.246 53.7246 171.471 52.2572 168.811C50.7898 166.151 45.2948 159.536 45.6195 155.887C45.9442 152.238 42.2913 144.055 42.2913 144.055C42.2913 144.055 50.6149 138.962 48.9977 132.997C48.1172 129.745 43.7587 126.278 39.9996 123.813C41.3524 121.688 42.9953 119.779 44.8764 118.148L63.5094 164.212C64.111 163.448 64.6558 162.637 65.1392 161.786Z" fill="#0892C9"/>
<path opacity="0.4" d="M34.9418 190.022C35.0542 190.413 37.7642 199.733 35.4788 203.617C33.1934 207.5 30.8455 212.651 31.9632 217.926C32.8499 222.141 25.3568 237.362 17.72 247.132C24.2265 233.934 30.0338 221.081 30.2086 216.853C30.4271 211.058 31.3451 211.233 32.8374 203.09C34.3298 194.946 29.0909 166.86 31.0953 159.302C31.1327 159.145 31.1765 158.983 31.2202 158.814C32.6751 167.38 36.0595 184.441 36.9899 189.925C38.1326 196.924 35.0417 190.315 34.9418 190.022Z" fill="#0892C9"/>
<path opacity="0.4" d="M52.0761 246.286C57.6148 221.445 76.254 202.4 78.7767 196.885C76.6724 203.389 69.4103 212.996 63.8591 219.11C63.2078 222.643 62.374 226.137 61.3614 229.576C60.5808 231.918 59.3008 235.918 58.2392 240.341C52.8504 246.995 52.0761 246.286 52.0761 246.286Z" fill="#0892C9"/>
<path opacity="0.4" d="M81.4181 165.956C80.1692 170.281 78.6519 182.009 78.8892 189.053C77.9088 184.63 76.023 179.01 75.7108 171.185C75.1801 157.916 82.3985 162.704 79.9007 156.14C77.403 149.577 70.2096 157.981 73.7439 144.146C76.3228 134.045 83.6723 134.136 87.4438 134.923C87.6483 135.502 87.7825 136.105 87.8435 136.718C88.5741 144.088 82.8793 160.752 81.4181 165.956Z" fill="#0892C9"/>
<path d="M13.9858 254.892C19.9554 243.515 25.7688 231.814 29.9463 219.195C30.4458 217.38 29.7777 215.013 30.2835 213.198C35.9408 196.813 29.5217 179.752 30.577 162.964C31.4699 156.349 33.4993 149.694 35.5662 143.014C36.5215 138.195 36.8775 132.796 38.4073 127.943C39.9809 124.288 41.5295 120.041 44.8827 118.187C51.2518 133.388 57.5961 148.66 63.5157 164.252C66.1945 162.638 66.6378 159.048 67.0749 156.023C68.5111 148.784 69.966 142.149 72.5949 136.055C75.2674 131.157 82.0737 129.069 86.2512 133.069C87.449 134.319 88.134 136.006 88.1619 137.772C87.3502 146.176 84.815 154.683 82.2611 162.541C81.2557 166.17 80.2317 169.208 79.8008 172.811C79.8445 174.008 79.8695 174.6 79.9194 175.797C78.4395 181.84 79.8008 187.16 79.4636 193.157C78.171 203.974 69.8599 211.507 63.8529 219.54C62.3667 225.582 60.8868 231.625 58.8574 237.694C56.3597 246.8 55.5604 255.776 54.705 264.525" stroke="#263238" stroke-linecap="round" stroke-linejoin="round"/>
<path d="M63.4907 164.232C62.3604 166.504 61.4404 168.882 60.7432 171.335C59.9627 174.522 56.01 174.067 53.9681 176.044" stroke="#263238" stroke-linecap="round" stroke-linejoin="round"/>
<path d="M48.5793 158.619C48.5793 158.619 53.9557 160.57 57.0903 163.139C60.225 165.709 62.5353 166.307 62.5353 166.307" stroke="#263238" stroke-linecap="round" stroke-linejoin="round"/>
<path d="M45.1512 144.732C45.1512 144.732 49.5222 146 52.7068 144.406C52.8521 142.783 53.1257 141.176 53.5248 139.6" stroke="#263238" stroke-linecap="round" stroke-linejoin="round"/>
<path d="M53.7433 145.063C53.7433 145.063 53.7871 145.714 55.9976 145.714" stroke="#263238" stroke-linecap="round" stroke-linejoin="round"/>
<path d="M63.8591 219.11C60.8294 222.297 58.5025 226.132 57.0403 230.35" stroke="#263238" stroke-linecap="round" stroke-linejoin="round"/>
<path d="M30.7955 160.7C30.5957 164.603 34.9917 178.444 36.3217 185.326C37.6517 192.208 38.1575 197.073 38.1575 197.073" stroke="#263238" stroke-linecap="round" stroke-linejoin="round"/>
</g>
</svg>
