<svg width="492" height="383" viewBox="0 0 492 383" fill="none" xmlns="http://www.w3.org/2000/svg">
<path d="M491.19 335.938H0V336.195H491.19V335.938Z" fill="#E6E6E6"/>
<path d="M460.147 344.988H441.708V345.245H460.147V344.988Z" fill="#E6E6E6"/>
<path d="M375.034 352.027H366.497V352.283H375.034V352.027Z" fill="#E6E6E6"/>
<path d="M294.046 348.487H275.027V348.743H294.046V348.487Z" fill="#E6E6E6"/>
<path d="M121.933 348.353H79.504V348.61H121.933V348.353Z" fill="#E6E6E6"/>
<path d="M70.7609 348.353H64.5424V348.61H70.7609V348.353Z" fill="#E6E6E6"/>
<path d="M277.994 342.279H185.965V342.536H277.994V342.279Z" fill="#E6E6E6"/>
<path d="M232.824 290.175H43.1363C41.6503 290.172 40.2261 289.554 39.1762 288.455C38.1264 287.357 37.5367 285.868 37.5367 284.316V5.8076C37.5497 4.26441 38.145 2.78886 39.1935 1.70146C40.2419 0.614065 41.6588 0.00264357 43.1363 0H232.824C234.312 0 235.739 0.617276 236.791 1.71603C237.843 2.81479 238.434 4.30503 238.434 5.8589V284.316C238.434 285.87 237.843 287.36 236.791 288.459C235.739 289.558 234.312 290.175 232.824 290.175ZM43.1363 0.205216C41.7154 0.207934 40.3537 0.799382 39.3499 1.84974C38.3461 2.9001 37.7823 4.32353 37.7823 5.8076V284.316C37.7823 285.8 38.3461 287.223 39.3499 288.274C40.3537 289.324 41.7154 289.916 43.1363 289.918H232.824C234.246 289.916 235.609 289.325 236.614 288.274C237.619 287.224 238.185 285.801 238.188 284.316V5.8076C238.185 4.32259 237.619 2.89918 236.614 1.84911C235.609 0.799048 234.246 0.207929 232.824 0.205216H43.1363Z" fill="#E6E6E6"/>
<path d="M445.323 290.175H255.625C254.138 290.172 252.713 289.554 251.662 288.456C250.61 287.358 250.018 285.869 250.016 284.316V5.8076C250.031 4.26347 250.629 2.78793 251.679 1.70082C252.729 0.613706 254.147 0.00261474 255.625 0H445.323C446.799 0.00534022 448.213 0.617955 449.259 1.70506C450.306 2.79217 450.9 4.26618 450.913 5.8076V284.316C450.913 285.866 450.324 287.353 449.277 288.452C448.229 289.55 446.807 290.169 445.323 290.175ZM255.625 0.205216C254.203 0.207929 252.841 0.799048 251.835 1.84911C250.83 2.89918 250.264 4.32259 250.261 5.8076V284.316C250.264 285.801 250.83 287.224 251.835 288.274C252.841 289.325 254.203 289.916 255.625 289.918H445.323C446.745 289.916 448.107 289.325 449.113 288.274C450.118 287.224 450.684 285.801 450.687 284.316V5.8076C450.684 4.32259 450.118 2.89918 449.113 1.84911C448.107 0.799048 446.745 0.207929 445.323 0.205216H255.625Z" fill="#E6E6E6"/>
<path d="M256.362 19.1672H57.6755V167.056H256.362V19.1672Z" fill="#FAFAFA"/>
<path d="M260.036 19.1672H59.3947V167.056H260.036V19.1672Z" fill="#F5F5F5"/>
<path d="M254.888 161.012V25.2004L64.5424 25.2004V161.012H254.888Z" fill="#FAFAFA"/>
<path d="M99.2008 161.012L129.399 25.2004H168.989L138.791 161.012H99.2008Z" fill="white"/>
<path d="M145.196 161.012L175.404 25.2004H193.283L163.075 161.012H145.196Z" fill="white"/>
<path d="M254.888 161.012V25.2004H254.23V161.012H254.888Z" fill="#FAFAFA"/>
<path d="M53.8148 18.9209V77.5304H68.6586C68.6586 77.5304 95.2909 59.3586 101.391 21.9786C101.539 21.0833 101.498 20.1651 101.269 19.2885C101.041 18.412 100.631 17.5983 100.069 16.9049C99.5074 16.2114 98.8069 15.6549 98.017 15.2746C97.2271 14.8943 96.367 14.6995 95.4972 14.7037H57.8524C56.7816 14.7037 55.7546 15.148 54.9974 15.9389C54.2402 16.7297 53.8148 17.8024 53.8148 18.9209Z" fill="#E0E0E0"/>
<path d="M53.8148 185.146V82.2607H68.6586C68.6586 82.2607 98.7882 142.851 102.276 185.146H53.8148Z" fill="#E0E0E0"/>
<path d="M68.2263 77.5305H54.3551C53.5358 77.5305 52.8717 78.2242 52.8717 79.0799V80.7114C52.8717 81.5671 53.5358 82.2607 54.3551 82.2607H68.2263C69.0456 82.2607 69.7097 81.5671 69.7097 80.7114V79.0799C69.7097 78.2242 69.0456 77.5305 68.2263 77.5305Z" fill="#F5F5F5"/>
<path d="M264.26 18.9208V77.5304H249.387C249.387 77.5304 222.715 59.3586 216.654 21.9785C216.508 21.0835 216.551 20.166 216.78 19.2902C217.009 18.4144 217.419 17.6015 217.981 16.9085C218.542 16.2154 219.242 15.659 220.031 15.2781C220.82 14.8973 221.679 14.7012 222.548 14.7036H260.233C261.301 14.709 262.324 15.1554 263.078 15.9454C263.833 16.7354 264.258 17.805 264.26 18.9208Z" fill="#E0E0E0"/>
<path d="M264.26 185.146V82.2607H249.387C249.387 82.2607 219.267 142.851 215.77 185.146H264.26Z" fill="#E0E0E0"/>
<path d="M249.819 82.2505H263.691C264.51 82.2505 265.174 81.5568 265.174 80.7011V79.0696C265.174 78.2139 264.51 77.5203 263.691 77.5203H249.819C249 77.5203 248.336 78.2139 248.336 79.0696V80.7011C248.336 81.5568 249 82.2505 249.819 82.2505Z" fill="#F5F5F5"/>
<path d="M259.771 203.841H227.126V335.938H259.771V203.841Z" fill="#FAFAFA"/>
<path d="M251.057 335.938H259.771V320.68H241.921L251.057 335.938Z" fill="#F4F8FF"/>
<path d="M103.592 203.841H70.9475V335.938H103.592V203.841Z" fill="#E0E0E0"/>
<path d="M259.771 203.841H95.9884V330.685H259.771V203.841Z" fill="#FAFAFA"/>
<path d="M145.196 181.411C145.196 193.724 156.552 203.841 170.443 203.841H182.978C196.859 203.841 208.215 193.744 208.215 181.411H145.196Z" fill="#EBEBEB"/>
<path d="M137.926 153.224H161.503C161.503 153.224 157.407 164.511 157.407 171.16C157.407 177.809 175.345 203.841 149.715 203.841C124.084 203.841 142.023 177.799 142.023 171.16C142.023 164.521 137.926 153.224 137.926 153.224Z" fill="#E0E0E0"/>
<path d="M253.012 211.567H102.747V243.55H253.012V211.567Z" fill="#EBEBEB"/>
<path d="M104.702 335.938H95.9884V320.68H113.848L104.702 335.938Z" fill="#FAFAFA"/>
<path d="M173.262 227.553C173.262 228.507 173.533 229.439 174.041 230.233C174.548 231.026 175.269 231.644 176.113 232.009C176.956 232.374 177.885 232.469 178.78 232.283C179.676 232.097 180.499 231.638 181.144 230.963C181.79 230.289 182.23 229.43 182.408 228.494C182.586 227.559 182.495 226.589 182.145 225.708C181.796 224.827 181.204 224.073 180.445 223.543C179.685 223.014 178.793 222.731 177.88 222.731C176.655 222.731 175.481 223.239 174.615 224.143C173.749 225.048 173.262 226.274 173.262 227.553Z" fill="#FAFAFA"/>
<path d="M253.012 251.276H102.747V283.259H253.012V251.276Z" fill="#EBEBEB"/>
<path d="M173.262 267.263C173.262 268.216 173.533 269.149 174.041 269.942C174.548 270.735 175.269 271.353 176.113 271.718C176.956 272.083 177.885 272.178 178.78 271.992C179.676 271.806 180.499 271.347 181.144 270.673C181.79 269.998 182.23 269.139 182.408 268.203C182.586 267.268 182.495 266.298 182.145 265.417C181.796 264.536 181.204 263.783 180.445 263.253C179.685 262.723 178.793 262.44 177.88 262.44C176.655 262.44 175.481 262.948 174.615 263.852C173.749 264.757 173.262 265.983 173.262 267.263Z" fill="#FAFAFA"/>
<path d="M253.012 290.975H102.747V322.958H253.012V290.975Z" fill="#EBEBEB"/>
<path d="M177.88 311.795C180.43 311.795 182.497 309.635 182.497 306.972C182.497 304.309 180.43 302.149 177.88 302.149C175.33 302.149 173.262 304.309 173.262 306.972C173.262 309.635 175.33 311.795 177.88 311.795Z" fill="#FAFAFA"/>
<path d="M363.363 17.3818H290.441V71.5998H363.363V17.3818Z" fill="#E0E0E0"/>
<path d="M369.316 17.3818H294.586V71.5998H369.316V17.3818Z" fill="#F5F5F5"/>
<path d="M364.552 66.6232V22.3582L299.351 22.3582V66.6232H364.552Z" fill="white"/>
<path d="M353.077 53.7255V35.2458H310.825V53.7255H353.077Z" fill="#F5F5F5"/>
<path d="M422.522 44.4907H378.138V93.1063H422.522V44.4907Z" fill="#E0E0E0"/>
<path d="M428.495 44.4907H382.293V93.1063H428.495V44.4907Z" fill="#F5F5F5"/>
<path d="M423.73 88.1299V49.4673H387.058V88.1299H423.73Z" fill="white"/>
<path d="M398.532 68.7985C398.532 67.0913 399.181 65.4538 400.336 64.2457C401.49 63.0376 403.057 62.3575 404.692 62.3547H406.087C407.721 62.3575 409.288 63.0376 410.443 64.2457C411.597 65.4538 412.246 67.0913 412.246 68.7985C412.246 70.5048 411.597 72.1412 410.442 73.3477C409.287 74.5542 407.72 75.232 406.087 75.232H404.741C403.928 75.2388 403.121 75.0774 402.368 74.7571C401.615 74.4368 400.931 73.964 400.354 73.3659C399.776 72.7678 399.318 72.0563 399.006 71.2724C398.693 70.4885 398.532 69.6477 398.532 68.7985Z" fill="#F5F5F5"/>
<path d="M491.19 109.636H373.992H352.684V137.925H331.377V166.214H310.069V194.503H288.761V222.792H267.453V251.071H246.145V279.36H224.837V307.649H203.53V335.938H224.837H491.19V109.636Z" fill="#FAFAFA"/>
<path d="M322.791 307.649H201.339V316.135H322.791V307.649Z" fill="#EBEBEB"/>
<path d="M344.098 279.36H222.647V287.846H344.098V279.36Z" fill="#EBEBEB"/>
<path d="M365.406 251.071H243.955V259.557H365.406V251.071Z" fill="#EBEBEB"/>
<path d="M386.714 222.782H265.262V231.268H386.714V222.782Z" fill="#EBEBEB"/>
<path d="M408.022 194.503H286.57V202.989H408.022V194.503Z" fill="#EBEBEB"/>
<path d="M429.33 166.214H307.878V174.7H429.33V166.214Z" fill="#EBEBEB"/>
<path d="M450.638 137.925H329.186V146.411H450.638V137.925Z" fill="#EBEBEB"/>
<path d="M471.945 109.636H350.494V118.122H471.945V109.636Z" fill="#EBEBEB"/>
<path d="M469.882 109.636V137.925H448.574V166.214H427.267V194.503H405.959V222.792H384.651V251.071H363.343V279.36H342.035V307.649H320.728V335.938H342.035H491.19V137.925V109.636H469.882Z" fill="white"/>
<path d="M245.595 382.276C350.791 382.276 436.069 377.075 436.069 370.66C436.069 364.245 350.791 359.045 245.595 359.045C140.399 359.045 55.1213 364.245 55.1213 370.66C55.1213 377.075 140.399 382.276 245.595 382.276Z" fill="#F5F5F5"/>
<path d="M358.716 109.79C360.092 114.603 367.184 123.612 367.744 130.168C368.304 136.725 356.211 147.211 356.211 147.211C356.211 147.211 347.173 115.649 352.832 111.966C358.49 108.282 358.716 109.79 358.716 109.79Z" fill="#007DF5"/>
<path d="M333.882 143.887C331.74 145.754 329.638 147.324 327.447 148.935C325.256 150.546 322.997 152.014 320.698 153.389C318.391 154.814 316.014 156.112 313.576 157.277C312.338 157.862 311.11 158.437 309.833 158.94C309.204 159.206 308.566 159.463 307.917 159.689L305.953 160.407C304.273 160.897 302.515 161.03 300.785 160.797C299.339 160.62 297.907 160.332 296.502 159.935C293.882 159.178 291.318 158.224 288.83 157.082C283.999 154.879 279.338 152.289 274.89 149.335L276.727 145.765C279.045 146.791 281.422 147.817 283.78 148.71C286.138 149.602 288.515 150.546 290.893 151.316C293.21 152.109 295.573 152.753 297.966 153.245C299.065 153.469 300.178 153.61 301.296 153.666C302.13 153.733 302.969 153.643 303.772 153.399C306.013 152.503 308.204 151.475 310.334 150.321C311.424 149.725 312.505 149.12 313.566 148.463C314.627 147.807 315.708 147.17 316.759 146.493C318.871 145.129 320.934 143.682 322.977 142.194C325.021 140.706 327.054 139.116 328.871 137.607L333.882 143.887Z" fill="#E58A7B"/>
<path d="M339.069 132.959C336.632 130.968 326.553 137.484 323.498 140.203L325.728 154.291C325.728 154.291 340.218 147.95 341.082 143.62C341.996 139.095 340.886 134.478 339.069 132.959Z" fill="#007DF5"/>
<path opacity="0.2" d="M339.069 132.959C336.632 130.968 326.553 137.484 323.498 140.203L325.728 154.291C325.728 154.291 340.218 147.95 341.082 143.62C341.996 139.095 340.886 134.478 339.069 132.959Z" fill="black"/>
<path d="M372.971 175.593L342.379 181.821C326.573 137.115 330.011 135.648 330.011 135.648C332.234 134.372 334.531 133.241 336.888 132.261L337.3 132.097C339.265 131.348 339.658 131.235 342.271 130.435C346.77 129.317 350.965 128.383 356.162 127.613L357.144 127.47C358.127 127.347 359.021 127.244 359.925 127.152C360.534 127.08 361.143 127.039 361.722 126.998L363.687 126.885C367.047 126.71 369.454 126.762 369.454 126.762C368.52 154.681 370.033 162.695 372.971 175.593Z" fill="#007DF5"/>
<path opacity="0.2" d="M372.971 175.593L342.379 181.821C326.573 137.115 330.011 135.648 330.011 135.648C332.234 134.372 334.531 133.241 336.888 132.261L337.3 132.097C339.265 131.348 339.658 131.235 342.271 130.435C346.77 129.317 350.965 128.383 356.162 127.613L357.144 127.47C358.127 127.347 359.021 127.244 359.925 127.152C360.534 127.08 361.143 127.039 361.722 126.998L363.687 126.885C367.047 126.71 369.454 126.762 369.454 126.762C368.52 154.681 370.033 162.695 372.971 175.593Z" fill="black"/>
<path d="M349.01 113.002C347.046 116.398 354.168 117.968 358.382 114.49C361.752 111.699 360.956 105.255 358.068 103.757C355.18 102.259 349.01 113.002 349.01 113.002Z" fill="#007DF5"/>
<path opacity="0.4" d="M349.01 113.002C347.046 116.398 354.168 117.968 358.382 114.49C361.752 111.699 360.956 105.255 358.068 103.757C355.18 102.259 349.01 113.002 349.01 113.002Z" fill="black"/>
<path d="M378.786 360.636L371.133 361.231L368.334 342.833L375.986 342.238L378.786 360.636Z" fill="#E58A7B"/>
<path d="M432.915 334.922L426.422 339.19L414.859 324.866L421.353 320.588L432.915 334.922Z" fill="#E58A7B"/>
<path d="M368.334 342.833L369.886 353.053L377.431 351.73L375.996 342.249L368.334 342.833Z" fill="#CF6F64"/>
<path d="M421.363 320.598L414.859 324.866L419.653 330.797L426.294 326.703L421.363 320.598Z" fill="#CF6F64"/>
<path d="M342.851 181.821C342.851 181.821 342.743 245.253 347.704 269.14C352.871 293.992 368.068 350.529 368.068 350.529L379.091 349.041C379.091 349.041 370.475 291.929 366.801 267.232C362.803 240.318 365.259 177.265 365.259 177.265L342.851 181.821Z" fill="#007DF5"/>
<path opacity="0.7" d="M342.851 181.821C342.851 181.821 342.743 245.253 347.704 269.14C352.871 293.992 368.068 350.529 368.068 350.529L379.091 349.041C379.091 349.041 370.475 291.929 366.801 267.232C362.803 240.318 365.259 177.265 365.259 177.265L342.851 181.821Z" fill="black"/>
<path opacity="0.5" d="M364.571 205.38L359.168 199.757C359.374 224.126 360.681 236.162 365.17 249.275C364.463 235.413 364.404 219.016 364.571 205.38Z" fill="black"/>
<path d="M350.454 180.179C350.454 180.179 366.929 232.602 375.102 262.799C383.728 294.659 416.794 329.894 416.794 329.894L426.284 324.169C426.284 324.169 403.69 290.719 395.379 260.993C378.482 200.65 385.427 187.865 372.961 175.593L350.454 180.179Z" fill="#007DF5"/>
<path opacity="0.7" d="M350.454 180.179C350.454 180.179 366.929 232.602 375.102 262.799C383.728 294.659 416.794 329.894 416.794 329.894L426.284 324.169C426.284 324.169 403.69 290.719 395.379 260.993C378.482 200.65 385.427 187.865 372.961 175.593L350.454 180.179Z" fill="black"/>
<path d="M337.507 94.4915C341.888 96.0203 345.867 107.379 346.034 111.853C346.201 116.326 333.341 122.493 333.341 122.493C333.341 122.493 327.673 108.128 329.255 98.8933C329.942 94.8814 337.507 94.4915 337.507 94.4915Z" fill="#007DF5"/>
<path d="M277.375 146.144L272.178 140.234L270.479 147.642C270.479 147.642 274.173 151.049 277.159 149.879L277.375 146.144Z" fill="#E58A7B"/>
<path d="M266.913 138.541L263.278 141.558L270.479 147.642L272.178 140.234L266.913 138.541Z" fill="#E58A7B"/>
<path d="M424.388 337.662L430.459 331.269C430.564 331.16 430.703 331.094 430.851 331.082C430.999 331.071 431.146 331.116 431.265 331.208L436.796 335.497C436.933 335.609 437.045 335.75 437.126 335.911C437.207 336.072 437.254 336.249 437.264 336.431C437.274 336.612 437.247 336.794 437.185 336.963C437.123 337.133 437.027 337.287 436.904 337.415C434.743 339.601 433.603 340.545 430.931 343.356C429.29 345.091 427.06 347.789 424.791 350.18C422.522 352.571 420.135 350.344 420.862 349.154C424.172 343.746 423.583 341.725 423.809 338.975C423.843 338.478 424.049 338.012 424.388 337.662Z" fill="#007DF5"/>
<path d="M370.623 360.082H379.248C379.4 360.081 379.547 360.137 379.663 360.238C379.78 360.339 379.859 360.48 379.887 360.636L381.242 367.757C381.273 367.932 381.266 368.112 381.222 368.284C381.178 368.456 381.098 368.616 380.988 368.752C380.879 368.888 380.741 368.997 380.587 369.072C380.432 369.146 380.263 369.184 380.093 369.183C377.077 369.132 375.623 368.947 371.831 368.947C369.503 368.947 364.689 369.193 361.467 369.193C358.245 369.193 357.901 365.869 359.227 365.571C365.121 364.217 367.43 362.359 369.365 360.574C369.716 360.261 370.161 360.086 370.623 360.082Z" fill="#007DF5"/>
<g style="mix-blend-mode:multiply" opacity="0.27">
<path d="M370.446 142.943L365.73 145.877L371.173 167.251C369.984 160.776 370.515 153.665 370.446 142.943Z" fill="#007DF5"/>
</g>
<path d="M343.646 109.575C346.996 112.499 351.859 116.757 357.586 111.781C362.498 107.492 365.937 96.2359 357.125 95.8255C352.517 95.61 343.646 109.575 343.646 109.575Z" fill="#007DF5"/>
<path d="M351.741 111.576C351.741 116.419 352.458 125.151 356.162 127.634C356.162 127.634 355.828 132.621 347.517 134.303C338.391 136.161 342.271 130.456 342.271 130.456C347.026 128.198 346.201 124.361 344.629 120.913L351.741 111.576Z" fill="#E58A7B"/>
<path d="M348.843 115.383L344.639 120.913C345.007 121.712 345.309 122.543 345.542 123.396C347.389 122.719 349.6 120.01 349.413 117.886C349.373 117.022 349.18 116.173 348.843 115.383Z" fill="#CF6F64"/>
<path d="M352.183 100.453C353.166 108.344 353.765 111.658 350.739 116.429C346.191 123.612 336.701 123.15 333.469 115.731C330.522 109.052 329.422 97.2619 336.141 92.6958C337.619 91.6742 339.322 91.0645 341.089 90.9248C342.856 90.785 344.627 91.1198 346.235 91.8973C347.843 92.6749 349.234 93.8692 350.275 95.3668C351.316 96.8644 351.973 98.6153 352.183 100.453Z" fill="#E58A7B"/>
<path d="M339.059 86.6318C333.95 90.418 344.197 91.5365 344.206 97.026C344.206 99.2936 347.772 106.486 352.842 106.076L357.753 96.9644C362.921 88.2428 350.71 77.982 339.059 86.6318Z" fill="#007DF5"/>
<path d="M339.059 86.6318C330.07 86.1392 326.15 93.6091 327.182 100.32C333.452 98.6866 339.939 98.1492 346.377 98.7292C358.696 100.043 339.059 86.6318 339.059 86.6318Z" fill="#007DF5"/>
<path d="M354.639 107.256C354.764 108.788 354.301 110.308 353.352 111.483C352.085 113.033 350.405 112.12 349.816 110.283C349.315 108.621 349.374 105.82 351.083 104.937C351.461 104.755 351.876 104.673 352.291 104.7C352.706 104.728 353.108 104.862 353.461 105.092C353.814 105.322 354.107 105.641 354.312 106.019C354.518 106.396 354.63 106.822 354.639 107.256Z" fill="#E58A7B"/>
<path d="M341.269 104.937C341.387 105.573 341.161 106.148 340.768 106.23C340.375 106.312 339.953 105.86 339.835 105.204C339.717 104.547 339.943 103.983 340.336 103.9C340.729 103.818 341.151 104.301 341.269 104.937Z" fill="#007DF5"/>
<path d="M334.402 106.333C334.52 106.969 334.294 107.554 333.901 107.636C333.508 107.718 333.086 107.266 332.968 106.61C332.85 105.953 333.076 105.389 333.469 105.317C333.862 105.245 334.284 105.686 334.402 106.333Z" fill="#007DF5"/>
<path d="M333.656 105.327L332.113 105.194C332.113 105.194 333.086 106.23 333.656 105.327Z" fill="#007DF5"/>
<path d="M336.426 107.061C336.15 108.615 335.674 110.124 335.011 111.545C335.364 111.717 335.748 111.805 336.136 111.805C336.525 111.805 336.909 111.717 337.261 111.545L336.426 107.061Z" fill="#DF5753"/>
<path d="M339.825 113.597C339.783 113.598 339.742 113.582 339.709 113.554C339.677 113.526 339.655 113.487 339.648 113.443C339.644 113.419 339.645 113.394 339.65 113.37C339.655 113.346 339.665 113.323 339.678 113.303C339.692 113.283 339.71 113.266 339.73 113.253C339.75 113.24 339.772 113.231 339.796 113.228C340.555 113.09 341.272 112.767 341.89 112.286C342.508 111.804 343.009 111.178 343.352 110.457C343.361 110.434 343.374 110.413 343.391 110.396C343.408 110.378 343.427 110.364 343.449 110.355C343.471 110.345 343.495 110.34 343.518 110.34C343.542 110.34 343.566 110.345 343.588 110.355C343.609 110.364 343.629 110.378 343.646 110.395C343.663 110.413 343.676 110.434 343.686 110.456C343.695 110.479 343.699 110.504 343.699 110.529C343.699 110.553 343.695 110.578 343.686 110.601C343.326 111.384 342.791 112.065 342.126 112.587C341.461 113.108 340.685 113.455 339.864 113.597H339.825Z" fill="#007DF5"/>
<path d="M342.851 102.208C342.761 102.209 342.674 102.176 342.605 102.115C342.275 101.787 341.874 101.545 341.437 101.41C341 101.274 340.539 101.249 340.09 101.335C339.991 101.361 339.886 101.345 339.799 101.29C339.711 101.235 339.648 101.146 339.624 101.043C339.599 100.94 339.614 100.83 339.667 100.739C339.719 100.647 339.805 100.581 339.904 100.556C340.47 100.439 341.055 100.465 341.61 100.631C342.165 100.797 342.675 101.098 343.096 101.51C343.164 101.581 343.201 101.677 343.201 101.777C343.201 101.876 343.164 101.972 343.096 102.043C343.069 102.087 343.033 102.125 342.99 102.153C342.948 102.181 342.9 102.2 342.851 102.208Z" fill="#007DF5"/>
<path d="M330.6 103.634C330.555 103.645 330.508 103.645 330.463 103.634C330.418 103.615 330.377 103.587 330.343 103.551C330.309 103.515 330.282 103.473 330.263 103.426C330.245 103.379 330.236 103.329 330.236 103.278C330.237 103.228 330.247 103.178 330.266 103.131C330.475 102.57 330.81 102.069 331.243 101.671C331.675 101.273 332.193 100.989 332.752 100.843C332.799 100.833 332.848 100.833 332.895 100.843C332.942 100.853 332.987 100.873 333.027 100.902C333.066 100.93 333.1 100.967 333.125 101.01C333.151 101.053 333.167 101.101 333.174 101.151C333.184 101.199 333.185 101.25 333.176 101.298C333.167 101.347 333.148 101.394 333.122 101.435C333.095 101.476 333.061 101.511 333.021 101.538C332.981 101.565 332.936 101.584 332.889 101.592C332.448 101.718 332.04 101.949 331.699 102.268C331.358 102.587 331.093 102.984 330.925 103.429C330.893 103.49 330.846 103.541 330.789 103.578C330.732 103.614 330.667 103.633 330.6 103.634Z" fill="#007DF5"/>
<path d="M422.109 341.386C421.941 341.382 421.776 341.335 421.629 341.249C421.482 341.163 421.357 341.041 421.264 340.894C421.195 340.807 421.148 340.703 421.129 340.591C421.11 340.479 421.119 340.364 421.156 340.258C421.5 339.293 424.212 338.678 424.516 338.606C424.551 338.599 424.588 338.604 424.621 338.618C424.654 338.633 424.682 338.657 424.703 338.688C424.724 338.718 424.735 338.754 424.735 338.79C424.735 338.827 424.724 338.863 424.703 338.893C424.172 339.806 423.131 341.335 422.158 341.386H422.109ZM424.162 339.078C423.092 339.365 421.677 339.878 421.5 340.391C421.483 340.438 421.479 340.49 421.49 340.539C421.5 340.588 421.524 340.633 421.559 340.668C421.62 340.774 421.706 340.861 421.81 340.921C421.914 340.98 422.03 341.01 422.149 341.007C422.669 340.976 423.406 340.268 424.162 339.078Z" fill="#007DF5"/>
<path d="M423.72 339.078C422.738 339.078 421.51 338.821 421.146 338.267C421.066 338.141 421.029 337.99 421.041 337.839C421.054 337.688 421.115 337.546 421.215 337.436C421.301 337.322 421.41 337.228 421.534 337.16C421.657 337.093 421.793 337.054 421.932 337.046H422.011C423.111 337.046 424.624 338.595 424.683 338.657C424.707 338.68 424.724 338.71 424.732 338.742C424.741 338.775 424.741 338.809 424.732 338.842C424.723 338.873 424.707 338.902 424.685 338.926C424.662 338.949 424.635 338.966 424.604 338.975C424.315 339.048 424.018 339.082 423.72 339.078ZM422.011 337.426H421.952C421.864 337.429 421.777 337.453 421.699 337.495C421.621 337.538 421.553 337.598 421.5 337.672C421.363 337.867 421.402 337.98 421.451 338.052C421.746 338.524 423.249 338.79 424.172 338.678C423.583 338.05 422.832 337.616 422.011 337.426Z" fill="#007DF5"/>
<path d="M367.803 361.487C367.142 361.548 366.481 361.375 365.927 360.995C365.796 360.888 365.693 360.748 365.627 360.588C365.562 360.429 365.537 360.254 365.554 360.082C365.553 359.978 365.578 359.877 365.626 359.787C365.674 359.697 365.744 359.622 365.829 359.569C366.732 359.014 369.896 360.656 370.249 360.841C370.283 360.859 370.31 360.888 370.327 360.922C370.345 360.957 370.352 360.997 370.348 361.036C370.343 361.074 370.327 361.111 370.303 361.14C370.278 361.169 370.246 361.19 370.21 361.2C369.418 361.373 368.612 361.469 367.803 361.487ZM366.349 359.825C366.234 359.817 366.118 359.842 366.015 359.897C365.982 359.915 365.955 359.944 365.937 359.978C365.92 360.013 365.913 360.053 365.917 360.092C365.907 360.208 365.924 360.324 365.967 360.431C366.01 360.538 366.077 360.633 366.163 360.707C366.654 361.149 367.921 361.221 369.591 360.933C368.577 360.378 367.481 360.003 366.349 359.825Z" fill="#007DF5"/>
<path d="M370.171 361.179H370.102C369.12 360.738 367.224 358.994 367.361 358.101C367.361 357.896 367.538 357.629 368.029 357.578H368.177C369.886 357.578 370.328 360.841 370.348 360.984C370.352 361.019 370.348 361.054 370.336 361.086C370.324 361.118 370.304 361.147 370.279 361.169C370.244 361.183 370.207 361.187 370.171 361.179ZM368.206 357.937H368.098C367.784 357.937 367.764 358.091 367.764 358.132C367.685 358.676 368.982 360.04 369.964 360.646C369.768 359.846 369.267 357.958 368.167 357.958L368.206 357.937Z" fill="#007DF5"/>
<path d="M340.523 103.931L338.98 103.788C338.98 103.788 339.953 104.834 340.523 103.931Z" fill="#007DF5"/>
<path d="M347.271 141.127C330.836 144.954 335.915 134.57 336.898 132.282L337.31 132.118C339.275 131.369 339.668 131.256 342.281 130.456C346.841 129.17 351.483 128.227 356.172 127.634L357.154 127.49C358.137 127.357 359.031 127.254 359.934 127.172C360.543 127.1 361.152 127.059 361.732 127.018L363.697 126.895C364.031 128.496 364.846 137.053 347.271 141.127Z" fill="#E58A7B"/>
<path d="M373.069 173.623L374.984 176.209C375.132 176.403 374.925 176.681 374.572 176.752L342.487 183.278C342.212 183.34 341.957 183.278 341.908 183.063L341.092 180.262C341.092 180.067 341.249 179.851 341.544 179.79L372.528 173.489C372.622 173.461 372.721 173.458 372.816 173.481C372.91 173.505 372.998 173.553 373.069 173.623Z" fill="#007DF5"/>
<path d="M369.581 178.086L370.416 177.922C370.583 177.922 370.691 177.778 370.662 177.665L369.581 174.033C369.581 173.92 369.385 173.869 369.218 173.9L368.393 174.064C368.226 174.064 368.118 174.218 368.147 174.32L369.228 177.963C369.257 178.066 369.424 178.127 369.581 178.086Z" fill="#007DF5"/>
<path d="M350.788 190.194L344.393 187.711L345.375 194.062C345.375 194.062 350.012 195.806 352.38 193.57L350.788 190.194Z" fill="#E58A7B"/>
<path d="M338.302 189.393L336.78 193.559L345.375 194.062L344.393 187.711L338.302 189.393Z" fill="#E58A7B"/>
<path d="M344.874 183.114L345.709 182.95C345.867 182.95 345.985 182.806 345.945 182.693L344.865 179.061C344.865 178.948 344.678 178.897 344.511 178.927L343.676 179.092C343.509 179.092 343.401 179.246 343.44 179.348L344.521 182.991C344.55 183.093 344.707 183.155 344.874 183.114Z" fill="#007DF5"/>
<path d="M357.233 180.59L358.058 180.426C358.225 180.426 358.333 180.282 358.304 180.169L357.223 176.537C357.223 176.424 357.027 176.373 356.86 176.403L356.034 176.568C355.867 176.568 355.759 176.721 355.789 176.824L356.869 180.467C356.909 180.526 356.965 180.57 357.031 180.592C357.097 180.615 357.168 180.614 357.233 180.59Z" fill="#007DF5"/>
<path d="M353.736 123.56C354.433 123.283 355.307 125.848 355.091 126.177C354.59 126.926 345.415 129.542 345.002 128.075C344.977 127.28 345.093 126.486 345.346 125.735C345.611 125.243 347.645 126.146 353.736 123.56Z" fill="#007DF5"/>
<path d="M352.183 123.622C352.537 122.77 353.549 121.405 354.433 122.185C355.317 122.965 355.69 124.648 355.111 124.925C354.531 125.202 351.574 125.048 352.183 123.622Z" fill="#007DF5"/>
<path d="M354.06 124.063C354.669 123.386 356.024 122.452 356.643 123.499C357.262 124.545 357.036 126.259 356.408 126.31C355.779 126.362 353.028 125.182 354.06 124.063Z" fill="#007DF5"/>
<path d="M354.394 123.909C354.344 123.364 354.447 122.815 354.689 122.329C354.931 121.843 355.303 121.44 355.759 121.17C356.879 120.41 357.97 119.918 358.402 119.117C358.588 119.868 358.625 120.65 358.51 121.416C358.284 122.514 354.796 123.355 355.032 124.309L354.394 123.909Z" fill="#007DF5"/>
<path d="M354.246 123.858C353.921 123.427 353.722 122.908 353.673 122.361C353.624 121.815 353.728 121.266 353.971 120.78C354.502 119.507 355.17 118.481 355.131 117.578C355.676 118.103 356.114 118.739 356.417 119.446C356.791 120.472 354.305 123.17 355.003 123.848L354.246 123.858Z" fill="#007DF5"/>
<path d="M422.571 324.302C422.551 324.302 422.531 324.296 422.514 324.285C422.497 324.274 422.483 324.259 422.473 324.241C422.247 323.912 399.79 290.442 391.557 261.034C386.185 242.171 382.055 222.945 379.199 203.492C377.499 192.533 376.468 185.915 373.088 180.487C373.066 180.462 373.053 180.429 373.053 180.395C373.053 180.36 373.066 180.327 373.088 180.302C373.112 180.282 373.141 180.27 373.172 180.27C373.203 180.27 373.232 180.282 373.255 180.302C376.674 185.782 377.706 192.42 379.405 203.41C382.275 222.835 386.411 242.033 391.783 260.87C400.006 290.236 422.443 323.666 422.669 324.005C422.687 324.03 422.697 324.06 422.697 324.092C422.697 324.123 422.687 324.154 422.669 324.179C422.668 324.208 422.657 324.236 422.64 324.258C422.622 324.28 422.598 324.296 422.571 324.302Z" fill="#007DF5"/>
<path opacity="0.4" d="M422.571 324.302C422.551 324.302 422.531 324.296 422.514 324.285C422.497 324.274 422.483 324.259 422.473 324.241C422.247 323.912 399.79 290.442 391.557 261.034C386.185 242.171 382.055 222.945 379.199 203.492C377.499 192.533 376.468 185.915 373.088 180.487C373.066 180.462 373.053 180.429 373.053 180.395C373.053 180.36 373.066 180.327 373.088 180.302C373.112 180.282 373.141 180.27 373.172 180.27C373.203 180.27 373.232 180.282 373.255 180.302C376.674 185.782 377.706 192.42 379.405 203.41C382.275 222.835 386.411 242.033 391.783 260.87C400.006 290.236 422.443 323.666 422.669 324.005C422.687 324.03 422.697 324.06 422.697 324.092C422.697 324.123 422.687 324.154 422.669 324.179C422.668 324.208 422.657 324.236 422.64 324.258C422.622 324.28 422.598 324.296 422.571 324.302Z" fill="black"/>
<path d="M381.065 349L366.055 351.032L365.072 346.661L380.702 343.203L381.065 349Z" fill="#007DF5"/>
<path d="M427.08 323.82L416.009 330.5L412.276 327.165L424.388 318.607L427.08 323.82Z" fill="#007DF5"/>
<path d="M375.122 137.628C375.652 140.48 375.957 143.169 376.252 145.949C376.546 148.73 376.654 151.48 376.733 154.261C376.811 157.063 376.752 159.868 376.556 162.664C376.448 164.07 376.33 165.476 376.144 166.892C376.065 167.589 375.977 168.297 375.849 169.005L375.485 171.181C375.083 172.954 374.345 174.625 373.314 176.096C372.469 177.333 371.537 178.503 370.524 179.595C368.629 181.628 366.593 183.515 364.434 185.238C360.256 188.597 355.835 191.613 351.211 194.257L349.109 190.851C351.073 189.219 353.038 187.536 355.003 185.823C356.968 184.109 358.834 182.375 360.632 180.569C362.408 178.831 364.085 176.984 365.652 175.039C366.372 174.138 367.028 173.185 367.617 172.186C368.081 171.458 368.414 170.648 368.599 169.795C368.918 167.305 369.105 164.797 369.159 162.285C369.159 161.002 369.159 159.719 369.159 158.437C369.159 157.154 369.11 155.851 369.051 154.558C368.933 151.973 368.707 149.428 368.442 146.801C368.177 144.174 367.833 141.578 367.459 139.147L375.122 137.628Z" fill="#E58A7B"/>
<path d="M373.933 128.906C378.128 132.457 377.126 143.005 377.126 143.005L362.98 147.868C362.98 147.868 363.628 135.709 364.335 131.338C365.161 126.136 369.797 125.407 373.933 128.906Z" fill="#007DF5"/>
<path opacity="0.2" d="M373.933 128.906C378.128 132.457 377.126 143.005 377.126 143.005L362.98 147.868C362.98 147.868 363.628 135.709 364.335 131.338C365.161 126.136 369.797 125.407 373.933 128.906Z" fill="black"/>
<path d="M187.055 172.925C186.506 170.437 185.166 168.217 183.253 166.627C181.341 165.038 178.968 164.172 176.524 164.173H97.9335C95.0675 164.173 92.3189 165.362 90.2924 167.478C88.2658 169.595 87.1273 172.466 87.1273 175.459V357.917C87.1273 360.91 88.2658 363.781 90.2924 365.898C92.3189 368.014 95.0675 369.204 97.9335 369.204H347.458C350.324 369.204 353.073 368.014 355.099 365.898C357.126 363.781 358.264 360.91 358.264 357.917V204.651C358.264 201.658 357.126 198.787 355.099 196.67C353.073 194.554 350.324 193.365 347.458 193.365H211.644C205.936 193.366 200.397 191.345 195.93 187.632C191.464 183.92 188.335 178.735 187.055 172.925Z" fill="#007DF5"/>
<path opacity="0.6" d="M187.055 172.925C186.506 170.437 185.166 168.217 183.253 166.627C181.341 165.038 178.968 164.172 176.524 164.173H97.9335C95.0675 164.173 92.3189 165.362 90.2924 167.478C88.2658 169.595 87.1273 172.466 87.1273 175.459V357.917C87.1273 360.91 88.2658 363.781 90.2924 365.898C92.3189 368.014 95.0675 369.204 97.9335 369.204H347.458C350.324 369.204 353.073 368.014 355.099 365.898C357.126 363.781 358.264 360.91 358.264 357.917V204.651C358.264 201.658 357.126 198.787 355.099 196.67C353.073 194.554 350.324 193.365 347.458 193.365H211.644C205.936 193.366 200.397 191.345 195.93 187.632C191.464 183.92 188.335 178.735 187.055 172.925Z" fill="black"/>
<path opacity="0.22" d="M159.313 116.101L166.317 139.793C167.211 142.808 169.215 145.33 171.887 146.803C174.56 148.277 177.683 148.583 180.571 147.653L203.245 140.337L159.313 116.101Z" fill="#007DF5"/>
<path d="M159.313 116.101L78.2662 142.256C76.8355 142.715 75.5055 143.464 74.3522 144.46C73.199 145.457 72.2452 146.681 71.5454 148.063C70.8455 149.445 70.4134 150.957 70.2737 152.514C70.1341 154.07 70.2896 155.64 70.7314 157.134L117.001 313.59C117.443 315.084 118.162 316.472 119.118 317.676C120.073 318.879 121.246 319.874 122.57 320.604C123.893 321.334 125.342 321.784 126.832 321.93C128.323 322.075 129.826 321.912 131.256 321.45L234.985 287.979C236.415 287.519 237.744 286.769 238.896 285.772C240.049 284.775 241.001 283.551 241.7 282.169C242.399 280.787 242.83 279.275 242.969 277.719C243.108 276.163 242.952 274.594 242.51 273.101L203.215 140.337L159.313 116.101Z" fill="#007DF5"/>
<path opacity="0.8" d="M159.313 116.101L78.2662 142.256C76.8355 142.715 75.5055 143.464 74.3522 144.46C73.199 145.457 72.2452 146.681 71.5454 148.063C70.8455 149.445 70.4134 150.957 70.2737 152.514C70.1341 154.07 70.2896 155.64 70.7314 157.134L117.001 313.59C117.443 315.084 118.162 316.472 119.118 317.676C120.073 318.879 121.246 319.874 122.57 320.604C123.893 321.334 125.342 321.784 126.832 321.93C128.323 322.075 129.826 321.912 131.256 321.45L234.985 287.979C236.415 287.519 237.744 286.769 238.896 285.772C240.049 284.775 241.001 283.551 241.7 282.169C242.399 280.787 242.83 279.275 242.969 277.719C243.108 276.163 242.952 274.594 242.51 273.101L203.215 140.337L159.313 116.101Z" fill="white"/>
<g opacity="0.28">
<path opacity="0.28" d="M202.92 281.145L135.49 302.898C134.229 303.303 132.866 303.169 131.699 302.527C130.531 301.885 129.655 300.786 129.262 299.471C128.878 298.154 129.008 296.732 129.625 295.515C130.241 294.298 131.294 293.385 132.553 292.976L199.983 271.213C201.245 270.809 202.61 270.944 203.777 271.588C204.944 272.232 205.82 273.333 206.211 274.65C206.595 275.967 206.465 277.39 205.848 278.607C205.232 279.824 204.179 280.736 202.92 281.145Z" fill="#007DF5"/>
</g>
<g opacity="0.28">
<path opacity="0.28" d="M130.352 153.481L94.6916 164.983C93.4306 165.385 92.0686 165.25 90.9022 164.608C89.7358 163.966 88.8592 162.869 88.4633 161.556C88.0791 160.237 88.2094 158.814 88.8259 157.595C89.4423 156.377 90.4949 155.462 91.7543 155.051L127.415 143.548C128.676 143.141 130.04 143.273 131.208 143.916C132.376 144.558 133.252 145.659 133.643 146.975C134.027 148.294 133.897 149.717 133.28 150.936C132.664 152.155 131.611 153.069 130.352 153.481Z" fill="#007DF5"/>
</g>
<g opacity="0.28">
<path opacity="0.28" d="M159.45 165.681L100.507 184.694C99.2489 185.089 97.8922 184.949 96.7317 184.306C95.5712 183.662 94.7004 182.567 94.3085 181.257C93.9215 179.941 94.0495 178.519 94.6645 177.301C95.2795 176.084 96.3313 175.171 97.5897 174.762L156.532 155.749C157.794 155.344 159.157 155.477 160.324 156.12C161.491 156.762 162.367 157.861 162.761 159.176C163.141 160.497 163.007 161.922 162.387 163.14C161.767 164.358 160.712 165.271 159.45 165.681Z" fill="#007DF5"/>
</g>
<g opacity="0.28">
<path opacity="0.28" d="M192.36 176.65L106.343 204.354C105.083 204.758 103.721 204.624 102.556 203.982C101.39 203.34 100.516 202.241 100.124 200.927C99.7396 199.609 99.8685 198.187 100.483 196.969C101.098 195.75 102.148 194.835 103.405 194.421L189.423 166.717C190.682 166.316 192.043 166.451 193.208 167.093C194.373 167.735 195.247 168.832 195.641 170.144C196.028 171.461 195.901 172.885 195.286 174.104C194.671 175.323 193.619 176.238 192.36 176.65Z" fill="#007DF5"/>
</g>
<g opacity="0.28">
<path opacity="0.28" d="M198.185 196.35L148.182 212.491C146.921 212.892 145.559 212.755 144.394 212.111C143.229 211.467 142.355 210.368 141.964 209.053C141.579 207.737 141.709 206.316 142.323 205.1C142.938 203.883 143.988 202.969 145.245 202.558L195.248 186.418C196.51 186.019 197.872 186.157 199.038 186.8C200.204 187.444 201.08 188.541 201.476 189.855C201.86 191.172 201.73 192.595 201.113 193.812C200.496 195.028 199.444 195.941 198.185 196.35Z" fill="#007DF5"/>
</g>
<g opacity="0.28">
<path opacity="0.28" d="M125.253 219.889L112.178 224.106C110.917 224.51 109.554 224.377 108.387 223.735C107.22 223.093 106.343 221.994 105.95 220.679C105.563 219.36 105.692 217.935 106.309 216.716C106.926 215.497 107.98 214.582 109.241 214.173L122.316 209.956C123.577 209.554 124.939 209.689 126.106 210.331C127.272 210.973 128.149 212.07 128.544 213.383C128.926 214.702 128.794 216.124 128.178 217.342C127.562 218.56 126.511 219.475 125.253 219.889Z" fill="#007DF5"/>
</g>
<g opacity="0.28">
<path opacity="0.28" d="M204.021 216.061L118.003 243.817C116.742 244.218 115.381 244.081 114.216 243.437C113.051 242.793 112.177 241.694 111.785 240.379C111.398 239.063 111.526 237.641 112.141 236.424C112.756 235.206 113.808 234.293 115.066 233.884L201.083 206.129C202.343 205.727 203.704 205.862 204.869 206.504C206.033 207.146 206.908 208.243 207.302 209.556C207.689 210.873 207.561 212.297 206.947 213.516C206.332 214.735 205.28 215.65 204.021 216.061Z" fill="#007DF5"/>
</g>
<g opacity="0.28">
<path opacity="0.28" d="M176.652 246.474L123.829 263.517C122.569 263.919 121.209 263.784 120.044 263.142C118.879 262.5 118.004 261.403 117.611 260.09C117.226 258.773 117.355 257.351 117.969 256.132C118.584 254.914 119.634 253.998 120.892 253.585L173.714 236.542C174.977 236.14 176.34 236.277 177.506 236.92C178.673 237.564 179.549 238.664 179.943 239.979C180.329 241.296 180.2 242.72 179.583 243.937C178.966 245.155 177.912 246.067 176.652 246.474Z" fill="#007DF5"/>
</g>
<g opacity="0.28">
<path opacity="0.28" d="M209.846 235.772L195.749 240.318C194.487 240.719 193.124 240.583 191.957 239.939C190.79 239.295 189.915 238.196 189.521 236.88C189.137 235.563 189.267 234.141 189.884 232.924C190.501 231.707 191.553 230.794 192.812 230.385L206.909 225.84C208.169 225.436 209.53 225.569 210.696 226.212C211.862 226.854 212.736 227.953 213.127 229.267C213.515 230.584 213.387 232.008 212.772 233.227C212.157 234.446 211.105 235.361 209.846 235.772Z" fill="#007DF5"/>
</g>
<g opacity="0.28">
<path opacity="0.28" d="M215.672 255.493L129.674 283.198C128.412 283.602 127.048 283.467 125.88 282.823C124.713 282.178 123.838 281.077 123.446 279.76C123.059 278.443 123.189 277.02 123.806 275.802C124.423 274.584 125.477 273.672 126.737 273.265L212.744 245.51C214.007 245.111 215.368 245.249 216.534 245.892C217.7 246.536 218.576 247.633 218.973 248.947C219.17 249.603 219.241 250.294 219.182 250.979C219.122 251.664 218.934 252.329 218.627 252.938C218.32 253.547 217.901 254.086 217.394 254.524C216.887 254.963 216.301 255.292 215.672 255.493Z" fill="#007DF5"/>
</g>
<path d="M217.519 57.2655L243.237 117.127C243.905 118.689 243.953 120.465 243.372 122.064C242.79 123.664 241.625 124.958 240.133 125.664L131.03 176.814C129.534 177.514 127.833 177.566 126.301 176.958C124.769 176.35 123.53 175.132 122.856 173.571L97.1279 113.71C96.4544 112.147 96.4032 110.368 96.9853 108.765C97.5675 107.162 98.7354 105.866 100.232 105.163L209.335 54.0128C210.834 53.3157 212.536 53.2665 214.069 53.8759C215.603 54.4854 216.843 55.704 217.519 57.2655Z" fill="#007DF5"/>
<path opacity="0.3" d="M217.519 57.2655L243.237 117.127C243.905 118.689 243.953 120.465 243.372 122.064C242.79 123.664 241.625 124.958 240.133 125.664L131.03 176.814C129.534 177.514 127.833 177.566 126.301 176.958C124.769 176.35 123.53 175.132 122.856 173.571L97.1279 113.71C96.4544 112.147 96.4032 110.368 96.9853 108.765C97.5675 107.162 98.7354 105.866 100.232 105.163L209.335 54.0128C210.834 53.3157 212.536 53.2665 214.069 53.8759C215.603 54.4854 216.843 55.704 217.519 57.2655Z" fill="black"/>
<path d="M200.324 54.3075L196.837 55.9412L197.239 56.8774L200.726 55.2437L200.324 54.3075Z" fill="#007DF5"/>
<path d="M191.954 58.2242L181.081 63.3184L181.483 64.2546L192.356 59.1604L191.954 58.2242Z" fill="#007DF5"/>
<path d="M97.0311 119.743L96.1349 120.163L99.1126 127.09L100.009 126.67L97.0311 119.743Z" fill="#007DF5"/>
<path opacity="0.6" d="M213.864 53.7974L185.729 111.36C183.118 116.696 178.843 120.941 173.609 123.394C168.375 125.848 162.497 126.362 156.945 124.853L97.069 108.549C97.6832 107.048 98.8111 105.841 100.232 105.163L209.335 54.0128C210.765 53.3453 212.383 53.2683 213.864 53.7974Z" fill="#007DF5"/>
<path d="M252.54 127.47L167.879 132.928C166.383 133.021 164.92 133.421 163.572 134.106C162.225 134.79 161.02 135.745 160.026 136.916C159.032 138.088 158.27 139.452 157.781 140.932C157.293 142.411 157.089 143.977 157.181 145.539L166.838 308.973C166.928 310.536 167.312 312.065 167.969 313.473C168.626 314.88 169.543 316.139 170.666 317.176C171.789 318.213 173.098 319.008 174.516 319.516C175.934 320.024 177.434 320.235 178.931 320.136L287.287 313.149C288.781 313.055 290.243 312.654 291.588 311.969C292.934 311.283 294.136 310.328 295.127 309.156C296.118 307.985 296.878 306.62 297.364 305.142C297.849 303.663 298.05 302.099 297.956 300.538L289.802 161.843L252.54 127.47Z" fill="#007DF5"/>
<path opacity="0.8" d="M252.54 127.47L167.879 132.928C166.383 133.021 164.92 133.421 163.572 134.106C162.225 134.79 161.02 135.745 160.026 136.916C159.032 138.088 158.27 139.452 157.781 140.932C157.293 142.411 157.089 143.977 157.181 145.539L166.838 308.973C166.928 310.536 167.312 312.065 167.969 313.473C168.626 314.88 169.543 316.139 170.666 317.176C171.789 318.213 173.098 319.008 174.516 319.516C175.934 320.024 177.434 320.235 178.931 320.136L287.287 313.149C288.781 313.055 290.243 312.654 291.588 311.969C292.934 311.283 294.136 310.328 295.127 309.156C296.118 307.985 296.878 306.62 297.364 305.142C297.849 303.663 298.05 302.099 297.956 300.538L289.802 161.843L252.54 127.47Z" fill="white"/>
<g opacity="0.22">
<path opacity="0.22" d="M257.659 298.589L187.212 303.134C185.896 303.213 184.604 302.745 183.617 301.831C182.631 300.918 182.03 299.635 181.947 298.26C181.871 296.887 182.318 295.537 183.19 294.505C184.062 293.473 185.288 292.843 186.603 292.75L257.05 288.215C258.366 288.134 259.659 288.599 260.648 289.511C261.636 290.422 262.239 291.705 262.325 293.079C262.403 294.455 261.956 295.808 261.081 296.84C260.207 297.873 258.976 298.502 257.659 298.589Z" fill="#007DF5"/>
</g>
<g opacity="0.22">
<path opacity="0.22" d="M215.966 156.662L178.705 159.042C177.389 159.121 176.097 158.654 175.109 157.744C174.122 156.833 173.518 155.552 173.429 154.178C173.354 152.803 173.802 151.452 174.676 150.42C175.55 149.388 176.779 148.758 178.096 148.668L215.357 146.267C216.672 146.186 217.965 146.652 218.952 147.564C219.939 148.475 220.54 149.758 220.623 151.131C220.706 152.509 220.263 153.865 219.39 154.902C218.517 155.939 217.286 156.572 215.966 156.662Z" fill="#007DF5"/>
</g>
<g opacity="0.22">
<path opacity="0.22" d="M241.489 175.685L179.923 179.646C178.606 179.73 177.311 179.265 176.322 178.354C175.333 177.442 174.731 176.157 174.648 174.782C174.57 173.406 175.017 172.053 175.891 171.021C176.766 169.988 177.997 169.359 179.314 169.272L240.87 165.312C242.187 165.227 243.481 165.692 244.471 166.604C245.46 167.516 246.062 168.8 246.145 170.175C246.223 171.55 245.777 172.901 244.905 173.933C244.032 174.966 242.804 175.595 241.489 175.685Z" fill="#007DF5"/>
</g>
<g opacity="0.22">
<path opacity="0.22" d="M270.99 194.452L181.141 200.239C179.821 200.324 178.522 199.858 177.53 198.945C176.537 198.031 175.932 196.744 175.846 195.365C175.768 193.992 176.214 192.642 177.087 191.611C177.96 190.58 179.188 189.953 180.503 189.866L270.361 184.068C271.677 183.99 272.969 184.458 273.956 185.371C274.942 186.284 275.543 187.568 275.626 188.942C275.705 190.314 275.261 191.662 274.393 192.693C273.525 193.725 272.302 194.357 270.99 194.452Z" fill="#007DF5"/>
</g>
<g opacity="0.22">
<path opacity="0.22" d="M272.208 215.035L219.975 218.401C218.659 218.482 217.365 218.017 216.377 217.105C215.388 216.194 214.785 214.911 214.699 213.537C214.619 212.162 215.063 210.809 215.936 209.776C216.809 208.743 218.039 208.114 219.356 208.027L271.589 204.662C272.906 204.577 274.201 205.042 275.19 205.954C276.179 206.866 276.781 208.15 276.864 209.525C276.942 210.9 276.496 212.251 275.624 213.283C274.751 214.316 273.523 214.946 272.208 215.035Z" fill="#007DF5"/>
</g>
<g opacity="0.22">
<path opacity="0.22" d="M196.014 219.94L182.349 220.822C181.034 220.904 179.742 220.438 178.755 219.526C177.768 218.615 177.167 217.332 177.084 215.959C177.006 214.584 177.452 213.233 178.324 212.201C179.197 211.168 180.425 210.538 181.74 210.449L195.405 209.566C196.722 209.487 198.016 209.956 199.004 210.868C199.992 211.781 200.595 213.065 200.681 214.44C200.756 215.815 200.307 217.164 199.433 218.195C198.559 219.225 197.33 219.853 196.014 219.94Z" fill="#007DF5"/>
</g>
<g opacity="0.22">
<path opacity="0.22" d="M273.426 235.618L183.568 241.405C182.251 241.487 180.958 241.021 179.97 240.11C178.981 239.199 178.378 237.916 178.292 236.542C178.217 235.166 178.665 233.815 179.539 232.783C180.413 231.751 181.642 231.122 182.959 231.032L272.807 225.245C274.125 225.163 275.42 225.63 276.408 226.544C277.397 227.457 277.999 228.743 278.082 230.119C278.16 231.492 277.714 232.842 276.842 233.873C275.969 234.904 274.741 235.531 273.426 235.618Z" fill="#007DF5"/>
</g>
<g opacity="0.22">
<path opacity="0.22" d="M239.966 258.438L184.786 261.999C183.469 262.078 182.175 261.609 181.187 260.697C180.199 259.784 179.596 258.5 179.51 257.125C179.435 255.75 179.884 254.401 180.758 253.37C181.632 252.34 182.861 251.712 184.177 251.625L239.357 248.065C240.673 247.986 241.965 248.454 242.952 249.368C243.938 250.281 244.539 251.564 244.623 252.939C244.703 254.313 244.258 255.664 243.385 256.696C242.511 257.727 241.282 258.354 239.966 258.438Z" fill="#007DF5"/>
</g>
<g opacity="0.22">
<path opacity="0.22" d="M274.634 256.212L259.899 257.156C258.583 257.237 257.291 256.771 256.304 255.86C255.317 254.948 254.716 253.665 254.633 252.292C254.552 250.917 254.997 249.564 255.87 248.531C256.743 247.498 257.973 246.869 259.289 246.782L274.025 245.838C275.342 245.754 276.637 246.219 277.626 247.13C278.615 248.042 279.217 249.327 279.301 250.702C279.376 252.077 278.928 253.428 278.054 254.46C277.18 255.492 275.951 256.122 274.634 256.212Z" fill="#007DF5"/>
</g>
<g opacity="0.22">
<path opacity="0.22" d="M275.852 276.795L186.004 282.582C184.688 282.664 183.394 282.198 182.406 281.287C181.417 280.375 180.814 279.092 180.728 277.718C180.65 276.344 181.096 274.993 181.969 273.96C182.841 272.928 184.069 272.298 185.385 272.208L275.243 266.421C276.558 266.34 277.851 266.806 278.838 267.717C279.825 268.629 280.425 269.912 280.509 271.285C280.59 272.66 280.145 274.013 279.272 275.046C278.399 276.079 277.169 276.708 275.852 276.795Z" fill="#007DF5"/>
</g>
<path opacity="0.22" d="M252.541 127.47L254.004 152.219C254.096 153.779 254.48 155.306 255.137 156.711C255.793 158.116 256.708 159.372 257.829 160.408C258.95 161.443 260.256 162.238 261.671 162.747C263.086 163.256 264.584 163.468 266.078 163.372L289.802 161.843L252.541 127.47Z" fill="#007DF5"/>
<path opacity="0.5" d="M224.818 189.209C224.803 188.023 224.561 186.852 224.105 185.766C223.65 184.679 222.991 183.699 222.166 182.883C221.342 182.067 220.37 181.432 219.307 181.015C218.243 180.598 217.111 180.408 215.976 180.457H137.288C131.325 180.457 125.499 185.515 124.379 191.743L93.3261 357.917C92.1669 364.145 96.0571 369.204 102.02 369.204H351.545C357.508 369.204 363.284 364.155 364.453 357.917L390.064 220.935C391.223 214.697 387.333 209.648 381.37 209.648H245.595C233.806 209.648 225.22 201.173 224.818 189.209Z" fill="#007DF5"/>
</svg>
