<svg width="567" height="397" viewBox="0 0 567 397" fill="none" xmlns="http://www.w3.org/2000/svg">
<path d="M509.458 373.094H471.954V373.362H509.458V373.094Z" fill="#EBEBEB"/>
<path d="M375.067 376.018H365.227V376.287H375.067V376.018Z" fill="#EBEBEB"/>
<path d="M470.821 363.115H449.091V363.384H470.821V363.115Z" fill="#EBEBEB"/>
<path d="M108.312 364.921H59.4048V365.19H108.312V364.921Z" fill="#EBEBEB"/>
<path d="M125.569 364.921H118.401V365.19H125.569V364.921Z" fill="#EBEBEB"/>
<path d="M254.955 369.459H148.874V369.728H254.955V369.459Z" fill="#EBEBEB"/>
<path d="M269.96 307.834H51.2969C49.5821 307.834 47.9375 307.187 46.7249 306.035C45.5123 304.884 44.8311 303.322 44.8311 301.694V9.82509C44.846 8.206 45.5338 6.65806 46.7448 5.51819C47.9557 4.37833 49.5918 3.73883 51.2969 3.73889H269.96C270.809 3.73889 271.65 3.8977 272.434 4.20627C273.219 4.51483 273.931 4.9671 274.532 5.53724C275.132 6.10739 275.608 6.78426 275.933 7.52919C276.258 8.27413 276.426 9.07254 276.426 9.87885V301.694C276.426 302.5 276.258 303.298 275.933 304.043C275.608 304.788 275.132 305.465 274.532 306.035C273.931 306.605 273.219 307.058 272.434 307.366C271.65 307.675 270.809 307.834 269.96 307.834ZM51.2969 3.95395C49.6581 3.95679 48.0872 4.57627 46.9284 5.67671C45.7695 6.77714 45.1171 8.26884 45.1141 9.82509V301.694C45.1171 303.25 45.7695 304.742 46.9284 305.842C48.0872 306.942 49.6581 307.562 51.2969 307.565H269.96C271.598 307.562 273.169 306.942 274.328 305.842C275.487 304.742 276.139 303.25 276.142 301.694V9.82509C276.139 8.26884 275.487 6.77714 274.328 5.67671C273.169 4.57627 271.598 3.95679 269.96 3.95395H51.2969Z" fill="#EBEBEB"/>
<path d="M514.893 307.834H296.231C294.516 307.834 292.871 307.187 291.658 306.035C290.446 304.884 289.765 303.322 289.765 301.694V9.82509C289.78 8.206 290.467 6.65806 291.678 5.51819C292.889 4.37833 294.525 3.73883 296.231 3.73889H514.893C516.608 3.73889 518.253 4.38578 519.465 5.53724C520.678 6.68871 521.359 8.25043 521.359 9.87885V301.694C521.359 303.322 520.678 304.884 519.465 306.035C518.253 307.187 516.608 307.834 514.893 307.834ZM296.231 3.95395C294.592 3.95679 293.021 4.57627 291.862 5.67671C290.703 6.77714 290.051 8.26884 290.048 9.82509V301.694C290.051 303.25 290.703 304.742 291.862 305.842C293.021 306.942 294.592 307.562 296.231 307.565H514.893C516.532 307.562 518.103 306.942 519.262 305.842C520.421 304.742 521.073 303.25 521.076 301.694V9.82509C521.073 8.26884 520.421 6.77714 519.262 5.67671C518.103 4.57627 516.532 3.95679 514.893 3.95395H296.231Z" fill="#EBEBEB"/>
<path d="M566.19 355.792H0V356.061H566.19V355.792Z" fill="#EBEBEB"/>
<path d="M71.5435 254.692L59.5742 355.577H65.5645L78.2019 254.692H71.5435Z" fill="#EBEBEB"/>
<path d="M108.924 254.692L96.9546 355.577H102.945L115.582 254.692H108.924Z" fill="#EBEBEB"/>
<path d="M82.9808 329.426L80.0366 355.577H83.7961L89.6279 329.426H82.9808Z" fill="#F0F0F0"/>
<path d="M117.428 329.426L120.383 355.577H116.624L110.792 329.426H117.428Z" fill="#F0F0F0"/>
<path d="M100.646 339.286C104.146 339.287 107.608 338.596 110.813 337.258C114.017 335.92 116.893 333.964 119.258 331.513C121.623 329.063 123.426 326.173 124.551 323.025C125.677 319.878 126.101 316.543 125.796 313.232L116.058 207.551C115.508 201.577 112.62 196.016 107.964 191.965C103.308 187.914 97.2223 185.668 90.9075 185.669C87.4082 185.67 83.9472 186.361 80.7445 187.7C77.5417 189.039 74.6671 190.995 72.3031 193.445C69.9392 195.896 68.1375 198.786 67.0126 201.932C65.8877 205.079 65.4641 208.413 65.7686 211.723L75.5071 317.404C76.054 323.377 78.9394 328.938 83.5936 332.989C88.2477 337.04 94.3323 339.287 100.646 339.286Z" fill="#E0E0E0"/>
<path d="M122.784 315.285C122.708 316.394 122.534 317.495 122.263 318.576C121.772 320.621 120.947 322.58 119.817 324.382C119.625 324.716 119.41 325.038 119.183 325.361C118.46 326.395 117.637 327.364 116.726 328.254L116.194 328.77C114.527 330.314 112.617 331.602 110.532 332.587C109.866 332.897 109.181 333.17 108.482 333.404C105.32 334.503 101.934 334.895 98.5863 334.551C95.2388 334.207 92.0196 333.135 89.1783 331.42C86.3369 329.704 83.9496 327.39 82.2014 324.658C80.4531 321.925 79.3908 318.847 79.0968 315.662L70.3888 212.024C70.3888 211.401 70.3096 210.788 70.3096 210.186C70.3121 206.357 71.4278 202.603 73.5337 199.337C75.6397 196.072 78.6541 193.422 82.2449 191.68C82.7617 191.413 83.2948 191.176 83.8415 190.97C86.1473 190.054 88.6035 189.526 91.1001 189.411C91.4738 189.411 91.8361 189.411 92.2325 189.411C93.1561 189.41 94.0789 189.464 94.9955 189.572L95.89 189.712C97.2486 189.915 98.5809 190.254 99.8647 190.723L100.476 190.938C104.215 192.384 107.461 194.781 109.859 197.866C112.256 200.951 113.711 204.603 114.065 208.422L122.773 312.06C122.86 313.133 122.864 314.211 122.784 315.285Z" fill="#FAFAFA"/>
<path d="M116.726 328.264L116.194 328.78C114.527 330.325 112.617 331.613 110.532 332.598C109.866 332.908 109.181 333.181 108.482 333.415L82.2222 191.691C82.739 191.424 83.2721 191.187 83.8188 190.981C86.1246 190.065 88.5809 189.537 91.0774 189.422L116.726 328.264Z" fill="white"/>
<path d="M122.784 315.285C122.708 316.394 122.534 317.495 122.263 318.576C121.772 320.621 120.947 322.58 119.817 324.382L94.9727 189.551L95.8672 189.69C97.2258 189.894 98.558 190.233 99.8419 190.701L122.784 315.285Z" fill="white"/>
<path d="M469.213 208.766L467.05 207.067C456.281 198.658 453.915 188.454 453.711 187.465C453.489 186.811 453.429 186.118 453.535 185.44C453.641 184.761 453.91 184.114 454.322 183.55C454.663 183.13 455.103 182.79 455.606 182.559C456.109 182.327 456.662 182.21 457.221 182.217C458.139 182.213 459.034 182.484 459.78 182.991C461.117 183.948 464.48 186.217 465.193 186.669C471.535 188.68 469.949 203.207 469.564 206.11L469.213 208.766ZM457.221 185.163C457.14 185.155 457.058 185.166 456.982 185.196C456.907 185.226 456.841 185.274 456.791 185.335C456.673 185.551 456.605 185.789 456.591 186.032C456.577 186.275 456.619 186.517 456.712 186.744V186.862C458.399 192.997 461.877 198.555 466.745 202.895C467.141 197.088 466.643 190.142 464.129 189.443C461.973 188.188 459.891 186.824 457.889 185.357C457.694 185.227 457.46 185.159 457.221 185.163Z" fill="#F0F0F0"/>
<path d="M489.007 208.766L488.656 206.11C488.271 203.207 486.697 188.68 493.027 186.669C493.74 186.26 497.092 183.959 498.44 182.991C499.186 182.484 500.081 182.213 500.999 182.217C501.558 182.21 502.111 182.326 502.615 182.558C503.118 182.789 503.557 183.129 503.898 183.551C504.312 184.113 504.583 184.76 504.689 185.439C504.795 186.118 504.734 186.812 504.509 187.465C504.305 188.454 501.939 198.658 491.181 207.067L489.007 208.766ZM500.331 185.357C498.333 186.824 496.254 188.188 494.103 189.443C491.589 190.142 491.079 197.089 491.487 202.895C496.354 198.556 499.828 192.998 501.508 186.862V186.744C501.603 186.518 501.645 186.276 501.633 186.033C501.622 185.79 501.556 185.552 501.44 185.336C501.387 185.275 501.318 185.229 501.242 185.199C501.165 185.169 501.082 185.157 500.999 185.163C500.749 185.156 500.504 185.224 500.297 185.357H500.331Z" fill="#F0F0F0"/>
<path d="M479.099 222.874C471.172 222.874 464.819 197.927 464.819 190.432V182.723H493.378V190.432C493.378 197.927 486.98 222.874 479.099 222.874Z" fill="#F5F5F5"/>
<path d="M481.522 221.648H476.891V243.337H481.522V221.648Z" fill="#F5F5F5"/>
<path d="M491.306 254.725H466.654L464.695 247.896H493.253L491.306 254.725Z" fill="#E6E6E6"/>
<path d="M481.612 236.907L476.868 236.971L474.558 240.778H483.809L481.612 236.907Z" fill="#F0F0F0"/>
<path d="M483.039 239.144H475.305L471.806 243.52H486.629L483.039 239.144Z" fill="#EBEBEB"/>
<path d="M471.874 242.928H486.516L493.253 247.896H464.695L471.874 242.928Z" fill="#F5F5F5"/>
<path d="M476.868 225.24L481.613 225.175L483.787 220.39H474.547L476.868 225.24Z" fill="#F0F0F0"/>
<path d="M498.508 260.994H428.663V344.383H498.508V260.994Z" fill="#E0E0E0"/>
<path d="M509.175 254.789H500.399V355.201H509.175V254.789Z" fill="#E6E6E6"/>
<path d="M445.501 267.564H439.782V298.726H445.501V267.564Z" fill="#FAFAFA"/>
<path d="M469.236 267.564H463.517V298.726H469.236V267.564Z" fill="#F5F5F5"/>
<path d="M451.231 269.747H445.512V298.715H451.231V269.747Z" fill="#F5F5F5"/>
<path d="M463.517 269.747H457.799V298.715H463.517V269.747Z" fill="#FAFAFA"/>
<path d="M457.799 267.564H454.096V298.726H457.799V267.564Z" fill="#EBEBEB"/>
<path d="M454.096 269.747H451.231V298.715H454.096V269.747Z" fill="#FAFAFA"/>
<path d="M474.954 267.564H469.235V298.726H474.954V267.564Z" fill="#EBEBEB"/>
<path d="M480.684 269.747H474.965V298.715H480.684V269.747Z" fill="#E6E6E6"/>
<path d="M492.97 269.747H487.252V298.715H492.97V269.747Z" fill="#E6E6E6"/>
<path d="M487.252 267.564H483.549V298.726H487.252V267.564Z" fill="#FAFAFA"/>
<path d="M483.549 269.747H480.684V298.715H483.549V269.747Z" fill="#EBEBEB"/>
<path d="M495.835 268.295H492.97V298.715H495.835V268.295Z" fill="#FAFAFA"/>
<path d="M490.117 340.49H495.835V309.328H490.117V340.49Z" fill="#FAFAFA"/>
<path d="M466.382 340.49H472.101V309.328H466.382V340.49Z" fill="#FAFAFA"/>
<path d="M484.387 340.49H490.105V311.522H484.387V340.49Z" fill="#F0F0F0"/>
<path d="M472.112 340.49H477.831V311.522H472.112V340.49Z" fill="#EBEBEB"/>
<path d="M477.83 340.49H481.533V309.328H477.83V340.49Z" fill="#FAFAFA"/>
<path d="M481.522 340.49H484.387V311.522H481.522V340.49Z" fill="#F5F5F5"/>
<path d="M460.664 340.49H466.382V309.328H460.664V340.49Z" fill="#EBEBEB"/>
<path d="M454.934 340.49H460.652V311.522H454.934V340.49Z" fill="#F5F5F5"/>
<path d="M442.659 340.49H448.377V311.522H442.659V340.49Z" fill="#E6E6E6"/>
<path d="M448.377 340.49H452.08V309.328H448.377V340.49Z" fill="#FAFAFA"/>
<path d="M436.079 340.49H439.782V309.328H436.079V340.49Z" fill="#FAFAFA"/>
<path d="M452.069 340.49H454.934V311.522H452.069V340.49Z" fill="#EBEBEB"/>
<path d="M439.783 340.49H442.647V310.07H439.783V340.49Z" fill="#F0F0F0"/>
<path d="M498.168 254.789H426.455V349.577H495.824V355.211H500.512V254.789H498.168ZM495.824 340.49H430.871V303.93H495.824V340.49ZM495.824 298.758H430.871V263.886H495.824V298.758Z" fill="#E6E6E6"/>
<path d="M358.704 344.394H428.549V261.004H358.704V344.394Z" fill="#E0E0E0"/>
<path d="M361.399 355.201H370.175V348.555H361.399V355.201Z" fill="#E6E6E6"/>
<path d="M420.487 298.726H426.206V267.564H420.487V298.726Z" fill="#FAFAFA"/>
<path d="M396.74 298.726H402.459V267.564H396.74V298.726Z" fill="#F5F5F5"/>
<path d="M414.757 298.726H420.476V269.757H414.757V298.726Z" fill="#F5F5F5"/>
<path d="M402.47 298.726H408.189V269.757H402.47V298.726Z" fill="#FAFAFA"/>
<path d="M408.189 298.726H411.892V267.564H408.189V298.726Z" fill="#EBEBEB"/>
<path d="M411.892 298.726H414.757V269.757H411.892V298.726Z" fill="#FAFAFA"/>
<path d="M394.804 298.726H400.523V267.564H394.804V298.726Z" fill="#EBEBEB"/>
<path d="M389.075 298.726H394.793V269.757H389.075V298.726Z" fill="#E6E6E6"/>
<path d="M376.8 298.726H382.518V269.757H376.8V298.726Z" fill="#E6E6E6"/>
<path d="M382.507 298.726H386.209V267.564H382.507V298.726Z" fill="#FAFAFA"/>
<path d="M386.21 298.726H389.075V269.757H386.21V298.726Z" fill="#EBEBEB"/>
<path d="M373.935 298.726H376.8V268.306H373.935V298.726Z" fill="#F5F5F5"/>
<path d="M376.958 309.328H371.239V340.491H376.958V309.328Z" fill="#FAFAFA"/>
<path d="M400.693 309.328H394.974V340.491H400.693V309.328Z" fill="#FAFAFA"/>
<path d="M382.677 311.522H376.958V340.491H382.677V311.522Z" fill="#F5F5F5"/>
<path d="M394.963 311.522H389.244V340.491H394.963V311.522Z" fill="#EBEBEB"/>
<path d="M389.256 309.328H385.553V340.491H389.256V309.328Z" fill="#FAFAFA"/>
<path d="M385.553 311.522H382.688V340.491H385.553V311.522Z" fill="#F5F5F5"/>
<path d="M402.64 309.328H396.922V340.491H402.64V309.328Z" fill="#EBEBEB"/>
<path d="M408.359 311.522H402.641V340.491H408.359V311.522Z" fill="#F5F5F5"/>
<path d="M420.645 311.522H414.927V340.491H420.645V311.522Z" fill="#E6E6E6"/>
<path d="M414.927 309.328H411.224V340.491H414.927V309.328Z" fill="#FAFAFA"/>
<path d="M426.466 309.328H422.763V340.491H426.466V309.328Z" fill="#FAFAFA"/>
<path d="M411.235 311.522H408.37V340.491H411.235V311.522Z" fill="#EBEBEB"/>
<path d="M423.51 310.07H420.645V340.491H423.51V310.07Z" fill="#EBEBEB"/>
<path d="M356.7 254.789V355.211H361.388V349.577H430.757V254.789H356.7ZM361.388 303.952H426.341V340.512H361.399L361.388 303.952ZM361.388 263.886H426.341V298.758H361.399L361.388 263.886Z" fill="#E6E6E6"/>
<path d="M285.36 98.8707L313.783 14.7285L313.432 103.097L367.854 31.4064L338.763 115.344L413.84 63.1385L358.863 134.431L447.256 106.806L371.761 158.485L464.82 158.152L376.211 185.142L464.82 212.132L371.761 211.799L447.256 263.478L358.863 235.853L413.84 307.145L338.763 254.94L367.854 338.878L313.432 267.187L313.783 355.555L285.36 271.413L256.937 355.555L257.288 267.187L202.866 338.878L231.957 254.94L156.88 307.145L211.857 235.853L123.464 263.478L198.959 211.799L105.9 212.132L194.509 185.142L105.9 158.152L198.959 158.485L123.464 106.806L211.857 134.431L156.88 63.1385L231.957 115.344L202.866 31.4064L257.288 103.097L256.937 14.7285L285.36 98.8707Z" fill="#F5F5F5"/>
<path d="M304.531 149.528C300.466 147.033 298.869 141.184 298.427 135.044C298.16 130.377 298.36 125.696 299.028 121.065C299.152 119.882 299.333 118.742 299.548 117.667C299.729 116.58 299.971 115.503 300.273 114.441L263.346 99.9675C267.4 105.774 270.492 124.366 269.631 130.345C268.691 137.055 268.408 146.474 264.739 148.904L304.531 149.528Z" fill="#407BFF"/>
<g opacity="0.7">
<path opacity="0.7" d="M304.531 149.528C300.466 147.033 298.869 141.184 298.427 135.044C298.16 130.377 298.36 125.696 299.028 121.065C299.152 119.882 299.333 118.742 299.548 117.667C299.729 116.58 299.971 115.503 300.273 114.441L263.346 99.9675C267.4 105.774 270.492 124.366 269.631 130.345C268.691 137.055 268.408 146.474 264.739 148.904L304.531 149.528Z" fill="white"/>
</g>
<path d="M264.739 148.904C256.813 154.281 260.21 162.733 266.653 169.636C269.132 172.283 271.799 174.766 274.636 177.067C286.979 187.099 306.343 182.841 312.107 168.41C314.632 162.012 313.76 155.152 304.531 149.539L264.739 148.904Z" fill="#FFB573"/>
<path opacity="0.2" d="M298.427 135.044C298.159 130.377 298.36 125.696 299.027 121.065C299.152 119.882 299.333 118.742 299.548 117.667L271.001 112.462C276.991 118.097 285.36 129.624 298.427 135.044Z" fill="black"/>
<path d="M336.091 72.171C335.185 77.9991 326.771 87.4725 327.179 86.9026C327.518 86.2847 327.637 85.5793 327.518 84.8918C327.334 82.2677 326.655 79.6964 325.514 77.3002C324.801 80.5261 323.714 87.2897 320.328 87.3434C318.98 84.9348 317.327 82.7412 317.565 80.0099C316.784 82.8057 316.059 85.623 315.3 88.4187C308.732 84.5799 304.576 75.7195 305.947 68.3214C306.242 66.5271 306.9 64.8038 307.883 63.246C309.1 61.5458 310.577 60.0273 312.265 58.7405C316.557 55.1705 318.301 53.5145 323.94 53.5145C336.249 53.5145 336.996 66.3428 336.091 72.171Z" fill="#407BFF"/>
<path opacity="0.3" d="M336.091 72.171C335.185 77.9991 326.771 87.4725 327.179 86.9026C327.518 86.2847 327.637 85.5793 327.518 84.8918C327.334 82.2677 326.655 79.6964 325.514 77.3002C324.801 80.5261 323.714 87.2897 320.328 87.3434C318.98 84.9348 317.327 82.7412 317.565 80.0099C316.784 82.8057 316.059 85.623 315.3 88.4187C308.732 84.5799 304.576 75.7195 305.947 68.3214C306.242 66.5271 306.9 64.8038 307.883 63.246C309.1 61.5458 310.577 60.0273 312.265 58.7405C316.557 55.1705 318.301 53.5145 323.94 53.5145C336.249 53.5145 336.996 66.3428 336.091 72.171Z" fill="black"/>
<path d="M329.715 100.709C325.129 124.441 295.211 136.958 275.462 119.957C264.059 110.161 262.248 98.4512 260.164 80.2572C259.836 77.4937 259.507 74.5903 259.145 71.5042C258.534 66.6998 259.052 61.8264 260.662 57.235C261.323 55.3245 262.188 53.4834 263.244 51.7402C267.106 45.1449 273.281 40.044 280.694 37.3249C288.107 34.6058 296.289 34.4406 303.817 36.8581C328.571 44.7723 333.871 79.3539 329.715 100.709Z" fill="#407BFF"/>
<path opacity="0.7" d="M329.715 100.709C325.129 124.441 295.211 136.958 275.462 119.957C264.059 110.161 262.248 98.4512 260.164 80.2572C259.836 77.4937 259.507 74.5903 259.145 71.5042C258.534 66.6998 259.052 61.8264 260.662 57.235C261.323 55.3245 262.188 53.4834 263.244 51.7402C267.106 45.1449 273.281 40.044 280.694 37.3249C288.107 34.6058 296.289 34.4406 303.817 36.8581C328.571 44.7723 333.871 79.3539 329.715 100.709Z" fill="white"/>
<path d="M298.824 72.2032C300.137 72.1172 301.281 73.6226 301.383 75.5259C301.485 77.4292 300.692 79.0421 299.22 79.1174C297.748 79.1927 296.593 77.7088 296.48 75.784C296.367 73.8592 297.522 72.2785 298.824 72.2032Z" fill="#407BFF"/>
<path opacity="0.3" d="M298.824 72.2032C300.137 72.1172 301.281 73.6226 301.383 75.5259C301.485 77.4292 300.692 79.0421 299.22 79.1174C297.748 79.1927 296.593 77.7088 296.48 75.784C296.367 73.8592 297.522 72.2785 298.824 72.2032Z" fill="black"/>
<path d="M321.245 72.0097C322.558 71.9236 323.702 73.4076 323.815 75.3108C323.928 77.2141 322.977 78.8163 321.641 78.9023C320.305 78.9884 319.161 77.5044 319.048 75.6012C318.935 73.6979 319.942 72.0849 321.245 72.0097Z" fill="#407BFF"/>
<path opacity="0.3" d="M321.245 72.0097C322.558 71.9236 323.702 73.4076 323.815 75.3108C323.928 77.2141 322.977 78.8163 321.641 78.9023C320.305 78.9884 319.161 77.5044 319.048 75.6012C318.935 73.6979 319.942 72.0849 321.245 72.0097Z" fill="black"/>
<path d="M311.812 94.3652C315.209 94.6986 321.403 92.7415 323.86 90.4512C319.184 86.0532 313.963 81.1068 310.759 75.655L311.812 94.3652Z" fill="#407BFF"/>
<path opacity="0.5" d="M311.812 94.3652C315.209 94.6986 321.403 92.7415 323.86 90.4512C319.184 86.0532 313.963 81.1068 310.759 75.655L311.812 94.3652Z" fill="white"/>
<path d="M295.075 64.7192C296.544 64.4556 298.057 64.5236 299.493 64.9177C300.929 65.3119 302.247 66.0211 303.342 66.9881C303.405 67.0894 303.485 67.1802 303.579 67.2569C303.698 67.3536 303.835 67.4273 303.983 67.4737C304.131 67.5201 304.288 67.5383 304.443 67.5273C304.599 67.5164 304.751 67.4764 304.89 67.4097C305.029 67.343 305.153 67.2509 305.255 67.1386C305.357 67.0263 305.435 66.8961 305.484 66.7554C305.532 66.6146 305.552 66.4662 305.54 66.3184C305.529 66.1706 305.486 66.0264 305.416 65.8941C305.346 65.7618 305.249 65.6439 305.131 65.5472C303.792 64.3026 302.159 63.38 300.369 62.8563C298.578 62.3326 296.682 62.2228 294.837 62.5363C294.682 62.5516 294.531 62.5974 294.395 62.6709C294.258 62.7443 294.14 62.8438 294.046 62.9631C293.952 63.0823 293.886 63.2188 293.85 63.3637C293.815 63.5087 293.812 63.659 293.841 63.8052C293.866 64.0006 293.953 64.1842 294.09 64.3321C294.212 64.4637 294.365 64.567 294.535 64.634C294.706 64.7011 294.891 64.7303 295.075 64.7192Z" fill="#407BFF"/>
<path opacity="0.3" d="M295.075 64.7192C296.544 64.4556 298.057 64.5236 299.493 64.9177C300.929 65.3119 302.247 66.0211 303.342 66.9881C303.405 67.0894 303.485 67.1802 303.579 67.2569C303.698 67.3536 303.835 67.4273 303.983 67.4737C304.131 67.5201 304.288 67.5383 304.443 67.5273C304.599 67.5164 304.751 67.4764 304.89 67.4097C305.029 67.343 305.153 67.2509 305.255 67.1386C305.357 67.0263 305.435 66.8961 305.484 66.7554C305.532 66.6146 305.552 66.4662 305.54 66.3184C305.529 66.1706 305.486 66.0264 305.416 65.8941C305.346 65.7618 305.249 65.6439 305.131 65.5472C303.792 64.3026 302.159 63.38 300.369 62.8563C298.578 62.3326 296.682 62.2228 294.837 62.5363C294.682 62.5516 294.531 62.5974 294.395 62.6709C294.258 62.7443 294.14 62.8438 294.046 62.9631C293.952 63.0823 293.886 63.2188 293.85 63.3637C293.815 63.5087 293.812 63.659 293.841 63.8052C293.866 64.0006 293.953 64.1842 294.09 64.3321C294.212 64.4637 294.365 64.567 294.535 64.634C294.706 64.7011 294.891 64.7303 295.075 64.7192Z" fill="black"/>
<path d="M329.432 62.4395C329.415 62.1485 329.281 61.8749 329.057 61.6749C328.834 61.4749 328.539 61.3637 328.232 61.3642C326.362 61.3188 324.508 61.705 322.829 62.4898C321.151 63.2745 319.698 64.4344 318.595 65.8697C318.51 65.9902 318.452 66.1258 318.423 66.2683C318.395 66.4108 318.397 66.5572 318.43 66.6989C318.463 66.8405 318.526 66.9744 318.614 67.0925C318.703 67.2105 318.816 67.3103 318.946 67.3859H319.026C319.283 67.5322 319.59 67.5759 319.881 67.5074C320.172 67.4388 320.422 67.2637 320.577 67.0203C321.475 65.9038 322.639 65.0057 323.974 64.4C325.309 63.7943 326.776 63.4983 328.254 63.5363C328.45 63.5445 328.645 63.5043 328.82 63.4194C328.995 63.3346 329.143 63.2081 329.251 63.0524C329.359 62.8635 329.421 62.6541 329.432 62.4395Z" fill="#407BFF"/>
<path opacity="0.3" d="M329.432 62.4395C329.415 62.1485 329.281 61.8749 329.057 61.6749C328.834 61.4749 328.539 61.3637 328.232 61.3642C326.362 61.3188 324.508 61.705 322.829 62.4898C321.151 63.2745 319.698 64.4344 318.595 65.8697C318.51 65.9902 318.452 66.1258 318.423 66.2683C318.395 66.4108 318.397 66.5572 318.43 66.6989C318.463 66.8405 318.526 66.9744 318.614 67.0925C318.703 67.2105 318.816 67.3103 318.946 67.3859H319.026C319.283 67.5322 319.59 67.5759 319.881 67.5074C320.172 67.4388 320.422 67.2637 320.577 67.0203C321.475 65.9038 322.639 65.0057 323.974 64.4C325.309 63.7943 326.776 63.4983 328.254 63.5363C328.45 63.5445 328.645 63.5043 328.82 63.4194C328.995 63.3346 329.143 63.2081 329.251 63.0524C329.359 62.8635 329.421 62.6541 329.432 62.4395Z" fill="black"/>
<path d="M273.209 114.871C270.185 114.327 267.331 113.135 264.864 111.387C264.864 114.538 262.599 119.99 262.599 119.99C252.045 116.688 243.348 96.6448 242.216 89.9995C236.35 100.355 236.86 94.3975 236.407 89.9995C235.75 83.666 235.58 77.0959 237.856 71.128C240.132 65.1601 245.319 59.8158 251.932 58.7836C253.162 58.6767 254.4 58.8846 255.517 59.3857C256.634 59.8868 257.59 60.6628 258.284 61.6331C259.409 63.5501 260.143 65.6514 260.447 67.8268C263.539 83.5369 263.403 101.882 273.209 114.871Z" fill="#407BFF"/>
<path opacity="0.3" d="M273.209 114.871C270.185 114.327 267.331 113.135 264.864 111.387C264.864 114.538 262.599 119.99 262.599 119.99C252.045 116.688 243.348 96.6448 242.216 89.9995C236.35 100.355 236.86 94.3975 236.407 89.9995C235.75 83.666 235.58 77.0959 237.856 71.128C240.132 65.1601 245.319 59.8158 251.932 58.7836C253.162 58.6767 254.4 58.8846 255.517 59.3857C256.634 59.8868 257.59 60.6628 258.284 61.6331C259.409 63.5501 260.143 65.6514 260.447 67.8268C263.539 83.5369 263.403 101.882 273.209 114.871Z" fill="black"/>
<path d="M258.25 78.8486C266.324 79.0206 271.25 88.6875 272.111 95.3006C273.118 102.666 267.909 108.72 260.424 105.462C257.634 104.233 255.129 102.487 253.058 100.326C250.988 98.1661 249.392 95.6349 248.365 92.8812C245.862 86.0423 250.165 78.6873 258.25 78.8486Z" fill="#407BFF"/>
<path opacity="0.7" d="M258.25 78.8486C266.324 79.0206 271.25 88.6875 272.111 95.3006C273.118 102.666 267.909 108.72 260.424 105.462C257.634 104.233 255.129 102.487 253.058 100.326C250.988 98.1661 249.392 95.6349 248.365 92.8812C245.862 86.0423 250.165 78.6873 258.25 78.8486Z" fill="white"/>
<path d="M274.421 56.2996C276.533 58.4596 278.111 61.0401 279.04 63.8528C279.968 66.6655 280.224 69.6396 279.788 72.5582C278.848 78.3863 270.163 87.8489 270.571 87.279C270.917 86.6636 271.045 85.958 270.933 85.2682C270.732 82.6382 270.026 80.0652 268.849 77.6766C268.113 80.9025 266.992 87.6661 263.493 87.7091C262.1 85.3112 260.391 83.1176 260.628 80.3756C259.824 83.1821 259.077 85.9994 258.273 88.7952C251.479 84.9456 247.176 76.0851 248.58 68.6871C248.889 66.8863 249.57 65.1615 250.584 63.6117C251.853 61.9071 253.379 60.389 255.114 59.1062C259.553 55.5362 265.43 51.9769 270.786 54.1168C271.556 54.4609 274.625 55.5254 274.421 56.2996Z" fill="#407BFF"/>
<path opacity="0.3" d="M274.421 56.2996C276.533 58.4596 278.111 61.0401 279.04 63.8528C279.968 66.6655 280.224 69.6396 279.788 72.5582C278.848 78.3863 270.163 87.8489 270.571 87.279C270.917 86.6636 271.045 85.958 270.933 85.2682C270.732 82.6382 270.026 80.0652 268.849 77.6766C268.113 80.9025 266.992 87.6661 263.493 87.7091C262.1 85.3112 260.391 83.1176 260.628 80.3756C259.824 83.1821 259.077 85.9994 258.273 88.7952C251.479 84.9456 247.176 76.0851 248.58 68.6871C248.889 66.8863 249.57 65.1615 250.584 63.6117C251.853 61.9071 253.379 60.389 255.114 59.1062C259.553 55.5362 265.43 51.9769 270.786 54.1168C271.556 54.4609 274.625 55.5254 274.421 56.2996Z" fill="black"/>
<path d="M318.199 100.881C318.199 100.881 311.28 98.2147 290.886 95.9028C292.018 102.935 296.548 105.903 306.977 106.978C317.406 108.054 318.199 100.881 318.199 100.881Z" fill="#263238"/>
<path d="M317.27 100.634C316.958 101.406 316.441 102.087 315.767 102.611C315.094 103.136 314.289 103.484 313.431 103.624C307.409 102.933 301.473 101.68 295.71 99.8815C294.734 99.6701 293.842 99.2003 293.136 98.5265C292.43 97.8526 291.941 97.0026 291.724 96.075C300.368 96.8505 308.919 98.3766 317.27 100.634Z" fill="white"/>
<path d="M313.024 103.043C307.885 101.059 302.453 99.8441 296.921 99.4406C295.371 99.6009 293.895 100.158 292.652 101.054C294.917 104.537 299.447 106.269 306.886 107.064C309.687 107.535 312.572 107.035 315.017 105.656C314.479 104.704 313.809 103.825 313.024 103.043Z" fill="white"/>
<path d="M331.504 147.281C330.63 155.078 327.559 162.507 322.615 168.787C322.252 169.249 321.879 169.711 321.482 170.163C310.476 183.4 290.693 187.508 274.239 180.55C269.038 178.41 264.044 175.841 259.315 172.873C249.984 166.916 241.933 158.636 238.139 148.915L267.071 145.377L286.854 142.958L300.375 144.27L331.504 147.281Z" fill="#FFB573"/>
<path d="M188.45 164.894C187.318 245.542 124.641 315.436 118.175 395.901H429.251C398.328 332.995 378.95 265.536 371.953 196.433L367.14 148.904H207.939C207.939 148.904 188.564 157.001 188.45 164.894Z" fill="#407BFF"/>
<path opacity="0.6" d="M188.45 164.894C187.318 245.542 124.641 315.436 118.175 395.901H429.251C398.328 332.995 378.95 265.536 371.953 196.433L367.14 148.904H207.939C207.939 148.904 188.564 157.001 188.45 164.894Z" fill="white"/>
<path opacity="0.2" d="M156.88 395.793C156.88 395.793 155.068 312.748 184.057 226.831C213.046 140.915 176.651 252.595 182.313 352.136C183.921 380.836 191.836 396.223 191.836 396.223L156.88 395.793Z" fill="white"/>
<path opacity="0.2" d="M400.704 396.223C400.704 396.223 362.701 312.533 355.873 202.067C355.873 202.067 346.565 299.823 378.679 395.901L400.704 396.223Z" fill="white"/>
<path d="M390.546 135.12C390.7 135.048 390.859 134.986 391.022 134.936L390.841 135.012L390.546 135.12Z" fill="#407BFF"/>
<path d="M393.049 134.237L392.245 134.517L391.588 134.743H391.486L391.022 134.904C391.667 134.689 392.347 134.463 393.049 134.237Z" fill="#407BFF"/>
<path d="M474.264 138.517C474.264 168.023 418.505 186.594 393.627 193.357C370.028 200.884 355.873 202.013 355.873 202.013C355.001 194.217 337.2 148.463 337.2 148.463C337.2 148.463 347.845 144.162 355.477 144.807H355.669C364.602 145.477 373.537 143.534 381.272 139.237C384.085 137.695 387.015 136.355 390.037 135.227L390.547 135.044L390.841 134.936L391.487 134.7H391.588L392.245 134.474L393.049 134.194L393.989 133.904L394.272 133.818L394.567 133.732L394.782 133.678H394.861C397.062 133.073 399.296 132.585 401.553 132.216C408.175 130.989 415.035 131.741 421.189 134.366C422.358 134.91 423.652 135.169 424.953 135.118C426.254 135.068 427.521 134.709 428.64 134.076C429.772 133.388 430.259 132.646 429.172 132.065L376.245 74.5796L392.381 66.16C392.381 66.16 474.264 107.247 474.264 138.517Z" fill="#407BFF"/>
<path d="M474.264 138.517C474.264 168.023 418.505 186.594 393.627 193.357C370.028 200.884 355.873 202.013 355.873 202.013C355.001 194.217 337.2 148.463 337.2 148.463C337.2 148.463 347.845 144.162 355.477 144.807H355.669C364.602 145.477 373.537 143.534 381.272 139.237C384.085 137.695 387.015 136.355 390.037 135.227L390.547 135.044L390.841 134.936L391.487 134.7H391.588L392.245 134.474L393.049 134.194L393.989 133.904L394.272 133.818L394.567 133.732L394.782 133.678H394.861C397.062 133.073 399.296 132.585 401.553 132.216C408.175 130.989 415.035 131.741 421.189 134.366C422.358 134.91 423.652 135.169 424.953 135.118C426.254 135.068 427.521 134.709 428.64 134.076C429.772 133.388 430.259 132.646 429.172 132.065L376.245 74.5796L392.381 66.16C392.381 66.16 474.264 107.247 474.264 138.517Z" fill="#407BFF"/>
<g opacity="0.3">
<path opacity="0.3" d="M474.264 138.517C474.264 168.023 418.505 186.594 393.627 193.357C370.028 200.884 355.873 202.013 355.873 202.013C355.001 194.217 337.2 148.463 337.2 148.463C337.2 148.463 347.845 144.162 355.477 144.807H355.669C364.602 145.477 373.537 143.534 381.272 139.237C384.085 137.695 387.015 136.355 390.037 135.227L390.547 135.044L390.841 134.936L391.487 134.7H391.588L392.245 134.474L393.049 134.194L393.989 133.904L394.272 133.818L394.567 133.732L394.782 133.678H394.861C397.062 133.073 399.296 132.585 401.553 132.216C408.175 130.989 415.035 131.741 421.189 134.366C422.358 134.91 423.652 135.169 424.953 135.118C426.254 135.068 427.521 134.709 428.64 134.076C429.772 133.388 430.259 132.646 429.172 132.065L376.245 74.5796L392.381 66.16C392.381 66.16 474.264 107.247 474.264 138.517Z" fill="white"/>
</g>
<path d="M380.604 76.0743L358.047 67.5901L344.458 50.3854L363.981 46.267L382.439 55.3532L393.513 66.7944C394.026 67.3258 394.39 67.9711 394.572 68.671C394.754 69.3709 394.748 70.103 394.554 70.7999C394.36 71.4969 393.985 72.1364 393.462 72.6597C392.94 73.183 392.288 73.5733 391.566 73.7946L383.639 76.1925C382.643 76.486 381.571 76.4442 380.604 76.0743Z" fill="#407BFF"/>
<path opacity="0.7" d="M380.604 76.0743L358.047 67.5901L344.458 50.3854L363.981 46.267L382.439 55.3532L393.513 66.7944C394.026 67.3258 394.39 67.9711 394.572 68.671C394.754 69.3709 394.748 70.103 394.554 70.7999C394.36 71.4969 393.985 72.1364 393.462 72.6597C392.94 73.183 392.288 73.5733 391.566 73.7946L383.639 76.1925C382.643 76.486 381.571 76.4442 380.604 76.0743Z" fill="white"/>
<path opacity="0.2" d="M365.838 178.55L368.103 200.304C368.103 200.304 401.497 192.949 420.373 184.744L405.211 185.529C392.666 186.346 380.111 184.103 368.737 179.013L365.838 178.55Z" fill="black"/>
<path d="M369.835 199.798C369.507 269.037 356.111 275.575 356.745 335.168C356.745 335.168 230.496 335.652 226.216 335.759C216.024 255.563 205.64 251.886 208.381 190.303C207.056 170.077 219.138 152.291 231.289 149.98L286.877 142.958L340.348 148.334C353.937 150.184 366.223 160.356 369.835 199.798Z" fill="#407BFF"/>
<path opacity="0.3" d="M369.835 199.798C369.507 269.037 356.111 275.575 356.745 335.168C356.745 335.168 230.496 335.652 226.216 335.759C216.024 255.563 205.64 251.886 208.381 190.303C207.056 170.077 219.138 152.291 231.289 149.98L286.877 142.958L340.348 148.334C353.937 150.184 366.223 160.356 369.835 199.798Z" fill="white"/>
<path d="M278.656 64.5794C275.259 57.4824 270.729 54.0522 273.368 54.4393C280.457 55.5146 284.794 49.5897 290.002 52.9232C292.539 55.6759 289.617 60.7944 289.493 60.5148C292.097 61.6869 295.347 60.7621 297.488 58.9556C299.628 57.1491 300.375 53.9877 301.428 51.4285C302.217 54.1804 302.146 57.0907 301.224 59.8051C303.093 61.2137 306.943 58.5685 308.698 57.0308C310.452 55.2667 311.764 53.1495 312.537 50.8371C313.205 53.3103 313.726 55.8265 311.857 58.805C314.507 58.9448 317.984 58.1706 319.727 56.2889C320.639 55.3086 321.314 54.1511 321.705 52.8974C322.096 51.6437 322.194 50.324 321.992 49.0306C322.592 50.2994 322.683 55.4824 321.494 56.3534C326.024 54.9447 330.225 49.5682 329.987 45.0842C329.769 42.8346 328.983 40.668 327.696 38.7681C326.409 36.8681 324.658 35.2909 322.592 34.1699C320.565 33.0194 318.312 32.2667 316.183 31.2774C312.911 29.7505 292.12 15.0189 261.591 31.815C242.646 42.2454 246.349 62.9987 248.603 65.2568C251.4 68.0419 255.805 68.9774 259.87 68.5903C263.935 68.2032 279.539 66.4612 278.656 64.5794Z" fill="#407BFF"/>
<path opacity="0.3" d="M278.656 64.5794C275.259 57.4824 270.729 54.0522 273.368 54.4393C280.457 55.5146 284.794 49.5897 290.002 52.9232C292.539 55.6759 289.617 60.7944 289.493 60.5148C292.097 61.6869 295.347 60.7621 297.488 58.9556C299.628 57.1491 300.375 53.9877 301.428 51.4285C302.217 54.1804 302.146 57.0907 301.224 59.8051C303.093 61.2137 306.943 58.5685 308.698 57.0308C310.452 55.2667 311.764 53.1495 312.537 50.8371C313.205 53.3103 313.726 55.8265 311.857 58.805C314.507 58.9448 317.984 58.1706 319.727 56.2889C320.639 55.3086 321.314 54.1511 321.705 52.8974C322.096 51.6437 322.194 50.324 321.992 49.0306C322.592 50.2994 322.683 55.4824 321.494 56.3534C326.024 54.9447 330.225 49.5682 329.987 45.0842C329.769 42.8346 328.983 40.668 327.696 38.7681C326.409 36.8681 324.658 35.2909 322.592 34.1699C320.565 33.0194 318.312 32.2667 316.183 31.2774C312.911 29.7505 292.12 15.0189 261.591 31.815C242.646 42.2454 246.349 62.9987 248.603 65.2568C251.4 68.0419 255.805 68.9774 259.87 68.5903C263.935 68.2032 279.539 66.4612 278.656 64.5794Z" fill="black"/>
<path d="M318.199 100.881C318.199 100.881 311.28 98.2147 290.886 95.9028C292.018 102.935 296.548 105.903 306.977 106.978C317.406 108.054 318.199 100.881 318.199 100.881Z" fill="#407BFF"/>
<path opacity="0.3" d="M318.199 100.881C318.199 100.881 311.28 98.2147 290.886 95.9028C292.018 102.935 296.548 105.903 306.977 106.978C317.406 108.054 318.199 100.881 318.199 100.881Z" fill="black"/>
<path d="M317.27 100.634C316.958 101.406 316.441 102.087 315.767 102.611C315.094 103.136 314.289 103.484 313.431 103.624C307.409 102.933 301.473 101.68 295.71 99.8815C294.734 99.6701 293.842 99.2003 293.136 98.5265C292.43 97.8526 291.941 97.0026 291.724 96.075C300.368 96.8505 308.919 98.3766 317.27 100.634Z" fill="white"/>
<path d="M313.024 103.043C307.885 101.059 302.453 99.8441 296.921 99.4406C295.371 99.6009 293.895 100.158 292.652 101.054C294.917 104.537 299.447 106.269 306.886 107.064C309.687 107.535 312.572 107.035 315.017 105.656C314.479 104.704 313.809 103.825 313.024 103.043Z" fill="white"/>
<path d="M219.682 305.221C219.682 305.221 246.383 291.779 246.236 293.252C246.089 294.726 246.791 323.167 246.791 323.167L217.677 322.533L219.682 305.221Z" fill="#407BFF"/>
<path d="M246.213 293.252C246.213 293.252 270.797 294.016 270.661 296.607C270.526 299.199 267.876 320.952 267.876 320.952L246.768 323.178L246.213 293.252Z" fill="#407BFF"/>
<g opacity="0.7">
<path opacity="0.7" d="M270.638 296.607C270.503 299.21 267.864 320.941 267.864 320.941L246.757 323.167L217.643 322.533L219.647 305.221C219.647 305.221 246.349 291.779 246.202 293.252C246.213 293.252 270.797 294.07 270.638 296.607Z" fill="white"/>
</g>
<path d="M331.504 147.281C330.63 155.078 327.559 162.507 322.615 168.787C322.252 169.249 321.879 169.711 321.482 170.163C310.476 183.4 290.693 187.508 274.239 180.55C269.038 178.41 264.044 175.841 259.315 172.873C249.984 166.916 241.933 158.636 238.139 148.915L267.071 145.377L286.854 142.958L300.375 144.27L331.504 147.281Z" fill="#407BFF"/>
<path opacity="0.7" d="M331.504 147.281C330.63 155.078 327.559 162.507 322.615 168.787C322.252 169.249 321.879 169.711 321.482 170.163C310.476 183.4 290.693 187.508 274.239 180.55C269.038 178.41 264.044 175.841 259.315 172.873C249.984 166.916 241.933 158.636 238.139 148.915L267.071 145.377L286.854 142.958L300.375 144.27L331.504 147.281Z" fill="white"/>
<path opacity="0.2" d="M208.562 217.111C208.602 229.203 209.739 241.269 211.959 253.176L221.414 197.132L208.562 217.111Z" fill="black"/>
<path d="M157.31 257.66L220.554 300.091L217.655 325.049C217.655 325.049 122.738 304.328 108.369 276.209C101.654 263.09 109.218 247.047 120.904 232.208C120.909 232.19 120.909 232.172 120.904 232.154C134.798 210.573 147.424 197.744 156.948 190.164C166.288 182.946 174.4 174.405 180.999 164.84C197.396 140.399 234.221 150.302 234.221 150.302C225.83 168.948 225.74 204.411 225.74 204.411C225.74 204.411 217.507 210.304 208.516 217.111C208.426 222.863 204.745 229.907 197.634 237.864C188.292 248.359 160.503 254.337 157.31 257.66Z" fill="#407BFF"/>
<path opacity="0.3" d="M157.31 257.66L220.554 300.091L217.655 325.049C217.655 325.049 122.738 304.328 108.369 276.209C101.654 263.09 109.218 247.047 120.904 232.208C120.909 232.19 120.909 232.172 120.904 232.154C134.798 210.573 147.424 197.744 156.948 190.164C166.288 182.946 174.4 174.405 180.999 164.84C197.396 140.399 234.221 150.302 234.221 150.302C225.83 168.948 225.74 204.411 225.74 204.411C225.74 204.411 217.507 210.304 208.516 217.111C208.426 222.863 204.745 229.907 197.634 237.864C188.292 248.359 160.503 254.337 157.31 257.66Z" fill="white"/>
<path d="M205.085 143.076C225.079 158.867 247.797 171.258 272.235 179.701C272.235 172.421 269.789 157.711 265.441 148.592C264.207 146.033 262.644 143.463 260.119 141.99C257.594 140.517 253.891 140.528 252.011 142.711C244.832 137.893 233.021 137.667 226.057 142.711C220.667 140.936 213.012 138.119 207.395 139.076C201.779 140.033 194.849 147.141 195.686 152.507C200.867 150.152 206.484 148.785 212.219 148.485C210.679 146.754 212.185 148.539 205.085 143.076Z" fill="#407BFF"/>
<path opacity="0.6" d="M205.085 143.076C225.079 158.867 247.797 171.258 272.235 179.701C272.235 172.421 269.789 157.711 265.441 148.592C264.207 146.033 262.644 143.463 260.119 141.99C257.594 140.517 253.891 140.528 252.011 142.711C244.832 137.893 233.021 137.667 226.057 142.711C220.667 140.936 213.012 138.119 207.395 139.076C201.779 140.033 194.849 147.141 195.686 152.507C200.867 150.152 206.484 148.785 212.219 148.485C210.679 146.754 212.185 148.539 205.085 143.076Z" fill="white"/>
<path d="M350.392 144.915C347.146 143.52 343.623 142.798 340.059 142.798C336.496 142.798 332.973 143.52 329.726 144.915C325.287 141.829 318.459 141.173 313.873 144.13C313.152 143.311 312.258 142.643 311.251 142.169C310.243 141.695 309.142 141.425 308.019 141.377C305.754 141.302 304.304 142.786 302.753 144.324C306.014 145.883 307.679 149.356 308.834 152.646C311.782 160.981 313.038 169.771 312.537 178.55C328.164 171.303 341.424 159.141 350.392 144.915Z" fill="#407BFF"/>
<path opacity="0.6" d="M350.392 144.915C347.146 143.52 343.623 142.798 340.059 142.798C336.496 142.798 332.973 143.52 329.726 144.915C325.287 141.829 318.459 141.173 313.873 144.13C313.152 143.311 312.258 142.643 311.251 142.169C310.243 141.695 309.142 141.425 308.019 141.377C305.754 141.302 304.304 142.786 302.753 144.324C306.014 145.883 307.679 149.356 308.834 152.646C311.782 160.981 313.038 169.771 312.537 178.55C328.164 171.303 341.424 159.141 350.392 144.915Z" fill="white"/>
<path opacity="0.5" d="M347.335 228.713C347.335 245.047 322.853 274.241 292.652 274.241C262.452 274.241 237.97 245.047 237.97 228.713C237.97 212.379 262.452 199.132 292.652 199.132C322.853 199.132 347.335 212.347 347.335 228.713Z" fill="white"/>
<path d="M339.986 230.122C339.986 243.574 319.818 267.628 294.94 267.628C270.061 267.628 249.905 243.531 249.905 230.122C249.905 216.713 270.061 205.745 294.94 205.745C319.818 205.745 339.986 216.648 339.986 230.122Z" fill="#407BFF"/>
<path opacity="0.5" d="M339.986 230.122C339.986 243.574 319.818 267.628 294.94 267.628C270.061 267.628 249.905 243.531 249.905 230.122C249.905 216.713 270.061 205.745 294.94 205.745C319.818 205.745 339.986 216.648 339.986 230.122Z" fill="white"/>
<path d="M356.767 335.759H226.215V355.985H356.767V335.759Z" fill="white"/>
<path d="M226.215 355.985L213.725 395.901H360.991L356.779 355.985H226.215Z" fill="#407BFF"/>
<path opacity="0.2" d="M226.215 355.985L213.725 395.901H360.991L356.779 355.985H226.215Z" fill="white"/>
<path d="M322.977 334.469H283.944V356.631H322.977V334.469Z" fill="#263238"/>
<path opacity="0.7" d="M322.977 334.469H283.944V356.631H322.977V334.469Z" fill="white"/>
<path opacity="0.7" d="M300.285 334.469L288.791 356.631H297.307L309.163 334.469H300.285Z" fill="white"/>
<path opacity="0.7" d="M312.809 334.469L301.315 356.631H307.396L319.252 334.469H312.809Z" fill="white"/>
<path opacity="0.2" d="M336.09 72.1172C335.615 75.1603 333.112 79.1819 330.87 82.2572C331.234 88.411 330.854 94.5841 329.738 100.656C328.379 107.807 324.573 114.332 318.909 119.218C313.246 124.104 306.042 127.078 298.416 127.678C298.275 130.113 298.275 132.554 298.416 134.99C298.575 138.141 299.232 141.251 300.364 144.216L331.47 147.227C330.596 155.024 327.525 162.453 322.581 168.733C322.219 169.195 321.845 169.658 321.449 170.109C310.442 183.346 290.659 187.454 274.206 180.497C269.016 178.355 264.033 175.786 259.315 172.819C249.984 166.862 241.933 158.582 238.139 148.861L267.072 145.324C268.566 141.302 268.906 135.108 269.586 130.269C270.061 126.968 269.336 119.828 267.91 113.129C266.824 112.617 265.789 112.012 264.818 111.323C264.818 114.473 262.553 119.925 262.553 119.925C252 116.624 243.303 96.5802 242.171 89.9349C236.294 100.29 236.814 94.3329 236.361 89.9349C235.705 83.6014 235.535 77.0313 237.811 71.0634C239.435 66.6253 242.639 62.8642 246.87 60.4287C245.738 53.1381 247.3 39.5786 261.455 31.7827C292.029 14.9865 312.774 29.7181 316.047 31.245C318.176 32.2343 320.418 32.987 322.456 34.1376C324.522 35.2585 326.272 36.8358 327.56 38.7357C328.847 40.6356 329.633 42.8022 329.851 45.0519C329.998 47.9767 328.277 51.2671 325.808 53.6005C336.317 54.8801 336.951 66.6224 336.09 72.1172Z" fill="white"/>
<path opacity="0.2" d="M314.36 52.0521L313.975 51.4392C314.117 50.642 314.117 49.8278 313.975 49.0305C314.272 50.0118 314.402 51.0319 314.36 52.0521Z" fill="white"/>
<path d="M228.899 363.771C225.715 364.755 222.466 365.538 219.172 366.115C218.663 366.201 218.164 366.287 217.677 366.351C216.081 366.577 214.586 366.717 213.148 366.782C191.236 367.857 190.67 350.48 190.127 341.63C189.587 329.796 189.897 317.94 191.055 306.145C192.573 289.726 195.449 272.671 199.627 259.908C205.674 241.498 215.481 239.477 223.804 239.337C225.412 239.337 226.986 239.337 228.458 239.337C228.458 239.337 227.393 244.552 226.884 249.585L223.577 271.886L218.98 302.833L218.266 307.662V307.93L215.775 324.684L215.198 328.544C214.937 331.114 214.745 334.738 217.7 336.802C218.117 337.108 218.573 337.361 219.059 337.555C220.984 338.372 223.826 338.705 227.959 338.243L228.378 349.233L228.458 351.211L228.594 354.631L228.82 360.846L228.899 363.771Z" fill="#FFB573"/>
<path d="M179.086 299.876C185.359 306.683 190.41 305.855 199.084 307.145C207.758 308.436 215.232 307.984 223.996 307.221C225.774 284.07 228.775 260.983 228.526 237.853C221.414 238.359 213.805 238.079 207.973 241.434C200.205 245.918 199.684 257.434 194.452 265.553C188.27 275.145 180.343 283.005 172.496 290.769C175.349 295.5 175.519 295.952 179.086 299.876Z" fill="#407BFF"/>
<g opacity="0.6">
<path opacity="0.6" d="M179.086 299.876C185.359 306.683 190.41 305.855 199.084 307.145C207.758 308.436 215.232 307.984 223.996 307.221C225.774 284.07 228.775 260.983 228.526 237.853C221.414 238.359 213.805 238.079 207.973 241.434C200.205 245.918 199.684 257.434 194.452 265.553C188.27 275.145 180.343 283.005 172.496 290.769C175.349 295.5 175.519 295.952 179.086 299.876Z" fill="black"/>
</g>
<path opacity="0.2" d="M223.577 271.876L211.483 307.963H226.748L223.577 271.876Z" fill="black"/>
<path d="M340.416 313.017C339.023 318.931 337.359 324.727 335.66 332.114C335.298 333.695 334.924 335.34 334.528 337.103C334.018 339.555 333.509 342.157 333.022 344.996C332.478 348.222 331.946 351.663 331.436 355.491C330.983 358.803 330.564 362.373 330.168 366.244C329.998 367.932 329.817 369.674 329.659 371.502C329.342 375.061 329.036 378.857 328.764 382.911C328.492 386.965 328.243 391.46 328.017 396.169C324.325 396.083 215.22 396.169 215.22 396.169C215.832 389.277 216.353 382.793 216.851 376.534C217.111 373.061 217.372 369.663 217.587 366.308V366.233C217.666 365.158 217.734 364.19 217.791 363.179C217.961 360.62 218.108 358.093 218.244 355.577C218.572 349.555 218.821 343.598 218.98 337.523C218.98 337.265 218.98 337.006 218.98 336.748C219.07 333.006 219.127 329.221 219.15 325.329C219.15 319.737 219.15 313.963 219.025 307.898C219.025 307.791 219.025 307.683 219.025 307.576C219.025 306.006 218.968 304.414 218.923 302.801C218.787 297.855 218.606 292.693 218.357 287.263C218.051 280.489 217.655 273.284 217.157 265.607C216.568 256.52 217.247 244.445 223.736 239.316C224.378 238.803 225.081 238.362 225.831 238.004C226.944 237.468 228.141 237.105 229.375 236.928L263.629 231.864L275.576 230.1L293.173 233.326L331.787 240.531C332.25 240.615 332.707 240.723 333.158 240.853C335.653 241.546 337.841 242.996 339.386 244.982C343.372 250.047 344.198 258.961 343.406 270.962C344.391 291.704 342.862 302.543 340.416 313.017Z" fill="#407BFF"/>
<path opacity="0.6" d="M340.416 313.017C339.023 318.931 337.359 324.727 335.66 332.114C335.298 333.695 334.924 335.34 334.528 337.103C334.018 339.555 333.509 342.157 333.022 344.996C332.478 348.222 331.946 351.663 331.436 355.491C330.983 358.803 330.564 362.373 330.168 366.244C329.998 367.932 329.817 369.674 329.659 371.502C329.342 375.061 329.036 378.857 328.764 382.911C328.492 386.965 328.243 391.46 328.017 396.169C324.325 396.083 215.22 396.169 215.22 396.169C215.832 389.277 216.353 382.793 216.851 376.534C217.111 373.061 217.372 369.663 217.587 366.308V366.233C217.666 365.158 217.734 364.19 217.791 363.179C217.961 360.62 218.108 358.093 218.244 355.577C218.572 349.555 218.821 343.598 218.98 337.523C218.98 337.265 218.98 337.006 218.98 336.748C219.07 333.006 219.127 329.221 219.15 325.329C219.15 319.737 219.15 313.963 219.025 307.898C219.025 307.791 219.025 307.683 219.025 307.576C219.025 306.006 218.968 304.414 218.923 302.801C218.787 297.855 218.606 292.693 218.357 287.263C218.051 280.489 217.655 273.284 217.157 265.607C216.568 256.52 217.247 244.445 223.736 239.316C224.378 238.803 225.081 238.362 225.831 238.004C226.944 237.468 228.141 237.105 229.375 236.928L263.629 231.864L275.576 230.1L293.173 233.326L331.787 240.531C332.25 240.615 332.707 240.723 333.158 240.853C335.653 241.546 337.841 242.996 339.386 244.982C343.372 250.047 344.198 258.961 343.406 270.962C344.391 291.704 342.862 302.543 340.416 313.017Z" fill="black"/>
<path d="M294.77 235.262C301.633 239.907 298.722 247.208 293.128 253.176C281.476 265.596 269.348 269.456 269.348 269.456C269.167 269.381 239.08 248.735 260.289 235.821C263.8 233.67 265.17 228.605 265.555 223.304C265.788 219.255 265.618 215.194 265.045 211.175C264.943 210.164 264.774 209.175 264.592 208.239C264.411 207.304 264.207 206.358 263.97 205.487L295.982 192.992C292.472 198.002 289.799 214.067 290.547 219.24C291.362 225.025 291.6 233.122 294.77 235.262Z" fill="#FFB573"/>
<path opacity="0.2" d="M265.656 223.304C265.89 219.255 265.719 215.194 265.147 211.175C265.045 210.164 264.875 209.175 264.694 208.239L289.368 203.745C284.227 208.659 276.935 218.616 265.656 223.304Z" fill="black"/>
<path d="M232.217 170.238C233.021 175.271 240.529 183.454 240.144 182.959C239.844 182.43 239.736 181.821 239.838 181.228C240.01 178.952 240.62 176.725 241.639 174.658C242.262 177.475 243.236 183.26 246.259 183.335C247.459 181.26 248.943 179.368 248.739 177.002C249.441 179.421 250.075 181.852 250.766 184.271C253.755 182.431 256.131 179.821 257.615 176.745C259.099 173.67 259.63 170.256 259.145 166.905C258.88 165.346 258.295 163.852 257.424 162.507C256.342 161.023 255.033 159.7 253.54 158.582C249.713 155.496 244.832 152.969 239.952 154.281C230.734 156.776 231.413 165.206 232.217 170.238Z" fill="#263238"/>
<path d="M238.626 193.626C242.59 214.132 268.442 224.95 285.507 210.261C295.359 201.798 296.933 191.701 298.722 175.959C299.005 173.572 299.288 171.066 299.617 168.432C300.139 164.282 299.686 160.073 298.292 156.109C297.716 154.453 296.957 152.86 296.027 151.356C292.693 145.642 287.353 141.221 280.938 138.863C274.523 136.505 267.439 136.36 260.923 138.452C239.612 145.291 235.037 175.174 238.626 193.626Z" fill="#FFB573"/>
<path d="M259.598 164.539C259.44 164.485 259.302 164.388 259.202 164.26C259.044 164.057 258.977 163.803 259.015 163.553C259.053 163.303 259.194 163.078 259.406 162.926C260.677 162.003 262.167 161.387 263.745 161.132C265.323 160.877 266.943 160.991 268.465 161.464C268.586 161.511 268.696 161.581 268.789 161.668C268.882 161.756 268.956 161.86 269.007 161.975C269.057 162.09 269.083 162.213 269.084 162.338C269.084 162.462 269.058 162.585 269.008 162.701C268.905 162.937 268.709 163.125 268.461 163.226C268.214 163.326 267.934 163.331 267.683 163.238C266.477 162.862 265.192 162.773 263.94 162.977C262.689 163.181 261.509 163.673 260.504 164.41C260.378 164.504 260.228 164.566 260.069 164.588C259.91 164.611 259.748 164.594 259.598 164.539Z" fill="#263238"/>
<path d="M248.66 165.98C248.552 165.86 248.416 165.765 248.262 165.703C248.109 165.641 247.943 165.615 247.776 165.625C246.481 165.78 245.165 165.648 243.933 165.237C242.701 164.826 241.586 164.15 240.676 163.26C240.5 163.063 240.25 162.939 239.979 162.915C239.708 162.891 239.438 162.968 239.227 163.131C239.025 163.296 238.896 163.527 238.867 163.778C238.837 164.03 238.909 164.283 239.068 164.486C240.189 165.626 241.58 166.496 243.127 167.021C244.673 167.547 246.329 167.713 247.957 167.507C248.095 167.498 248.228 167.462 248.351 167.403C248.473 167.343 248.581 167.26 248.669 167.16C248.757 167.059 248.822 166.943 248.862 166.818C248.901 166.693 248.913 166.562 248.897 166.432C248.857 166.265 248.775 166.111 248.66 165.98Z" fill="#263238"/>
<path d="M252.521 187.669C249.416 187.697 246.395 186.714 243.96 184.884C247.278 181.755 250.992 178.239 253.268 174.357L252.521 187.669Z" fill="#ED893E"/>
<path d="M244.798 175.529C243.951 175.465 243.125 175.242 242.369 174.873C241.612 174.504 240.941 173.996 240.393 173.378C240.342 173.327 240.302 173.266 240.275 173.2C240.249 173.134 240.236 173.063 240.238 172.992C240.24 172.921 240.257 172.851 240.287 172.787C240.318 172.722 240.362 172.663 240.416 172.615C240.47 172.566 240.534 172.528 240.604 172.503C240.674 172.477 240.748 172.465 240.823 172.467C240.897 172.469 240.971 172.485 241.039 172.514C241.107 172.543 241.169 172.585 241.22 172.636C242.477 173.894 244.447 175.142 246.667 173.905C246.796 173.833 246.95 173.812 247.096 173.846C247.242 173.88 247.368 173.967 247.448 174.088C247.523 174.212 247.543 174.36 247.505 174.498C247.467 174.637 247.373 174.756 247.244 174.83C246.51 175.267 245.665 175.509 244.798 175.529Z" fill="#263238"/>
<path d="M264.501 192.637C262.906 193.798 261.083 194.645 259.138 195.127C257.193 195.609 255.167 195.717 253.177 195.443C253.042 195.43 252.918 195.368 252.829 195.27C252.741 195.172 252.695 195.045 252.702 194.916C252.705 194.856 252.72 194.796 252.747 194.741C252.775 194.686 252.813 194.636 252.86 194.596C252.908 194.555 252.963 194.523 253.023 194.502C253.083 194.482 253.147 194.473 253.211 194.475C255.38 194.766 257.591 194.58 259.672 193.931C261.753 193.282 263.649 192.188 265.215 190.733C265.307 190.649 265.431 190.601 265.56 190.601C265.689 190.601 265.813 190.649 265.905 190.733C265.994 190.828 266.044 190.951 266.044 191.078C266.044 191.204 265.994 191.327 265.905 191.422C265.483 191.859 265.015 192.264 264.501 192.637Z" fill="#263238"/>
<path d="M287.455 205.895C290.069 205.431 292.536 204.405 294.668 202.895C294.668 205.616 296.593 210.282 296.593 210.282C305.709 207.433 313.216 190.11 314.224 184.368C319.297 193.314 318.855 188.174 319.252 184.368C319.818 178.894 319.954 173.228 317.995 168.066C316.036 162.905 311.54 158.292 305.833 157.399C304.77 157.304 303.7 157.481 302.734 157.913C301.768 158.344 300.942 159.013 300.341 159.851C299.365 161.515 298.727 163.339 298.461 165.227C295.812 178.787 295.925 194.648 287.455 205.895Z" fill="#263238"/>
<path d="M300.386 174.712C293.411 174.851 289.142 183.206 288.406 188.927C287.534 195.282 292.041 200.519 298.507 197.701C300.917 196.639 303.081 195.13 304.87 193.263C306.658 191.396 308.037 189.209 308.924 186.83C311.076 180.948 307.362 174.593 300.386 174.712Z" fill="#FFB573"/>
<path opacity="0.2" d="M319.739 280.231C319.739 280.231 311.269 316.63 317.146 338.598C323.023 360.566 334.754 371.642 334.754 371.642L336.849 280.241L319.739 280.231Z" fill="black"/>
<path opacity="0.2" d="M334.754 371.642C333.089 372.02 331.349 371.983 329.704 371.534C329.387 375.094 329.081 378.889 328.809 382.943C322.072 386.373 292.03 376.298 265.679 366.244C259.87 364.029 254.242 361.803 249.09 359.728C247.255 359.007 245.5 358.287 243.813 357.577C240.314 356.158 237.12 354.835 234.335 353.674C232.07 352.738 230.077 351.899 228.424 351.19C224.97 349.738 222.988 348.878 222.988 348.878L228.344 349.211L270.639 351.813L281.566 352.491L283.763 352.609L297.295 353.437L306.535 353.996H307.011L315.979 354.545L323.283 354.986L331.436 355.48L334.709 355.684C334.709 355.684 334.89 357.835 334.947 361.437V361.566C335.026 364.244 334.992 367.674 334.754 371.642Z" fill="black"/>
<path d="M352.17 313.156C350.494 329.974 348.025 346.587 345.987 357.491C344.572 365.083 340.053 370.395 334.754 371.663C333.089 372.041 331.349 372.004 329.704 371.556C329.454 371.491 329.217 371.416 328.968 371.33L288.428 361.405L288.077 361.308L283.74 360.233L283.808 352.598V351.985V348.964L283.899 339.426L289.379 339.705L316.16 341.06C316.702 341.205 317.272 341.227 317.825 341.125C320.146 340.706 322.071 338.125 322.354 334.727L322.875 327.35L324.008 311.081L326.193 280.209L328.197 251.628C328.42 248.544 328.932 245.485 329.726 242.488C333.132 242.625 336.459 243.512 339.442 245.079C345.749 248.305 352.6 255.155 353.71 269.198C354.639 280.854 353.778 297.091 352.17 313.156Z" fill="#FFB573"/>
<path d="M303.535 364.168L244.039 353.265C242.418 352.78 240.697 352.674 239.023 352.953L222.264 355.684C220.464 355.981 218.614 355.834 216.891 355.258C215.169 354.682 213.63 353.696 212.423 352.394L204.497 343.856C203.541 342.83 202.813 341.632 202.356 340.333C201.899 339.033 201.723 337.66 201.838 336.295C201.954 334.929 202.358 333.6 203.027 332.387C203.695 331.173 204.615 330.1 205.731 329.232L208.573 327.017C210.419 325.576 212.72 324.764 215.109 324.71C217.498 324.655 219.837 325.361 221.754 326.716C223.69 328.084 226.057 328.789 228.469 328.716H229.454C231.693 328.65 233.897 329.253 235.756 330.439C237.614 331.625 239.034 333.336 239.815 335.329L240.744 337.684L289.244 339.447L303.535 364.168Z" fill="#FFB573"/>
<path opacity="0.1" d="M232.218 339.028C235.06 338.501 237.879 338.071 240.733 337.63L239.816 335.307C239.035 333.314 237.615 331.604 235.756 330.417C233.897 329.231 231.693 328.628 229.455 328.694H228.469C226.057 328.767 223.69 328.062 221.754 326.694C219.837 325.34 217.498 324.634 215.109 324.688C212.72 324.743 210.42 325.555 208.573 326.995L205.731 329.211C203.892 330.645 202.607 332.619 202.078 334.822C201.55 337.026 201.807 339.333 202.81 341.383C208.234 341.867 227.699 339.867 232.218 339.028Z" fill="black"/>
<path opacity="0.2" d="M322.185 352.588C320.189 353.392 318.134 354.057 316.036 354.577C312.084 355.652 306.637 357.007 300.284 358.513C296.502 359.405 292.358 360.341 288.1 361.308C280.989 362.921 273.379 364.609 265.747 366.255C245.828 370.556 226.114 374.674 216.964 376.578C217.224 373.104 217.485 369.706 217.7 366.351C216.103 366.577 214.609 366.717 213.17 366.782V366.524L213.521 364.147L217.824 363.222L228.775 360.857L243.801 357.631L254.808 355.254L270.661 351.824L283.82 348.985L293.524 346.889L300.817 345.319C300.817 345.319 314.099 346.63 320.486 348.749C323.861 349.824 325.276 351.125 322.185 352.588Z" fill="black"/>
<path d="M197.215 337.189L288.519 335.587C290.21 335.451 291.843 334.939 293.286 334.092L307.758 325.587C309.309 324.672 311.081 324.15 312.905 324.071C314.729 323.992 316.544 324.358 318.176 325.135L328.889 330.221C330.175 330.834 331.319 331.686 332.252 332.727C333.185 333.768 333.888 334.976 334.32 336.28C334.752 337.584 334.904 338.957 334.767 340.317C334.629 341.678 334.205 342.998 333.52 344.2L331.787 347.297C330.642 349.288 328.829 350.859 326.635 351.759C324.442 352.66 321.994 352.837 319.682 352.265C317.35 351.684 302.697 353.953 299.549 350.738L297.737 348.91L225.095 365.147C219.945 366.299 214.65 366.759 209.366 366.513L197.215 337.189Z" fill="#FFB573"/>
<path d="M376.403 308.242C373.919 309.94 371.055 311.069 368.035 311.543C348.354 314.64 335.887 313.07 320.022 310.468C317.225 285.467 317.927 266.112 322.978 252.133C324.665 247.488 329.489 240.724 334.653 240.928C356.587 241.799 360.324 262.746 362.826 272.413C365.935 284.798 370.489 296.816 376.403 308.242Z" fill="#407BFF"/>
<path opacity="0.6" d="M376.403 308.242C373.919 309.94 371.055 311.069 368.035 311.543C348.354 314.64 335.887 313.07 320.022 310.468C317.225 285.467 317.927 266.112 322.978 252.133C324.665 247.488 329.489 240.724 334.653 240.928C356.587 241.799 360.324 262.746 362.826 272.413C365.935 284.798 370.489 296.816 376.403 308.242Z" fill="black"/>
<path d="M282.653 164.797C285.36 158.173 289.323 154.851 286.979 155.302C280.638 156.539 276.471 151.324 271.93 154.582C269.767 157.195 272.62 161.765 272.722 161.507C270.458 162.679 267.457 161.969 265.453 160.432C263.448 158.894 262.633 156.001 261.568 153.743C260.986 156.294 261.178 158.949 262.123 161.399C260.504 162.765 256.926 160.485 255.329 159.152C253.679 157.586 252.418 155.691 251.637 153.603C251.162 155.883 250.788 158.216 252.611 160.862C250.222 161.087 247.063 160.518 245.409 158.862C244.544 157.998 243.885 156.966 243.478 155.838C243.072 154.709 242.927 153.51 243.054 152.324C242.567 153.507 242.714 158.292 243.824 159.001C239.657 157.926 235.66 153.13 235.671 149.023C235.764 146.964 236.375 144.956 237.453 143.168C238.53 141.38 240.043 139.862 241.865 138.743C243.632 137.667 245.625 136.829 247.527 135.839C250.403 134.323 268.487 120.011 296.718 134.194C314.247 142.99 311.835 162.152 309.898 164.303C307.498 166.959 303.568 167.991 299.888 167.797C296.208 167.604 281.963 166.55 282.653 164.797Z" fill="#263238"/>
<path d="M286.413 155.249C284.582 157.119 283.214 159.355 282.411 161.792C281.607 164.23 281.389 166.807 281.77 169.335C282.574 174.367 290.093 182.561 289.697 182.056C289.396 181.527 289.289 180.918 289.391 180.325C289.562 178.048 290.173 175.821 291.192 173.754C291.826 176.572 292.788 182.357 295.823 182.432C297.024 180.357 298.496 178.464 298.292 176.099C298.994 178.518 299.628 180.948 300.33 183.368C303.318 181.526 305.692 178.915 307.176 175.84C308.66 172.765 309.192 169.353 308.71 166.002C308.44 164.442 307.851 162.948 306.977 161.604C305.884 160.13 304.563 158.821 303.059 157.722C299.232 154.636 294.159 151.56 289.471 153.421C288.882 153.668 286.232 154.582 286.413 155.249Z" fill="#263238"/>
<path d="M267.548 171.593C267.548 173.271 266.608 174.615 265.475 174.647C264.343 174.679 263.415 173.346 263.324 171.625C263.233 169.905 264.264 168.604 265.408 168.582C266.551 168.561 267.559 169.937 267.548 171.593Z" fill="#263238"/>
<path d="M93.206 326.77C93.7549 324.344 94.1332 321.887 94.3384 319.415C95.4708 311.102 100.612 304.672 107.146 303.414L111.868 302.489C111.868 302.489 104.462 302.489 101.37 300.436C94.8253 296.134 93.3193 283.231 93.3193 283.231C93.3193 283.231 91.4848 296.134 84.9283 300.436C81.8369 302.489 74.4312 302.489 74.4312 302.489L79.1532 303.414C85.6983 304.672 90.8846 311.102 91.9717 319.415C92.214 321.889 92.6263 324.346 93.206 326.77Z" fill="#407BFF"/>
<g opacity="0.7">
<path opacity="0.7" d="M93.206 326.77C93.7549 324.344 94.1332 321.887 94.3384 319.415C95.4708 311.102 100.612 304.672 107.146 303.414L111.868 302.489C111.868 302.489 104.462 302.489 101.37 300.436C94.8253 296.134 93.3193 283.231 93.3193 283.231C93.3193 283.231 91.4848 296.134 84.9283 300.436C81.8369 302.489 74.4312 302.489 74.4312 302.489L79.1532 303.414C85.6983 304.672 90.8846 311.102 91.9717 319.415C92.214 321.889 92.6263 324.346 93.206 326.77Z" fill="white"/>
</g>
<path d="M416.716 233.541C417.205 231.451 417.546 229.331 417.735 227.197C418.675 220.035 423.148 214.498 428.787 213.401L432.852 212.616C432.852 212.616 426.465 212.616 423.793 210.842C418.131 207.089 416.852 196.002 416.852 196.002C416.852 196.002 415.266 207.089 409.627 210.842C406.966 212.616 400.568 212.616 400.568 212.616L404.644 213.401C410.306 214.476 414.757 220.035 415.685 227.197C415.885 229.33 416.229 231.45 416.716 233.541Z" fill="#407BFF"/>
<g opacity="0.7">
<path opacity="0.7" d="M416.716 233.541C417.205 231.451 417.546 229.331 417.735 227.197C418.675 220.035 423.148 214.498 428.787 213.401L432.852 212.616C432.852 212.616 426.465 212.616 423.793 210.842C418.131 207.089 416.852 196.002 416.852 196.002C416.852 196.002 415.266 207.089 409.627 210.842C406.966 212.616 400.568 212.616 400.568 212.616L404.644 213.401C410.306 214.476 414.757 220.035 415.685 227.197C415.885 229.33 416.229 231.45 416.716 233.541Z" fill="white"/>
</g>
<path d="M189.832 119.506C190.059 119.42 190.67 115.205 191.327 110.194C192.697 99.6664 199.254 91.5264 207.554 89.9242L213.533 88.7629C213.533 88.7629 204.146 88.7629 200.239 86.1607C191.939 80.6551 190.048 64.3751 190.048 64.3751C190.048 64.3751 187.783 80.6551 179.437 86.1607C175.519 88.7629 166.143 88.7629 166.143 88.7629L172.122 89.9242C180.4 91.5264 186.968 99.6664 188.338 110.194C188.995 115.248 189.595 119.42 189.832 119.506Z" fill="#407BFF"/>
<g opacity="0.7">
<path opacity="0.7" d="M189.832 119.506C190.059 119.42 190.67 115.205 191.327 110.194C192.697 99.6664 199.254 91.5264 207.554 89.9242L213.533 88.7629C213.533 88.7629 204.146 88.7629 200.239 86.1607C191.939 80.6551 190.048 64.3751 190.048 64.3751C190.048 64.3751 187.783 80.6551 179.437 86.1607C175.519 88.7629 166.143 88.7629 166.143 88.7629L172.122 89.9242C180.4 91.5264 186.968 99.6664 188.338 110.194C188.995 115.248 189.595 119.42 189.832 119.506Z" fill="white"/>
</g>
<path d="M449.94 352.48C450.178 352.394 450.789 348.179 451.446 343.168C452.816 332.641 459.373 324.501 467.673 322.899L473.652 321.737C473.652 321.737 464.265 321.737 460.347 319.135C452.058 313.619 450.155 297.339 450.155 297.339C450.155 297.339 447.89 313.619 439.533 319.135C435.627 321.737 426.239 321.737 426.239 321.737L432.218 322.899C440.507 324.501 447.075 332.641 448.445 343.168C449.102 348.222 449.713 352.394 449.94 352.48Z" fill="#407BFF"/>
<g opacity="0.7">
<path opacity="0.7" d="M449.94 352.48C450.178 352.394 450.789 348.179 451.446 343.168C452.816 332.641 459.373 324.501 467.673 322.899L473.652 321.737C473.652 321.737 464.265 321.737 460.347 319.135C452.058 313.619 450.155 297.339 450.155 297.339C450.155 297.339 447.89 313.619 439.533 319.135C435.627 321.737 426.239 321.737 426.239 321.737L432.218 322.899C440.507 324.501 447.075 332.641 448.445 343.168C449.102 348.222 449.713 352.394 449.94 352.48Z" fill="white"/>
</g>
<path d="M354.616 122.022C354.979 120.47 355.232 118.896 355.375 117.312C356.065 112 359.383 107.882 363.573 107.064L366.596 106.484C366.596 106.484 361.852 106.484 359.881 105.172C355.68 102.387 354.718 94.1501 354.718 94.1501C354.718 94.1501 353.585 102.387 349.362 105.172C347.38 106.484 342.635 106.484 342.635 106.484L345.659 107.064C349.849 107.882 353.166 112 353.857 117.312C354.006 118.896 354.26 120.469 354.616 122.022Z" fill="#407BFF"/>
<g opacity="0.7">
<path opacity="0.7" d="M354.616 122.022C354.979 120.47 355.232 118.896 355.375 117.312C356.065 112 359.383 107.882 363.573 107.064L366.596 106.484C366.596 106.484 361.852 106.484 359.881 105.172C355.68 102.387 354.718 94.1501 354.718 94.1501C354.718 94.1501 353.585 102.387 349.362 105.172C347.38 106.484 342.635 106.484 342.635 106.484L345.659 107.064C349.849 107.882 353.166 112 353.857 117.312C354.006 118.896 354.26 120.469 354.616 122.022Z" fill="white"/>
</g>
<path d="M95.3009 188.185C95.6702 186.634 95.9238 185.06 96.0596 183.475C96.7503 178.163 100.08 174.045 104.258 173.228L107.281 172.647C107.281 172.647 102.537 172.647 100.566 171.335C96.3767 168.55 95.4141 160.324 95.4141 160.324C95.4141 160.324 94.2817 168.55 90.0466 171.335C88.065 172.647 83.3203 172.647 83.3203 172.647L86.3438 173.228C90.5336 174.045 93.8514 178.163 94.5422 183.475C94.6912 185.059 94.9446 186.632 95.3009 188.185Z" fill="#407BFF"/>
<g opacity="0.7">
<path opacity="0.7" d="M95.3009 188.185C95.6702 186.634 95.9238 185.06 96.0596 183.475C96.7503 178.163 100.08 174.045 104.258 173.228L107.281 172.647C107.281 172.647 102.537 172.647 100.566 171.335C96.3767 168.55 95.4141 160.324 95.4141 160.324C95.4141 160.324 94.2817 168.55 90.0466 171.335C88.065 172.647 83.3203 172.647 83.3203 172.647L86.3438 173.228C90.5336 174.045 93.8514 178.163 94.5422 183.475C94.6912 185.059 94.9446 186.632 95.3009 188.185Z" fill="white"/>
</g>
</svg>
